<?xml version="1.0" encoding="UTF-8" standalone="no"?>
<svg
   xmlns:dc="http://purl.org/dc/elements/1.1/"
   xmlns:cc="http://creativecommons.org/ns#"
   xmlns:rdf="http://www.w3.org/1999/02/22-rdf-syntax-ns#"
   xmlns:svg="http://www.w3.org/2000/svg"
   xmlns="http://www.w3.org/2000/svg"
   xmlns:sodipodi="http://sodipodi.sourceforge.net/DTD/sodipodi-0.dtd"
   xmlns:inkscape="http://www.inkscape.org/namespaces/inkscape"
   version="1.0"
   width="1005.9355pt"
   height="796.06873pt"
   viewBox="0 0 1005.9355 796.0687"
   preserveAspectRatio="xMidYMid meet"
   id="svg70"
   sodipodi:docname="ch1_cmos_not_gate_2.svg"
   inkscape:version="0.92.4 (5da689c313, 2019-01-14)">
  <defs
     id="defs74" />
  <sodipodi:namedview
     pagecolor="#ffffff"
     bordercolor="#666666"
     borderopacity="1"
     objecttolerance="10"
     gridtolerance="10"
     guidetolerance="10"
     inkscape:pageopacity="0"
     inkscape:pageshadow="2"
     inkscape:window-width="1366"
     inkscape:window-height="705"
     id="namedview72"
     showgrid="false"
     inkscape:zoom="0.50500348"
     inkscape:cx="587.99754"
     inkscape:cy="530.68941"
     inkscape:window-x="-8"
     inkscape:window-y="-8"
     inkscape:window-maximized="1"
     inkscape:current-layer="svg70" />
  <metadata
     id="metadata54">
Created by potrace 1.16, written by Peter Selinger 2001-2019
<rdf:RDF>
  <cc:Work
     rdf:about="">
    <dc:format>image/svg+xml</dc:format>
    <dc:type
       rdf:resource="http://purl.org/dc/dcmitype/StillImage" />
  </cc:Work>
</rdf:RDF>
</metadata>
  <g
     transform="matrix(0.144,0,0,-0.144,-33.121829,839.2687)"
     id="g68"
     style="fill:#000000;stroke:none">
    <path
       d="m 2867,5823 c -4,-3 -7,-165 -7,-359 v -353 l -160,-3 -160,-3 v 53 52 h -20 -20 v -365 -365 h 20 20 v 50 50 h 160 160 v -298 -297 l -29,-13 c -17,-7 -35,-28 -45,-50 l -17,-38 17,-37 c 10,-21 30,-42 46,-49 l 28,-13 v -297 -298 h -160 -160 v 50 50 h -20 -20 v -365 -365 h 20 20 v 50 50 h 160 160 v -298 -298 l -28,-10 c -17,-7 -35,-25 -45,-47 l -18,-36 7,-25 c 8,-31 48,-76 69,-76 h 15 V 1230 591 l -152,-3 -153,-3 v -15 -15 l 162,-5 c 90,-3 236,-3 325,0 l 163,5 v 15 15 l -152,3 -153,3 v 638 639 l 24,6 c 14,3 33,20 43,36 l 17,30 916,2 915,3 3,517 2,517 18,5 c 9,2 33,8 52,11 70,14 187,81 213,122 4,7 19,25 32,39 72,78 104,232 74,349 -41,154 -163,274 -316,310 l -73,18 v 548 549 h 435 435 v 20 20 h -435 -435 l -2,428 -3,427 -971,3 c -534,1 -974,-1 -977,-5 z m 1913,-448 v -405 h -510 -510 v -530 -530 h -390 -390 l -12,25 c -6,14 -24,30 -39,37 l -29,13 -2,320 -3,320 -177,3 -178,2 v 218 217 h 177 178 l 3,358 2,357 h 940 940 z m 0,-993 v -548 l -72,-18 c -180,-45 -316,-202 -329,-381 -7,-89 32,-219 82,-276 12,-13 26,-31 33,-39 35,-48 145,-111 216,-125 19,-3 43,-9 53,-11 l 17,-5 v -495 -494 h -898 -898 l -17,30 c -10,16 -29,33 -43,36 l -24,6 v 314 313 l -19,11 c -11,6 -89,10 -180,10 h -161 v 215 215 l 178,2 177,3 3,323 2,322 h 14 c 8,0 27,15 42,33 l 27,32 406,5 406,5 3,533 2,532 h 490 490 z m 130,-616 c 109,-34 193,-109 238,-213 l 22,-52 v -95 -94 l -20,-48 c -46,-107 -118,-177 -221,-214 l -54,-20 h -75 -75 l -54,20 c -101,37 -172,105 -221,211 l -20,44 v 98 98 l 22,52 c 33,77 97,148 168,186 76,40 206,53 290,27 z"
       id="path56"
       inkscape:connector-curvature="0" />
    <path
       d="m 4787,3694 c -4,-4 -7,-29 -7,-56 v -48 h -49 -49 l -5,-13 c -3,-8 -2,-20 3,-27 l 8,-12 45,3 46,4 3,-55 3,-55 h 15 15 l 3,55 3,55 46,-4 45,-3 8,12 c 5,7 6,19 3,27 l -5,13 h -49 -48 l -3,52 c -3,48 -15,68 -31,52 z"
       id="path58"
       inkscape:connector-curvature="0" />
    <path
       d="m 4678,3218 c -3,-7 -3,-19 -1,-25 l 5,-13 h 118 118 l 5,13 c 2,6 2,18 -1,25 l -4,12 h -118 -118 z"
       id="path60"
       inkscape:connector-curvature="0" />
    <path
       d="m 2380,5005 v -85 l -26,10 c -61,23 -144,-5 -144,-48 v -17 h -152 -153 l -3,-921 -2,-922 -25,-6 c -13,-3 -32,-20 -42,-36 l -17,-30 -461,-2 -460,-3 v -20 -20 l 460,-3 461,-2 17,-29 c 10,-17 32,-34 52,-41 l 35,-12 35,12 c 20,7 42,24 52,41 l 17,29 h 178 178 v -110 -110 h 20 20 v 245 245 h -20 -20 v -110 -110 h -178 -178 l -17,30 c -10,16 -29,33 -43,36 l -24,6 v 899 898 l 135,3 135,3 v -17 c 0,-43 83,-71 144,-48 l 26,10 v -85 -85 h 20 20 v 245 245 h -20 -20 z m -46,-143 16,-19 -19,-17 c -23,-21 -49,-18 -64,6 l -11,16 13,16 c 18,21 44,20 65,-2 z"
       id="path62"
       inkscape:connector-curvature="0" />
    <path
       d="m 2675,460 c -4,-6 -1,-17 5,-25 l 12,-15 h 188 188 l 12,15 c 6,8 9,19 5,25 l -6,10 h -199 -199 z"
       id="path64"
       inkscape:connector-curvature="0" />
    <path
       d="m 2795,340 c -4,-6 -1,-17 5,-25 l 12,-15 h 68 68 l 12,15 c 21,26 0,35 -80,35 -44,0 -82,-5 -85,-10 z"
       id="path66"
       inkscape:connector-curvature="0" />
  </g>
  <text
     xml:space="preserve"
     style="font-style:normal;font-weight:normal;font-size:30px;line-height:1.25;font-family:sans-serif;letter-spacing:0px;word-spacing:0px;fill:#000000;fill-opacity:1;stroke:none;stroke-width:0.75"
     x="-3.7460938"
     y="381.71515"
     id="text78"><tspan
       sodipodi:role="line"
       id="tspan76"
       x="-3.7460938"
       y="381.71515"
       style="font-size:56px;stroke-width:0.75">Input</tspan></text>
  <text
     xml:space="preserve"
     style="font-style:normal;font-weight:normal;font-size:30px;line-height:1.25;font-family:sans-serif;letter-spacing:0px;word-spacing:0px;fill:#000000;fill-opacity:1;stroke:none;stroke-width:0.75"
     x="813.08002"
     y="138.15247"
     id="text82"><tspan
       sodipodi:role="line"
       id="tspan80"
       x="813.08002"
       y="138.15247"
       style="font-size:56px;stroke-width:0.75">Output</tspan></text>
  <text
     xml:space="preserve"
     style="font-style:normal;font-weight:normal;font-size:30px;line-height:1.25;font-family:sans-serif;letter-spacing:0px;word-spacing:0px;fill:#000000;fill-opacity:1;stroke:none;stroke-width:0.75"
     x="755.15961"
     y="328.25018"
     id="text86"><tspan
       sodipodi:role="line"
       id="tspan84"
       x="755.15961"
       y="328.25018"
       style="font-size:56px;stroke-width:0.75">Power </tspan><tspan
       sodipodi:role="line"
       x="755.15961"
       y="398.25018"
       style="font-size:56px;stroke-width:0.75"
       id="tspan88">Supply</tspan></text>
</svg>
