<?xml version="1.0" encoding="UTF-8" standalone="no"?>
<svg
   xmlns:dc="http://purl.org/dc/elements/1.1/"
   xmlns:cc="http://creativecommons.org/ns#"
   xmlns:rdf="http://www.w3.org/1999/02/22-rdf-syntax-ns#"
   xmlns:svg="http://www.w3.org/2000/svg"
   xmlns="http://www.w3.org/2000/svg"
   xmlns:sodipodi="http://sodipodi.sourceforge.net/DTD/sodipodi-0.dtd"
   xmlns:inkscape="http://www.inkscape.org/namespaces/inkscape"
   version="1.0"
   width="495.375776pt"
   height="263.456356pt"
   viewBox="0 0 495.375776 263.456356"
   preserveAspectRatio="xMidYMid meet"
   id="svg36"
   sodipodi:docname="ch1_primitive_circuit.svg"
   inkscape:version="0.92.4 (5da689c313, 2019-01-14)">
  <defs
     id="defs40" />
  <sodipodi:namedview
     pagecolor="#ffffff"
     bordercolor="#666666"
     borderopacity="1"
     objecttolerance="10"
     gridtolerance="10"
     guidetolerance="10"
     inkscape:pageopacity="0"
     inkscape:pageshadow="2"
     inkscape:window-width="1366"
     inkscape:window-height="705"
     id="namedview38"
     showgrid="false"
     inkscape:zoom="0.8132404"
     inkscape:cx="330.25051"
     inkscape:cy="227.80715"
     inkscape:window-x="-8"
     inkscape:window-y="-8"
     inkscape:window-maximized="1"
     inkscape:current-layer="svg36" />
  <metadata
     id="metadata26">
Created by potrace 1.16, written by Peter Selinger 2001-2019
<rdf:RDF>
  <cc:Work
     rdf:about="">
    <dc:format>image/svg+xml</dc:format>
    <dc:type
       rdf:resource="http://purl.org/dc/dcmitype/StillImage" />
  </cc:Work>
</rdf:RDF>
</metadata>
  <g
     transform="translate(-143.992112,354.176356) scale(0.144000,-0.144000)"
     fill="#000000"
     stroke="none"
     id="g34">
    <path
       d="M2840 2371 l-175 -88 -22 14 c-19 13 -28 13 -53 3 -16 -7 -32 -21 -35 -31 l-6 -19 -640 0 -639 0 0 -345 0 -345 -18 0 c-48 0 -119 -36 -168 -84 -80 -81 -104 -184 -67 -292 30 -89 151 -184 235 -184 l18 0 0 -185 0 -185 1450 0 1450 0 0 185 0 185 18 0 c84 0 205 95 235 184 37 108 13 211 -67 292 -49 48 -120 84 -168 84 l-18 0 0 345 0 345 -479 0 -480 0 -6 19 c-3 10 -19 24 -36 31 -27 11 -34 10 -57 -7 -20 -15 -27 -29 -27 -53 0 -24 7 -38 27 -53 23 -17 30 -18 57 -7 17 7 33 21 36 31 l6 19 470 0 469 0 0 -335 0 -335 -18 0 c-84 0 -205 -95 -235 -184 -37 -108 -13 -211 67 -292 49 -48 120 -84 168 -84 l18 0 0 -175 0 -175 -1430 0 -1430 0 0 175 0 175 18 0 c84 0 205 95 235 184 37 108 13 211 -67 292 -49 48 -120 84 -168 84 l-18 0 0 335 0 335 629 0 630 0 6 -19 c3 -10 19 -24 36 -31 27 -11 34 -10 57 7 15 11 28 32 30 47 3 24 23 36 187 118 161 81 205 109 162 107 -7 0 -91 -40 -187 -88z m-202 -103 c28 -28 1 -75 -38 -63 -14 4 -20 15 -20 35 0 37 33 53 58 28z m526 6 c24 -9 21 -61 -4 -69 -39 -12 -66 35 -38 63 14 14 20 14 42 6z m-1784 -765 c60 -27 98 -64 126 -124 78 -164 -43 -355 -226 -355 -64 0 -141 32 -182 76 -89 96 -89 252 0 348 67 72 192 96 282 55z m2879 0 c80 -36 80 -34 -6 -121 -43 -43 -84 -78 -93 -78 -9 0 -50 35 -93 78 -86 87 -86 85 -6 121 58 27 140 27 198 0z m-129 -229 c0 -9 -35 -50 -78 -93 -87 -86 -85 -86 -121 -6 -27 58 -27 140 0 198 36 80 34 80 121 -6 43 -43 78 -84 78 -93z m256 106 c30 -65 32 -143 3 -205 -36 -80 -34 -80 -121 6 -43 43 -78 84 -78 93 0 19 151 171 163 163 5 -3 20 -29 33 -57z m-133 -214 c86 -87 86 -85 6 -121 -76 -35 -194 -21 -256 31 -12 9 1 26 64 90 43 43 84 78 93 78 9 0 50 -35 93 -78z"
       id="path28" />
    <path
       d="M1270 1435 l0 -35 -35 0 c-24 0 -35 -5 -35 -15 0 -10 11 -15 35 -15 l35 0 0 -35 c0 -19 5 -35 10 -35 6 0 10 16 10 35 l0 35 35 0 c24 0 35 5 35 15 0 10 -11 15 -35 15 l-35 0 0 35 c0 19 -4 35 -10 35 -5 0 -10 -16 -10 -35z"
       id="path30" />
    <path
       d="M1200 1145 c0 -12 16 -15 80 -15 64 0 80 3 80 15 0 12 -16 15 -80 15 -64 0 -80 -3 -80 -15z"
       id="path32" />
  </g>
  <text
     xml:space="preserve"
     style="font-style:normal;font-weight:normal;font-size:30px;line-height:1.25;font-family:sans-serif;letter-spacing:0px;word-spacing:0px;fill:#000000;fill-opacity:1;stroke:none;stroke-width:0.75"
     x="251.06609"
     y="59.342892"
     id="text48"><tspan
       sodipodi:role="line"
       id="tspan46"
       x="251.06609"
       y="59.342892"
       style="stroke-width:0.75">S1</tspan></text>
  <text
     xml:space="preserve"
     style="font-style:normal;font-weight:normal;font-size:30px;line-height:1.25;font-family:sans-serif;letter-spacing:0px;word-spacing:0px;fill:#000000;fill-opacity:1;stroke:none;stroke-width:0.75"
     x="402.0318"
     y="122.92456"
     id="text52"><tspan
       sodipodi:role="line"
       id="tspan50"
       x="402.0318"
       y="122.92456"
       style="stroke-width:0.75">L1</tspan></text>
  <text
     xml:space="preserve"
     style="font-style:normal;font-weight:normal;font-size:30px;line-height:1.25;font-family:sans-serif;letter-spacing:0px;word-spacing:0px;fill:#000000;fill-opacity:1;stroke:none;stroke-width:0.75"
     x="49.80077"
     y="119.58745"
     id="text44"><tspan
       sodipodi:role="line"
       id="tspan42"
       x="49.80077"
       y="119.58745"
       style="stroke-width:0.75">V1</tspan></text>
</svg>
