<?xml version="1.0" encoding="UTF-8" standalone="no"?>
<svg
   xmlns:dc="http://purl.org/dc/elements/1.1/"
   xmlns:cc="http://creativecommons.org/ns#"
   xmlns:rdf="http://www.w3.org/1999/02/22-rdf-syntax-ns#"
   xmlns:svg="http://www.w3.org/2000/svg"
   xmlns="http://www.w3.org/2000/svg"
   xmlns:sodipodi="http://sodipodi.sourceforge.net/DTD/sodipodi-0.dtd"
   xmlns:inkscape="http://www.inkscape.org/namespaces/inkscape"
   version="1.0"
   width="799.01965pt"
   height="662.61047pt"
   viewBox="0 0 799.01963 662.61045"
   preserveAspectRatio="xMidYMid meet"
   id="svg64"
   sodipodi:docname="ch1figure7.svg"
   inkscape:version="0.92.4 (5da689c313, 2019-01-14)">
  <defs
     id="defs68" />
  <sodipodi:namedview
     pagecolor="#ffffff"
     bordercolor="#666666"
     borderopacity="1"
     objecttolerance="10"
     gridtolerance="10"
     guidetolerance="10"
     inkscape:pageopacity="0"
     inkscape:pageshadow="2"
     inkscape:window-width="1920"
     inkscape:window-height="1001"
     id="namedview66"
     showgrid="false"
     inkscape:zoom="0.78588975"
     inkscape:cx="433.10281"
     inkscape:cy="486.70648"
     inkscape:window-x="-9"
     inkscape:window-y="-9"
     inkscape:window-maximized="1"
     inkscape:current-layer="svg64" />
  <metadata
     id="metadata40">
Created by potrace 1.16, written by Peter Selinger 2001-2019
<rdf:RDF>
  <cc:Work
     rdf:about="">
    <dc:format>image/svg+xml</dc:format>
    <dc:type
       rdf:resource="http://purl.org/dc/dcmitype/StillImage" />
    <dc:title />
  </cc:Work>
</rdf:RDF>
</metadata>
  <text
     xml:space="preserve"
     style="font-style:normal;font-weight:normal;font-size:49.75665283px;line-height:1.25;font-family:sans-serif;letter-spacing:0px;word-spacing:0px;fill:#000000;fill-opacity:1;stroke:none;stroke-width:0.66638374"
     x="53.207508"
     y="189.47412"
     id="text72"><tspan
       sodipodi:role="line"
       id="tspan70"
       x="53.207508"
       y="234.86862"
       style="stroke-width:0.66638374" /></text>
  <text
     xml:space="preserve"
     style="font-style:normal;font-weight:normal;font-size:55.99999619px;line-height:1.25;font-family:sans-serif;letter-spacing:0px;word-spacing:0px;fill:#000000;fill-opacity:1;stroke:none;stroke-width:0.74999994"
     x="-5.0585933"
     y="188.45551"
     id="text76"><tspan
       sodipodi:role="line"
       id="tspan74"
       x="-5.0585933"
       y="188.45551"
       style="stroke-width:0.74999994">pMOS</tspan></text>
  <text
     xml:space="preserve"
     style="font-style:normal;font-weight:normal;font-size:55.99999619px;line-height:1.25;font-family:sans-serif;letter-spacing:0px;word-spacing:0px;fill:#000000;fill-opacity:1;stroke:none;stroke-width:0.74999994"
     x="0.66740167"
     y="539.64984"
     id="text80"><tspan
       sodipodi:role="line"
       id="tspan78"
       x="0.66740167"
       y="539.64984"
       style="stroke-width:0.74999994">nMOS</tspan></text>
  <text
     xml:space="preserve"
     style="font-style:normal;font-weight:normal;font-size:55.99999619px;line-height:1.25;font-family:sans-serif;letter-spacing:0px;word-spacing:0px;fill:#000000;fill-opacity:1;stroke:none;stroke-width:0.74999994"
     x="458.74689"
     y="39.579674"
     id="text84"><tspan
       sodipodi:role="line"
       id="tspan82"
       x="458.74689"
       y="90.670166"
       style="stroke-width:0.74999994" /></text>
  <text
     xml:space="preserve"
     style="font-style:normal;font-weight:normal;font-size:55.99999619px;line-height:1.25;font-family:sans-serif;letter-spacing:0px;word-spacing:0px;fill:#000000;fill-opacity:1;stroke:none;stroke-width:0.74999994"
     x="315.59705"
     y="26.219023"
     id="text88"><tspan
       sodipodi:role="line"
       id="tspan86"
       x="315.59705"
       y="77.309517"
       style="stroke-width:0.74999994" /></text>
  <text
     xml:space="preserve"
     style="font-style:normal;font-weight:normal;font-size:55.99999619px;line-height:1.25;font-family:sans-serif;letter-spacing:0px;word-spacing:0px;fill:#000000;fill-opacity:1;stroke:none;stroke-width:0.74999994"
     x="418.66492"
     y="29.082029"
     id="text92"><tspan
       sodipodi:role="line"
       x="418.66492"
       y="29.082029"
       style="font-size:39.99999619px;line-height:0px;stroke-width:0.74999994"
       id="tspan96">Low V<tspan
   style="font-size:39.99999619px;baseline-shift:sub"
   id="tspan103">G</tspan></tspan></text>
  <flowRoot
     xml:space="preserve"
     id="flowRoot105"
     style="font-style:normal;font-weight:normal;font-size:74.66666412px;line-height:1.25;font-family:sans-serif;letter-spacing:0px;word-spacing:0px;fill:#000000;fill-opacity:1;stroke:none"
     transform="matrix(0.74999996,0,0,0.74999996,-29.871232,-96.889841)"><flowRegion
       id="flowRegion107"><rect
         id="rect109"
         width="31.811077"
         height="117.06477"
         x="654.03577"
         y="19.086647" /></flowRegion><flowPara
       id="flowPara111" /></flowRoot>  <text
     xml:space="preserve"
     style="font-style:normal;font-weight:normal;font-size:55.99999619px;line-height:1.25;font-family:sans-serif;letter-spacing:0px;word-spacing:0px;fill:#000000;fill-opacity:1;stroke:none;stroke-width:0.74999994"
     x="638.12115"
     y="32.659508"
     id="text92-4"><tspan
       sodipodi:role="line"
       x="638.12115"
       y="32.659508"
       style="font-size:39.99999619px;line-height:0px;stroke-width:0.74999994"
       id="tspan96-9">High V<tspan
   style="font-size:39.99999619px;baseline-shift:sub;stroke-width:0.74999994"
   id="tspan103-1">G</tspan></tspan></text>
  <g
     id="g102"
     transform="matrix(0.11081133,0,0,-0.1046132,151.09389,705.74946)"
     style="fill:#000000;stroke:none">
    <path
       id="path82"
       d="m 1430,5710 v -340 h -90 -90 v -260 -260 h 90 90 v -385 -385 h 30 30 v 410 410 h -95 -95 v 215 215 h 95 95 v 360 360 h -30 -30 z"
       inkscape:connector-curvature="0" />
    <path
       id="path84"
       d="m 3647,6033 c -4,-3 -7,-161 -7,-349 v -344 l -24,-15 c -13,-9 -30,-30 -36,-46 -11,-25 -10,-36 3,-64 9,-18 25,-36 36,-40 l 21,-6 v -149 -149 l -21,-11 c -11,-7 -27,-27 -35,-46 -13,-30 -13,-38 1,-64 8,-16 24,-34 35,-40 l 20,-11 v -389 -390 h 30 30 v 395 c 0,250 4,395 10,395 5,0 17,14 26,31 18,36 12,74 -18,105 -17,20 -20,37 -21,170 l -2,149 25,21 c 33,29 34,93 2,127 l -23,24 1,338 c 0,240 -3,341 -11,351 -12,15 -31,18 -42,7 z"
       inkscape:connector-curvature="0" />
    <path
       id="path86"
       d="m 5547,6034 c -4,-4 -7,-164 -7,-355 v -348 l -19,-10 c -31,-17 -46,-66 -30,-102 39,-97 186,-49 164,53 -4,16 -18,36 -31,44 l -24,16 -2,352 -3,351 -20,3 c -12,2 -24,0 -28,-4 z"
       inkscape:connector-curvature="0" />
    <path
       id="path88"
       d="m 1150,5268 v -101 l -18,16 c -25,23 -91,21 -122,-3 l -25,-20 H 658 330 v -30 -30 h 330 c 213,0 330,-4 330,-10 0,-5 9,-19 20,-30 24,-24 86,-27 118,-4 l 22,15 v -110 -111 h 20 20 v 260 260 h -20 -20 z m -38,-132 c 16,-37 4,-56 -37,-56 -40,0 -51,15 -41,55 9,35 62,36 78,1 z"
       inkscape:connector-curvature="0" />
    <path
       id="path90"
       d="m 5773,5243 c -10,-16 -56,-105 -103,-200 -62,-126 -90,-172 -103,-173 -28,0 -64,-28 -76,-59 -14,-33 -2,-74 29,-93 l 20,-13 v -392 -393 h 30 30 v 389 390 l 18,13 c 35,25 45,56 32,102 l -11,42 95,191 c 92,182 105,223 71,223 -8,0 -22,-12 -32,-27 z"
       inkscape:connector-curvature="0" />
    <path
       id="path92"
       d="m 1430,2330 v -340 h -90 -90 v -260 -260 h 90 90 V 1090 710 h 30 30 v 405 405 h -95 -95 v 215 215 h 95 95 v 360 360 h -30 -30 z"
       inkscape:connector-curvature="0" />
    <path
       id="path94"
       d="m 3633,2663 c -10,-3 -13,-58 -13,-223 v -218 l -30,-30 c -31,-32 -37,-62 -20,-106 10,-27 56,-56 88,-56 26,0 71,37 83,68 12,32 -5,88 -32,102 l -19,11 v 217 c 0,241 -4,257 -57,235 z"
       inkscape:connector-curvature="0" />
    <path
       id="path96"
       d="m 5502,2598 c -9,-9 -12,-72 -12,-224 v -212 l -30,-30 c -22,-23 -30,-40 -30,-67 0,-27 8,-44 30,-67 l 30,-30 v -158 -158 l -30,-30 c -43,-43 -38,-105 12,-140 l 18,-13 v -375 c 0,-316 2,-378 15,-390 12,-13 17,-12 35,6 l 20,20 v 367 367 l 27,28 c 21,22 28,39 28,69 0,32 -6,46 -28,65 l -27,23 v 161 161 l 28,24 c 22,19 27,31 27,70 0,39 -5,51 -27,70 l -28,24 v 219 c 0,191 -2,221 -16,226 -22,8 -28,8 -42,-6 z"
       inkscape:connector-curvature="0" />
    <path
       id="path98"
       d="m 3899,2153 c -9,-2 -62,-96 -125,-220 l -109,-216 -39,-13 c -41,-13 -52,-25 -62,-61 -9,-33 3,-72 31,-97 l 25,-23 v -375 c 0,-321 2,-377 15,-388 12,-10 18,-8 35,11 l 19,24 1,369 v 368 l 24,19 c 32,25 42,71 23,108 l -15,30 104,208 c 114,229 125,268 73,256 z"
       inkscape:connector-curvature="0" />
    <path
       id="path100"
       d="M 1150,1885 V 1780 H 740 330 v -30 -30 h 410 410 v -125 -125 h 20 20 v 260 260 h -20 -20 z"
       inkscape:connector-curvature="0" />
  </g>
</svg>
