<?xml version="1.0" encoding="UTF-8" standalone="no"?>
<svg
   xmlns:dc="http://purl.org/dc/elements/1.1/"
   xmlns:cc="http://creativecommons.org/ns#"
   xmlns:rdf="http://www.w3.org/1999/02/22-rdf-syntax-ns#"
   xmlns:svg="http://www.w3.org/2000/svg"
   xmlns="http://www.w3.org/2000/svg"
   xmlns:sodipodi="http://sodipodi.sourceforge.net/DTD/sodipodi-0.dtd"
   xmlns:inkscape="http://www.inkscape.org/namespaces/inkscape"
   version="1.0"
   width="695.26587pt"
   height="796.06866pt"
   viewBox="0 0 695.26589 796.06864"
   preserveAspectRatio="xMidYMid meet"
   id="svg203"
   sodipodi:docname="ch1_cmos_not_input_low.svg"
   inkscape:version="0.92.4 (5da689c313, 2019-01-14)">
  <defs
     id="defs207" />
  <sodipodi:namedview
     pagecolor="#ffffff"
     bordercolor="#666666"
     borderopacity="1"
     objecttolerance="10"
     gridtolerance="10"
     guidetolerance="10"
     inkscape:pageopacity="0"
     inkscape:pageshadow="2"
     inkscape:window-width="640"
     inkscape:window-height="480"
     id="namedview205"
     showgrid="false"
     inkscape:zoom="0.22235228"
     inkscape:cx="301.26065"
     inkscape:cy="530.68934"
     inkscape:window-x="0"
     inkscape:window-y="0"
     inkscape:window-maximized="0"
     inkscape:current-layer="svg203" />
  <metadata
     id="metadata189">
Created by potrace 1.16, written by Peter Selinger 2001-2019
<rdf:RDF>
  <cc:Work
     rdf:about="">
    <dc:format>image/svg+xml</dc:format>
    <dc:type
       rdf:resource="http://purl.org/dc/dcmitype/StillImage" />
  </cc:Work>
</rdf:RDF>
</metadata>
  <g
     transform="matrix(0.144,0,0,-0.144,-101.08076,912.70869)"
     id="g201"
     style="fill:#000000;stroke:none">
    <path
       d="m 1017,6333 c -4,-3 -7,-109 -7,-235 v -228 l -24,-11 c -13,-6 -32,-26 -42,-45 l -18,-33 10,-38 9,-38 32,-20 32,-20 1,-296 v -297 l -35,-26 -34,-26 -6,-34 -7,-34 17,-31 c 9,-18 27,-37 40,-43 l 25,-11 v -186 -186 l -29,-13 c -17,-7 -35,-28 -45,-50 l -17,-38 17,-37 c 10,-21 30,-42 46,-49 l 28,-13 v -168 -167 l -24,-11 c -13,-6 -32,-26 -42,-45 l -18,-33 10,-37 c 11,-46 52,-78 100,-78 h 37 l 28,32 29,32 v 39 38 l -21,27 c -11,14 -26,26 -33,26 h -13 l -6,122 c -4,66 -7,145 -7,175 v 53 h 14 c 8,0 27,15 42,33 l 27,32 406,5 406,5 3,533 2,532 h 490 490 v -548 -548 l -72,-18 c -180,-45 -316,-202 -329,-381 -7,-89 32,-219 82,-276 12,-13 26,-31 33,-39 35,-48 145,-111 216,-125 19,-3 43,-9 53,-11 l 17,-5 v -495 -494 h -898 -898 l -17,30 c -10,16 -29,33 -43,36 l -24,6 v 52 c 0,28 3,115 7,193 l 6,141 22,12 c 44,23 59,99 30,144 -17,25 -70,52 -95,48 l -15,-2 -136,272 c -127,255 -158,302 -167,256 -2,-9 56,-133 127,-275 72,-142 131,-264 131,-270 0,-6 -7,-24 -15,-39 -8,-16 -15,-38 -15,-49 0,-29 35,-82 59,-90 l 21,-6 v -192 -193 l -28,-10 c -17,-7 -35,-25 -45,-47 l -18,-36 7,-25 c 8,-31 48,-76 69,-76 h 15 v -640 -639 l -152,-3 -153,-3 v -15 -15 l 162,-5 c 90,-3 236,-3 325,0 l 163,5 v 15 15 l -152,3 -153,3 v 638 639 l 24,6 c 14,3 33,20 43,36 l 17,30 916,2 915,3 3,517 2,517 18,5 c 9,2 33,8 52,11 70,14 187,81 213,122 4,7 19,25 32,39 72,78 104,232 74,349 -41,154 -163,274 -316,310 l -73,18 v 548 549 h 435 435 v 20 20 h -435 -435 l -2,428 -3,427 -971,3 c -534,1 -974,-1 -977,-5 z m 1913,-448 v -405 h -510 -510 v -530 -530 h -390 -390 l -12,25 c -6,14 -24,30 -40,37 l -28,13 v 96 c 0,53 3,137 6,187 l 7,90 22,12 c 28,15 45,51 45,94 v 33 l -25,27 c -13,14 -29,26 -35,26 h -10 v 299 299 l 35,35 35,35 v 40 39 l -21,27 c -11,14 -27,26 -35,26 h -14 v 103 c 0,56 -3,153 -7,215 l -6,112 h 941 942 z m -1856,-81 c 20,-20 20,-43 0,-72 l -15,-22 h -29 -29 l -11,19 c -14,26 -13,64 2,79 17,17 64,15 82,-4 z m 6,-805 c 17,-30 8,-62 -22,-78 l -26,-15 -26,14 -26,13 v 32 c 0,40 16,55 57,55 h 32 z m 1980,-723 c 109,-34 193,-109 238,-213 l 22,-52 v -95 -94 l -20,-48 c -46,-107 -118,-177 -221,-214 l -54,-20 h -75 -75 l -54,20 c -101,37 -172,105 -221,211 l -20,44 v 98 98 l 22,52 c 33,77 97,148 168,186 76,40 206,53 290,27 z M 1074,3894 c 20,-20 20,-43 0,-72 l -15,-22 h -29 -29 l -11,19 c -14,26 -13,64 2,79 17,17 64,15 82,-4 z m 6,-805 c 17,-30 8,-62 -22,-78 l -26,-15 -26,14 -26,13 v 32 c 0,40 16,55 57,55 h 32 z"
       id="path191"
       inkscape:connector-curvature="0" />
    <path
       d="m 2937,4204 c -4,-4 -7,-29 -7,-56 v -48 h -49 -49 l -5,-13 c -3,-8 -2,-20 3,-27 l 8,-12 45,3 46,4 3,-55 3,-55 h 15 15 l 3,55 3,55 46,-4 45,-3 8,12 c 5,7 6,19 3,27 l -5,13 h -49 -48 l -3,52 c -3,48 -15,68 -31,52 z"
       id="path193"
       inkscape:connector-curvature="0" />
    <path
       d="m 2828,3728 c -3,-7 -3,-19 -1,-25 l 5,-13 h 118 118 l 5,13 c 2,6 2,18 -1,25 l -4,12 h -118 -118 z"
       id="path195"
       inkscape:connector-curvature="0" />
    <path
       d="m 825,970 c -4,-6 -1,-17 5,-25 l 12,-15 h 188 188 l 12,15 c 6,8 9,19 5,25 l -6,10 H 1030 831 Z"
       id="path197"
       inkscape:connector-curvature="0" />
    <path
       d="m 945,850 c -4,-6 -1,-17 5,-25 l 12,-15 h 68 68 l 12,15 c 21,26 0,35 -80,35 -44,0 -82,-5 -85,-10 z"
       id="path199"
       inkscape:connector-curvature="0" />
  </g>
  <text
     xml:space="preserve"
     style="font-style:normal;font-weight:normal;font-size:30.00000381px;line-height:1.25;font-family:sans-serif;letter-spacing:0px;word-spacing:0px;fill:#000000;fill-opacity:1;stroke:none;stroke-width:0.75"
     x="502.4104"
     y="143.35803"
     id="text82"><tspan
       sodipodi:role="line"
       id="tspan80"
       x="502.4104"
       y="143.35803"
       style="font-size:56.00000763px;stroke-width:0.75">Output</tspan></text>
  <text
     xml:space="preserve"
     style="font-style:normal;font-weight:normal;font-size:30.00000381px;line-height:1.25;font-family:sans-serif;letter-spacing:0px;word-spacing:0px;fill:#000000;fill-opacity:1;stroke:none;stroke-width:0.75"
     x="412.30939"
     y="337.29996"
     id="text86"><tspan
       sodipodi:role="line"
       id="tspan84"
       x="412.30939"
       y="337.29996"
       style="font-size:56.00000763px;stroke-width:0.75">Power </tspan><tspan
       sodipodi:role="line"
       x="412.30939"
       y="407.29996"
       style="font-size:56.00000763px;stroke-width:0.75"
       id="tspan88">Supply</tspan></text>
</svg>
