<?xml version="1.0" encoding="UTF-8" standalone="no"?>
<svg
   xmlns:dc="http://purl.org/dc/elements/1.1/"
   xmlns:cc="http://creativecommons.org/ns#"
   xmlns:rdf="http://www.w3.org/1999/02/22-rdf-syntax-ns#"
   xmlns:svg="http://www.w3.org/2000/svg"
   xmlns="http://www.w3.org/2000/svg"
   xmlns:sodipodi="http://sodipodi.sourceforge.net/DTD/sodipodi-0.dtd"
   xmlns:inkscape="http://www.inkscape.org/namespaces/inkscape"
   version="1.0"
   width="741.600000pt"
   height="446.400000pt"
   viewBox="0 0 741.600000 446.400000"
   preserveAspectRatio="xMidYMid meet"
   id="svg44"
   sodipodi:docname="ch1_naive_and_gate.svg"
   inkscape:version="0.92.4 (5da689c313, 2019-01-14)">
  <defs
     id="defs48" />
  <sodipodi:namedview
     pagecolor="#ffffff"
     bordercolor="#666666"
     borderopacity="1"
     objecttolerance="10"
     gridtolerance="10"
     guidetolerance="10"
     inkscape:pageopacity="0"
     inkscape:pageshadow="2"
     inkscape:window-width="1920"
     inkscape:window-height="1001"
     id="namedview46"
     showgrid="false"
     inkscape:zoom="2.7150538"
     inkscape:cx="366.28313"
     inkscape:cy="332.05056"
     inkscape:window-x="-9"
     inkscape:window-y="-9"
     inkscape:window-maximized="1"
     inkscape:current-layer="svg44" />
  <metadata
     id="metadata30">
Created by potrace 1.16, written by Peter Selinger 2001-2019
<rdf:RDF>
  <cc:Work
     rdf:about="">
    <dc:format>image/svg+xml</dc:format>
    <dc:type
       rdf:resource="http://purl.org/dc/dcmitype/StillImage" />
    <dc:title></dc:title>
  </cc:Work>
</rdf:RDF>
</metadata>
  <g
     transform="translate(0.000000,548.640000) scale(0.144000,-0.144000)"
     fill="#000000"
     stroke="none"
     id="g42">
    <path
       d="M1110 3625 l0 -185 -18 0 c-38 0 -111 -32 -150 -66 -22 -19 -54 -62 -71 -96 l-31 -61 1 -56 c1 -67 13 -105 56 -164 36 -51 104 -95 169 -109 l44 -10 0 -124 0 -124 10 0 10 0 0 124 0 124 44 10 c141 30 239 164 223 303 -8 63 -50 142 -100 185 -38 32 -112 64 -149 64 l-18 0 0 175 0 175 675 0 675 0 0 -110 0 -110 -35 0 c-19 0 -35 -4 -35 -10 l0 -10 240 0 240 0 0 10 c0 6 -16 10 -35 10 l-35 0 0 110 0 110 580 0 580 0 0 -110 0 -110 -35 0 c-19 0 -35 -4 -35 -10 l0 -10 240 0 240 0 0 10 c0 6 -16 10 -35 10 l-35 0 0 110 0 110 415 0 415 0 0 10 0 10 -425 0 -425 0 0 -120 0 -120 -150 0 -150 0 0 120 0 120 -600 0 -600 0 0 -120 0 -120 -150 0 -150 0 0 120 0 120 -695 0 -695 0 0 -185z m93 -226 l39 -10 53 -52 53 -52 11 -40 c14 -50 14 -119 1 -166 -14 -48 -84 -127 -135 -150 l-40 -19 -65 0 -65 0 -40 19 c-51 23 -121 102 -135 150 -13 47 -13 116 1 166 l11 40 53 52 c30 29 69 56 87 62 45 13 125 13 171 0z"
       id="path32" />
    <path
       d="M1110 3315 l0 -35 -35 0 -35 0 0 -15 0 -15 35 0 35 0 0 -35 c0 -19 5 -35 10 -35 6 0 10 16 10 35 l0 35 35 0 35 0 0 15 0 15 -35 0 -35 0 0 35 c0 19 -4 35 -10 35 -5 0 -10 -16 -10 -35z"
       id="path34" />
    <path
       d="M1040 3025 l0 -15 80 0 80 0 0 15 0 15 -80 0 -80 0 0 -15z"
       id="path36" />
    <path
       d="M2490 3480 c0 -6 32 -10 75 -10 l75 0 0 -880 0 -880 -1320 0 -1320 0 0 -10 0 -10 1330 0 1330 0 0 890 0 890 75 0 c43 0 75 4 75 10 l0 10 -160 0 -160 0 0 -10z"
       id="path38" />
    <path
       d="M3990 3480 c0 -6 32 -10 75 -10 l75 0 0 -1370 0 -1370 -2070 0 -2070 0 0 -10 0 -10 2080 0 2080 0 0 1380 0 1380 75 0 c43 0 75 4 75 10 l0 10 -160 0 -160 0 0 -10z"
       id="path40" />
  </g>
  <text
     xml:space="preserve"
     style="font-style:normal;font-weight:normal;font-size:56px;line-height:1.25;font-family:sans-serif;letter-spacing:0px;word-spacing:0px;fill:#000000;fill-opacity:1;stroke:none;stroke-width:0.75"
     x="15.469307"
     y="270.1604"
     id="text52"><tspan
       sodipodi:role="line"
       id="tspan50"
       x="15.469307"
       y="270.1604"
       style="stroke-width:0.75">A</tspan></text>
  <text
     xml:space="preserve"
     style="font-style:normal;font-weight:normal;font-size:56px;line-height:1.25;font-family:sans-serif;letter-spacing:0px;word-spacing:0px;fill:#000000;fill-opacity:1;stroke:none;stroke-width:0.75"
     x="16.574257"
     y="413.25146"
     id="text56"><tspan
       sodipodi:role="line"
       id="tspan54"
       x="16.574257"
       y="413.25146"
       style="stroke-width:0.75">B</tspan></text>
  <text
     xml:space="preserve"
     style="font-style:normal;font-weight:normal;font-size:56px;line-height:1.25;font-family:sans-serif;letter-spacing:0px;word-spacing:0px;fill:#000000;fill-opacity:1;stroke:none;stroke-width:0.75"
     x="671.80988"
     y="53.037621"
     id="text60"><tspan
       sodipodi:role="line"
       id="tspan58"
       x="671.80988"
       y="53.037621"
       style="stroke-width:0.75">O</tspan></text>
  <text
     xml:space="preserve"
     style="font-style:normal;font-weight:normal;font-size:56px;line-height:1.25;font-family:sans-serif;letter-spacing:0px;word-spacing:0px;fill:#000000;fill-opacity:1;stroke:none;stroke-width:0.75"
     x="86.186134"
     y="44.198017"
     id="text64"><tspan
       sodipodi:role="line"
       id="tspan62"
       x="86.186134"
       y="44.198017"
       style="stroke-width:0.75">V1</tspan></text>
  <rect
     id="rect50"
     width="80.660576"
     height="3.5159307"
     x="121.09276"
     y="166.62552"
     style="stroke-width:0.65224636" />
  <rect
     id="rect50-9"
     width="56.143837"
     height="3.5159304"
     x="133.11545"
     y="180.55655"
     style="stroke-width:0.5441668" />
  <rect
     id="rect50-9-7"
     width="38.464622"
     height="3.5159304"
     x="142.68155"
     y="194.61134"
     style="stroke-width:0.45041388" />
</svg>
