<?xml version="1.0" encoding="UTF-8" standalone="no"?>
<svg
   xmlns:dc="http://purl.org/dc/elements/1.1/"
   xmlns:cc="http://creativecommons.org/ns#"
   xmlns:rdf="http://www.w3.org/1999/02/22-rdf-syntax-ns#"
   xmlns:svg="http://www.w3.org/2000/svg"
   xmlns="http://www.w3.org/2000/svg"
   xmlns:sodipodi="http://sodipodi.sourceforge.net/DTD/sodipodi-0.dtd"
   xmlns:inkscape="http://www.inkscape.org/namespaces/inkscape"
   version="1.0"
   width="1693.116719pt"
   height="908.576364pt"
   viewBox="0 0 1693.116719 908.576364"
   preserveAspectRatio="xMidYMid meet"
   id="svg158"
   sodipodi:docname="Ch1figure4.svg"
   inkscape:version="0.92.4 (5da689c313, 2019-01-14)">
  <defs
     id="defs162" />
  <sodipodi:namedview
     pagecolor="#ffffff"
     bordercolor="#666666"
     borderopacity="1"
     objecttolerance="10"
     gridtolerance="10"
     guidetolerance="10"
     inkscape:pageopacity="0"
     inkscape:pageshadow="2"
     inkscape:window-width="1920"
     inkscape:window-height="1001"
     id="namedview160"
     showgrid="false"
     inkscape:lockguides="true"
     inkscape:zoom="0.6006674"
     inkscape:cx="1327.6441"
     inkscape:cy="605.71757"
     inkscape:window-x="-9"
     inkscape:window-y="-9"
     inkscape:window-maximized="1"
     inkscape:current-layer="svg158" />
  <metadata
     id="metadata148">
Created by potrace 1.16, written by Peter Selinger 2001-2019
<rdf:RDF>
  <cc:Work
     rdf:about="">
    <dc:format>image/svg+xml</dc:format>
    <dc:type
       rdf:resource="http://purl.org/dc/dcmitype/StillImage" />
  </cc:Work>
</rdf:RDF>
</metadata>
  <g
     transform="translate(-144.107295,999.296364) scale(0.144000,-0.144000)"
     fill="#000000"
     stroke="none"
     id="g156">
    <path
       d="M1881 6851 l-175 -88 -24 13 c-30 15 -78 1 -87 -27 l-6 -19 -160 0 -159 0 0 -2046 0 -2046 -30 -28 c-38 -35 -38 -65 0 -100 l30 -28 0 -461 0 -461 -18 0 c-38 0 -111 -32 -150 -66 -58 -50 -102 -142 -101 -213 1 -67 13 -105 56 -164 36 -51 104 -95 169 -109 l44 -10 0 -184 0 -184 5610 0 5610 0 0 344 0 344 44 10 c141 30 239 164 223 303 -8 63 -50 142 -100 185 -38 32 -112 64 -149 64 l-18 0 0 345 0 345 -4925 0 -4926 0 -34 35 -35 34 0 2046 0 2045 -159 0 -160 0 -6 19 c-14 44 -91 43 -119 -1 -15 -25 4 -70 36 -86 32 -15 74 0 83 30 l6 18 150 0 149 0 0 -2035 0 -2036 -35 -34 -34 -35 -115 0 -115 0 -6 19 c-14 44 -91 43 -119 -1 -15 -25 4 -70 36 -86 32 -15 74 0 83 30 6 16 18 18 122 18 l115 0 28 -30 c15 -16 38 -30 50 -30 12 0 35 14 50 30 l28 30 4916 0 4916 0 0 -335 0 -335 -18 0 c-38 0 -111 -32 -150 -66 -58 -50 -102 -142 -101 -213 1 -67 13 -105 56 -164 36 -51 104 -95 169 -109 l44 -10 0 -334 0 -334 -5590 0 -5590 0 0 174 0 174 44 10 c141 30 239 164 223 303 -8 63 -50 142 -100 185 -38 32 -112 64 -149 64 l-18 0 0 460 0 461 35 34 34 35 115 0 c103 0 115 -2 121 -18 3 -11 17 -24 31 -31 37 -16 76 4 89 48 l10 33 182 91 c123 62 179 95 173 101 -7 7 -70 -19 -193 -80 l-182 -91 -24 13 c-30 15 -78 1 -86 -27 l-6 -19 -115 0 -115 0 -34 35 -35 34 0 2036 0 2035 149 0 150 0 6 -18 c3 -11 17 -24 31 -31 37 -16 76 4 89 48 l10 33 182 91 c160 80 203 108 160 106 -7 0 -90 -40 -186 -88z m-197 -113 c15 -25 -4 -53 -35 -53 -25 0 -37 30 -25 61 8 20 46 14 60 -8z m531 -18 c0 -38 -24 -52 -50 -30 -31 25 -9 73 30 68 16 -2 20 -11 20 -38z m-531 -4142 c15 -25 -4 -53 -35 -53 -25 0 -37 30 -25 61 8 20 46 14 60 -8z m531 -18 c0 -38 -24 -52 -50 -30 -31 25 -9 73 30 68 16 -2 20 -11 20 -38z m10396 -744 l42 -28 -79 -79 c-43 -43 -85 -79 -94 -79 -9 0 -51 35 -94 79 l-78 78 31 23 c47 33 78 40 158 36 59 -2 80 -8 114 -30z m-161 -216 c0 -9 -36 -51 -79 -94 l-79 -79 -27 41 c-48 73 -45 211 6 277 l22 27 78 -78 c44 -43 79 -85 79 -94z m271 77 c18 -66 6 -160 -26 -209 l-27 -41 -79 79 c-43 43 -79 85 -79 94 0 8 35 50 78 93 l77 78 22 -26 c12 -14 27 -44 34 -68z m-148 -185 l78 -78 -18 -17 c-33 -29 -91 -47 -153 -47 -62 0 -120 18 -153 47 l-18 17 78 78 c43 43 84 78 93 78 9 0 50 -35 93 -78z m-11210 27 c54 -15 142 -102 156 -154 26 -97 9 -182 -51 -250 -55 -62 -105 -85 -188 -85 -83 0 -133 23 -188 85 -60 68 -77 153 -51 250 13 49 102 140 151 154 45 13 125 13 171 0z"
       id="path150" />
    <path
       d="M1270 1435 l0 -35 -35 0 c-24 0 -35 -5 -35 -15 0 -10 11 -15 35 -15 l35 0 0 -35 c0 -19 5 -35 10 -35 6 0 10 16 10 35 l0 35 35 0 c24 0 35 5 35 15 0 10 -11 15 -35 15 l-35 0 0 35 c0 19 -4 35 -10 35 -5 0 -10 -16 -10 -35z"
       id="path152" />
    <path
       d="M1200 1145 c0 -12 16 -15 80 -15 64 0 80 3 80 15 0 12 -16 15 -80 15 -64 0 -80 -3 -80 -15z"
       id="path154" />
  </g>
  <text
     xml:space="preserve"
     style="font-style:normal;font-weight:normal;font-size:30px;line-height:1.25;font-family:sans-serif;letter-spacing:0px;word-spacing:0px;fill:#000000;fill-opacity:1;stroke:none;stroke-width:0.75"
     x="101.1375"
     y="89.48745"
     id="text166"><tspan
       sodipodi:role="line"
       id="tspan164"
       x="101.1375"
       y="89.48745"
       style="font-size:56px;stroke-width:0.75">S1</tspan></text>
  <flowRoot
     xml:space="preserve"
     id="flowRoot168"
     style="fill:black;fill-opacity:1;stroke:none;font-family:sans-serif;font-style:normal;font-weight:normal;font-size:40px;line-height:1.25;letter-spacing:0px;word-spacing:0px"><flowRegion
       id="flowRegion170"><rect
         id="rect172"
         width="29.164497"
         height="107.30789"
         x="139.84445"
         y="17.003153" /></flowRegion><flowPara
       id="flowPara174"></flowPara></flowRoot>  <text
     xml:space="preserve"
     style="font-style:normal;font-weight:normal;font-size:30px;line-height:1.25;font-family:sans-serif;letter-spacing:0px;word-spacing:0px;fill:#000000;fill-opacity:1;stroke:none;stroke-width:0.75"
     x="94.894447"
     y="700.05823"
     id="text178"><tspan
       sodipodi:role="line"
       id="tspan176"
       x="94.894447"
       y="700.05823"
       style="font-size:56px;stroke-width:0.75">S2</tspan></text>
  <text
     xml:space="preserve"
     style="font-style:normal;font-weight:normal;font-size:30.00000191px;line-height:1.25;font-family:sans-serif;letter-spacing:0px;word-spacing:0px;fill:#000000;fill-opacity:1;stroke:none;stroke-width:0.75"
     x="1517.5658"
     y="782.90094"
     id="text178-9"><tspan
       sodipodi:role="line"
       id="tspan176-0"
       x="1517.5658"
       y="782.90094"
       style="font-size:56.00000381px;stroke-width:0.75">L1</tspan></text>
</svg>
