<?xml version="1.0" encoding="UTF-8" standalone="no"?>
<svg
   xmlns:dc="http://purl.org/dc/elements/1.1/"
   xmlns:cc="http://creativecommons.org/ns#"
   xmlns:rdf="http://www.w3.org/1999/02/22-rdf-syntax-ns#"
   xmlns:svg="http://www.w3.org/2000/svg"
   xmlns="http://www.w3.org/2000/svg"
   xmlns:sodipodi="http://sodipodi.sourceforge.net/DTD/sodipodi-0.dtd"
   xmlns:inkscape="http://www.inkscape.org/namespaces/inkscape"
   version="1.0"
   width="741.59998pt"
   height="452.16pt"
   viewBox="0 0 741.59999 452.16001"
   preserveAspectRatio="xMidYMid meet"
   id="svg44"
   sodipodi:docname="Ch1figure9.svg"
   inkscape:version="0.92.4 (5da689c313, 2019-01-14)">
  <defs
     id="defs48" />
  <sodipodi:namedview
     pagecolor="#ffffff"
     bordercolor="#666666"
     borderopacity="1"
     objecttolerance="10"
     gridtolerance="10"
     guidetolerance="10"
     inkscape:pageopacity="0"
     inkscape:pageshadow="2"
     inkscape:window-width="1920"
     inkscape:window-height="1001"
     id="namedview46"
     showgrid="false"
     inkscape:zoom="1.3575269"
     inkscape:cx="551.97621"
     inkscape:cy="297.02018"
     inkscape:window-x="-9"
     inkscape:window-y="-9"
     inkscape:window-maximized="1"
     inkscape:current-layer="svg44" />
  <metadata
     id="metadata30">
Created by potrace 1.16, written by Peter Selinger 2001-2019
<rdf:RDF>
  <cc:Work
     rdf:about="">
    <dc:format>image/svg+xml</dc:format>
    <dc:type
       rdf:resource="http://purl.org/dc/dcmitype/StillImage" />
  </cc:Work>
</rdf:RDF>
</metadata>
  <text
     xml:space="preserve"
     style="font-style:normal;font-weight:normal;font-size:56px;line-height:1.25;font-family:sans-serif;letter-spacing:0px;word-spacing:0px;fill:#000000;fill-opacity:1;stroke:none;stroke-width:0.75"
     x="15.558414"
     y="276.35529"
     id="text52"><tspan
       sodipodi:role="line"
       id="tspan50"
       x="15.558414"
       y="276.35529"
       style="stroke-width:0.75">A</tspan></text>
  <text
     xml:space="preserve"
     style="font-style:normal;font-weight:normal;font-size:56px;line-height:1.25;font-family:sans-serif;letter-spacing:0px;word-spacing:0px;fill:#000000;fill-opacity:1;stroke:none;stroke-width:0.75"
     x="16.663395"
     y="419.44635"
     id="text56"><tspan
       sodipodi:role="line"
       id="tspan54"
       x="16.663395"
       y="419.44635"
       style="stroke-width:0.75">B</tspan></text>
  <text
     xml:space="preserve"
     style="font-style:normal;font-weight:normal;font-size:56px;line-height:1.25;font-family:sans-serif;letter-spacing:0px;word-spacing:0px;fill:#000000;fill-opacity:1;stroke:none;stroke-width:0.75"
     x="693.99799"
     y="58.680012"
     id="text60"><tspan
       sodipodi:role="line"
       id="tspan58"
       x="693.99799"
       y="58.680012"
       style="stroke-width:0.75">O</tspan></text>
  <text
     xml:space="preserve"
     style="font-style:normal;font-weight:normal;font-size:56px;line-height:1.25;font-family:sans-serif;letter-spacing:0px;word-spacing:0px;fill:#000000;fill-opacity:1;stroke:none;stroke-width:0.75"
     x="86.275269"
     y="50.392883"
     id="text64"><tspan
       sodipodi:role="line"
       id="tspan62"
       x="86.275269"
       y="50.392883"
       style="stroke-width:0.75">V1</tspan></text>
  <g
     id="g78"
     transform="matrix(0.144,0,0,-0.144,0,554.4)"
     style="fill:#000000;stroke:none">
    <path
       id="path60"
       d="m 4755,3830 -18,-20 h -219 -218 v -120 -120 h -150 -150 v 120 120 h -600 -600 v -120 -120 h -150 -150 v 120 120 h -695 -695 v -185 -185 h -18 c -38,0 -111,-32 -150,-66 -22,-19 -54,-62 -71,-96 l -31,-61 1,-56 c 1,-67 13,-105 56,-164 36,-51 104,-95 169,-109 l 44,-10 V 2674 2470 H 1000 890 v -10 -10 h 235 235 v 10 10 h -115 -115 v 204 204 l 44,10 c 141,30 239,164 223,303 -8,63 -50,142 -100,185 -38,32 -112,64 -149,64 h -18 v 175 175 h 675 675 v -110 -110 h -35 c -19,0 -35,-4 -35,-10 v -10 h 240 240 v 10 c 0,6 -16,10 -35,10 h -35 v 110 110 h 580 580 v -110 -110 h -35 c -19,0 -35,-4 -35,-10 v -10 h 240 240 v 10 c 0,6 -16,10 -35,10 h -35 v 110 110 h 205 206 l 24,-27 24,-28 1,-272 v -273 h -35 -35 v -305 -305 h 35 35 v -450 -450 h -110 -110 v -10 -10 h 235 235 v 10 10 h -115 -115 v 450 450 h 40 40 v 305 305 h -40 -40 v 269 269 l 31,31 31,31 h 144 144 v 10 10 h -148 -149 l -18,20 c -10,11 -28,20 -40,20 -12,0 -30,-9 -40,-20 z m -3552,-431 39,-10 53,-52 53,-52 11,-40 c 14,-50 14,-119 1,-166 -14,-48 -84,-127 -135,-150 l -40,-19 h -65 -65 l -40,19 c -51,23 -121,102 -135,150 -13,47 -13,116 1,166 l 11,40 53,52 c 30,29 69,56 87,62 45,13 125,13 171,0 z m 3647,-514 v -275 h -55 -55 v 275 275 h 55 55 z"
       inkscape:connector-curvature="0" />
    <path
       id="path62"
       d="m 1110,3315 v -35 h -35 -35 v -15 -15 h 35 35 v -35 c 0,-19 5,-35 10,-35 6,0 10,16 10,35 v 35 h 35 35 v 15 15 h -35 -35 v 35 c 0,19 -4,35 -10,35 -5,0 -10,-16 -10,-35 z"
       inkscape:connector-curvature="0" />
    <path
       id="path64"
       d="m 1040,3025 v -15 h 80 80 v 15 15 h -80 -80 z"
       inkscape:connector-curvature="0" />
    <path
       id="path66"
       d="m 2490,3480 c 0,-6 32,-10 75,-10 h 75 V 2590 1710 H 1320 0 v -10 -10 h 1330 1330 v 890 890 h 75 c 43,0 75,4 75,10 v 10 h -160 -160 z"
       inkscape:connector-curvature="0" />
    <path
       id="path68"
       d="m 3990,3480 c 0,-6 32,-10 75,-10 h 75 V 2100 730 H 2070 0 v -10 -10 h 2080 2080 v 1380 1380 h 75 c 43,0 75,4 75,10 v 10 h -160 -160 z"
       inkscape:connector-curvature="0" />
    <path
       id="path70"
       d="m 960,2380 v -10 h 170 170 v 10 10 H 1130 960 Z"
       inkscape:connector-curvature="0" />
    <path
       id="path72"
       d="m 1010,2290 v -10 h 120 120 v 10 10 h -120 -120 z"
       inkscape:connector-curvature="0" />
    <path
       id="path74"
       d="m 4630,1590 v -10 h 170 170 v 10 10 h -170 -170 z"
       inkscape:connector-curvature="0" />
    <path
       id="path76"
       d="m 4680,1500 v -10 h 120 120 v 10 10 h -120 -120 z"
       inkscape:connector-curvature="0" />
  </g>
</svg>
