<?xml version="1.0" encoding="UTF-8" standalone="no"?>
<svg
   xmlns:dc="http://purl.org/dc/elements/1.1/"
   xmlns:cc="http://creativecommons.org/ns#"
   xmlns:rdf="http://www.w3.org/1999/02/22-rdf-syntax-ns#"
   xmlns:svg="http://www.w3.org/2000/svg"
   xmlns="http://www.w3.org/2000/svg"
   xmlns:sodipodi="http://sodipodi.sourceforge.net/DTD/sodipodi-0.dtd"
   xmlns:inkscape="http://www.inkscape.org/namespaces/inkscape"
   version="1.0"
   width="1693.116719pt"
   height="309.536364pt"
   viewBox="0 0 1693.116719 309.536364"
   preserveAspectRatio="xMidYMid meet"
   id="svg210"
   sodipodi:docname="Ch1figure5.svg"
   inkscape:version="0.92.4 (5da689c313, 2019-01-14)">
  <defs
     id="defs214" />
  <sodipodi:namedview
     pagecolor="#ffffff"
     bordercolor="#666666"
     borderopacity="1"
     objecttolerance="10"
     gridtolerance="10"
     guidetolerance="10"
     inkscape:pageopacity="0"
     inkscape:pageshadow="2"
     inkscape:window-width="1920"
     inkscape:window-height="1001"
     id="namedview212"
     showgrid="false"
     inkscape:zoom="1"
     inkscape:cx="1982.1556"
     inkscape:cy="206.35758"
     inkscape:window-x="-9"
     inkscape:window-y="-9"
     inkscape:window-maximized="1"
     inkscape:current-layer="svg210" />
  <metadata
     id="metadata198">
Created by potrace 1.16, written by Peter Selinger 2001-2019
<rdf:RDF>
  <cc:Work
     rdf:about="">
    <dc:format>image/svg+xml</dc:format>
    <dc:type
       rdf:resource="http://purl.org/dc/dcmitype/StillImage" />
  </cc:Work>
</rdf:RDF>
</metadata>
  <g
     transform="translate(-144.107295,400.256364) scale(0.144000,-0.144000)"
     fill="#000000"
     stroke="none"
     id="g208">
    <path
       d="M2521 2691 l-175 -88 -24 13 c-30 15 -78 1 -87 -27 l-6 -19 -480 0 -479 0 0 -505 0 -505 -18 0 c-38 0 -111 -32 -150 -66 -58 -50 -102 -142 -101 -213 1 -67 13 -105 56 -164 36 -51 104 -95 169 -109 l44 -10 0 -184 0 -184 5610 0 5610 0 0 344 0 344 44 10 c141 30 239 164 223 303 -8 63 -50 142 -100 185 -38 32 -112 64 -149 64 l-18 0 0 345 0 345 -3679 0 -3680 0 -6 19 c-14 44 -91 43 -119 -1 -15 -25 4 -70 36 -86 32 -15 74 0 83 30 l6 18 3670 0 3669 0 0 -335 0 -335 -18 0 c-38 0 -111 -32 -150 -66 -58 -50 -102 -142 -101 -213 1 -67 13 -105 56 -164 36 -51 104 -95 169 -109 l44 -10 0 -334 0 -334 -5590 0 -5590 0 0 174 0 174 44 10 c141 30 239 164 223 303 -8 63 -50 142 -100 185 -38 32 -112 64 -149 64 l-18 0 0 495 0 495 469 0 470 0 6 -18 c3 -11 17 -24 31 -31 37 -16 76 4 89 48 l10 33 182 91 c160 80 203 108 160 106 -7 0 -90 -40 -186 -88z m-197 -113 c15 -25 -4 -53 -35 -53 -25 0 -37 30 -25 61 8 20 46 14 60 -8z m2771 -18 c0 -38 -24 -52 -50 -30 -31 25 -9 73 30 68 16 -2 20 -11 20 -38z m7516 -744 l42 -28 -79 -79 c-43 -43 -85 -79 -94 -79 -9 0 -51 35 -94 79 l-78 78 31 23 c47 33 78 40 158 36 59 -2 80 -8 114 -30z m-161 -216 c0 -9 -36 -51 -79 -94 l-79 -79 -27 41 c-48 73 -45 211 6 277 l22 27 78 -78 c44 -43 79 -85 79 -94z m271 77 c18 -66 6 -160 -26 -209 l-27 -41 -79 79 c-43 43 -79 85 -79 94 0 8 35 50 78 93 l77 78 22 -26 c12 -14 27 -44 34 -68z m-148 -185 l78 -78 -18 -17 c-33 -29 -91 -47 -153 -47 -62 0 -120 18 -153 47 l-18 17 78 78 c43 43 84 78 93 78 9 0 50 -35 93 -78z m-11210 27 c54 -15 142 -102 156 -154 26 -97 9 -182 -51 -250 -55 -62 -105 -85 -188 -85 -83 0 -133 23 -188 85 -60 68 -77 153 -51 250 13 49 102 140 151 154 45 13 125 13 171 0z"
       id="path200" />
    <path
       d="M1270 1435 l0 -35 -35 0 c-24 0 -35 -5 -35 -15 0 -10 11 -15 35 -15 l35 0 0 -35 c0 -19 5 -35 10 -35 6 0 10 16 10 35 l0 35 35 0 c24 0 35 5 35 15 0 10 -11 15 -35 15 l-35 0 0 35 c0 19 -4 35 -10 35 -5 0 -10 -16 -10 -35z"
       id="path202" />
    <path
       d="M1200 1145 c0 -12 16 -15 80 -15 64 0 80 3 80 15 0 12 -16 15 -80 15 -64 0 -80 -3 -80 -15z"
       id="path204" />
    <path
       d="M4761 2691 l-175 -88 -24 13 c-30 15 -78 1 -87 -27 l-6 -19 -789 0 -789 0 -6 19 c-14 44 -91 43 -119 -1 -15 -25 4 -70 36 -86 32 -15 74 0 83 30 l6 18 789 0 789 0 6 -18 c3 -11 17 -24 31 -31 37 -16 76 4 89 48 l10 33 182 91 c160 80 203 108 160 106 -7 0 -90 -40 -186 -88z m-1906 -131 c0 -38 -24 -52 -50 -30 -31 25 -9 73 30 68 16 -2 20 -11 20 -38z m1709 18 c15 -25 -4 -53 -35 -53 -25 0 -37 30 -25 61 8 20 46 14 60 -8z"
       id="path206" />
  </g>
  <text
     xml:space="preserve"
     style="font-style:normal;font-weight:normal;font-size:29.99999809px;line-height:1.25;font-family:sans-serif;letter-spacing:0px;word-spacing:0px;fill:#000000;fill-opacity:1;stroke:none;stroke-width:0.74999994"
     x="193.53471"
     y="58.565536"
     id="text218"><tspan
       sodipodi:role="line"
       x="193.53471"
       y="85.935448"
       style="stroke-width:0.74999994"
       id="tspan220" /></text>
  <text
     xml:space="preserve"
     style="font-style:normal;font-weight:normal;font-size:29.99999809px;line-height:1.25;font-family:sans-serif;letter-spacing:0px;word-spacing:0px;fill:#000000;fill-opacity:1;stroke:none;stroke-width:0.74999994"
     x="183.74998"
     y="91.286377"
     id="text226"><tspan
       sodipodi:role="line"
       id="tspan224"
       x="183.74998"
       y="91.286377"
       style="font-size:55.99999619px;stroke-width:0.74999994">S1</tspan></text>
  <text
     xml:space="preserve"
     style="font-style:normal;font-weight:normal;font-size:29.99999809px;line-height:1.25;font-family:sans-serif;letter-spacing:0px;word-spacing:0px;fill:#000000;fill-opacity:1;stroke:none;stroke-width:0.74999994"
     x="504.75"
     y="92.786377"
     id="text230"><tspan
       sodipodi:role="line"
       id="tspan228"
       x="504.75"
       y="92.786377"
       style="font-size:55.99999619px;stroke-width:0.74999994">S2</tspan></text>
  <text
     xml:space="preserve"
     style="font-style:normal;font-weight:normal;font-size:29.99999809px;line-height:1.25;font-family:sans-serif;letter-spacing:0px;word-spacing:0px;fill:#000000;fill-opacity:1;stroke:none;stroke-width:0.74999994"
     x="1508.719"
     y="186.3756"
     id="text226-9"><tspan
       sodipodi:role="line"
       id="tspan224-4"
       x="1508.719"
       y="186.3756"
       style="font-size:55.99999619px;stroke-width:0.74999994">L1</tspan></text>
</svg>
