<svg xmlns="http://www.w3.org/2000/svg" xmlns:xlink="http://www.w3.org/1999/xlink" width="181.9" height="54.8" viewBox="203.1 -688 181.9 54.8"><title></title><style type="text/css">
#g1 circle.pindot {fill: none;stroke: none;}#g1 rect, #g1 circle, #g1 ellipse, #g1 polyline, #g1 line, #g1 polygon, #g1 path {shape-rendering: crispEdges;}path, polyline, polygon {stroke-linejoin:round;}
rect, circle, ellipse, polyline, line, polygon, path {shape-rendering:crispEdges;}
</style>
<rect x="203.1" y="-688" width="181.9" height="54.8" fill="#FFFFFF" stroke="none"/><g id="g1" c_spiceCmd="null" c_para="Prefix Start`1`" importFlag="0" c_portOfADImportHack="" c_transformList="" xmlns="http://www.w3.org/2000/svg"><g c_origin="310,-660" c_para="package``spicePre`X`spiceSymbolName`LOGIC`BOM_Supplier Part``BOM_Supplier``Contributor`EasyEDA`BOM_Manufacturer Part``" c_partid="part_import_gge131" id="gge131" c_shapetype="group" c_etype="pinpart" ><g c_partid="part_annotation" id="gge133" display="none"><text c_note="note_name" x="278" y="-678.8125" fill="#000000" font-family="Arial" font-size="7pt" font-weight="" font-style="" dominant-baseline="" text-anchor="start"  >XOR2EE_US</text></g><g c_partid="part_annotation" id="gge135" display="none"><text c_note="note_pre" x="278" y="-687.81" fill="#000000" font-family="Arial" font-size="7pt" font-weight="" font-style="" dominant-baseline="" text-anchor="start"  >U4</text></g><g c_partid="part_pin" c_etype="pinpart"  c_show="show"  c_elec="0" c_spicepin="5" c_origin="340,-660" id="gge137" c_rotation="0"><circle c_pindot="true" class="pindot" cx="340" cy="-660" r="2" fill="#4F4F4F" stroke="none" /><path d="M 340 -660 h -10" fill="none" stroke="#000000" stroke-width="1"/><text x="325" y="-660" font-family="Verdana" font-size="7pt" fill="#000000" text-anchor="end" display="none"  >OUT</text><text x="342" y="-669" font-family="Verdana" font-size="7pt" fill="#000000" text-anchor="start" display="none"  >5</text><circle cx="333" cy="-660" r="3" stroke="#000000" fill="none" stroke-width="1" display="none" /><path d="M 330 -663 L 327 -660 L 330 -657" fill="none" stroke="#000000" stroke-width="1"  display="none" /></g><polyline points="290 -650 293 -650" stroke="#000000" id="gge144" stroke-width="1"   fill="none" stroke-linecap="round" /><path d="M 309 -675 A 24 29 0 0 1 328.969 -662.086" id="gge145"   stroke="#000000" stroke-width="1" c_helper_type="arc1" fill="none" /><path d="M 289.3 -675.461 A 16 19 0 0 1 289.3 -644.539" id="gge146"   stroke="#000000" stroke-width="1" c_helper_type="arc1" fill="none" /><polyline points="294 -645 309 -645" stroke="#000000" id="gge147" stroke-width="1"   fill="none" stroke-linecap="round" /><path d="M 292.875 -675.809 A 16 19 0 0 1 292.875 -644.191" id="gge148"   stroke="#000000" stroke-width="1" c_helper_type="arc1" fill="none" /><path d="M 329 -658 C 330 -660 330 -660 329 -662" id="gge149"  stroke="#000000" stroke-width="1"  fill="none" /><g c_partid="part_pin" c_etype="pinpart"  c_show="show"  c_elec="0" c_spicepin="1" c_origin="290,-670" id="gge150" c_rotation="180"><circle c_pindot="true" class="pindot" cx="280" cy="-670" r="2" fill="#4F4F4F" stroke="none" /><path d="M 290 -670 h -10" fill="none" stroke="#000000" stroke-width="1"/><text x="295" y="-670" font-family="Verdana" font-size="7pt" fill="#000000" text-anchor="start" display="none"  >INA</text><text x="278" y="-661" font-family="Verdana" font-size="7pt" fill="#000000" text-anchor="end" display="none"  >1 </text><circle cx="277" cy="-670" r="3" stroke="#000000" fill="none" stroke-width="1" display="none" /><path d="M 280 -667 L 283 -670 L 280 -673" fill="none" stroke="#000000" stroke-width="1"  display="none" /></g><g c_partid="part_pin" c_etype="pinpart"  c_show="show"  c_elec="0" c_spicepin="2" c_origin="290,-650" id="gge157" c_rotation="180"><circle c_pindot="true" class="pindot" cx="280" cy="-650" r="2" fill="#4F4F4F" stroke="none" /><path d="M 290 -650 h -10" fill="none" stroke="#000000" stroke-width="1"/><text x="295" y="-650" font-family="Verdana" font-size="7pt" fill="#000000" text-anchor="start" display="none"  >INB</text><text x="278" y="-641" font-family="Verdana" font-size="7pt" fill="#000000" text-anchor="end" display="none"  >2 </text><circle cx="277" cy="-650" r="3" stroke="#000000" fill="none" stroke-width="1" display="none" /><path d="M 280 -647 L 283 -650 L 280 -653" fill="none" stroke="#000000" stroke-width="1"  display="none" /></g><g c_partid="part_pin" c_etype="pinpart"  c_show="none" display="none" c_elec="0" c_spicepin="3" c_origin="310,-680" id="gge164" c_rotation="90"><circle c_pindot="true" class="pindot" cx="310" cy="-680" r="2" fill="#4F4F4F" stroke="none" /><path d="M 310 -680 v 5" fill="none" stroke="#000000" stroke-width="1"/><text x="313" y="-673" font-family="Verdana" font-size="7pt" fill="#000000" text-anchor="end" display="none" transform="rotate(270,313,-673)" >VDD</text><text x="309" y="-680" font-family="Verdana" font-size="7pt" fill="#000000" text-anchor="start" display="none" transform="rotate(270,309,-680)" >3</text><circle cx="310" cy="-678" r="3" stroke="#000000" fill="none" stroke-width="1" display="none" /><path d="M 307 -675 L 310 -672 L 313 -675" fill="none" stroke="#000000" stroke-width="1"  display="none" /></g><g c_partid="part_pin" c_etype="pinpart"  c_show="none" display="none" c_elec="0" c_spicepin="4" c_origin="310,-640" id="gge171" c_rotation="270"><circle c_pindot="true" class="pindot" cx="310" cy="-640" r="2" fill="#4F4F4F" stroke="none" /><path d="M 310 -640 v -5" fill="none" stroke="#000000" stroke-width="1"/><text x="313" y="-647" font-family="Verdana" font-size="7pt" fill="#000000" text-anchor="start" display="none" transform="rotate(270,313,-647)" >GND</text><text x="309" y="-640" font-family="Verdana" font-size="7pt" fill="#000000" text-anchor="end" display="none" transform="rotate(270,309,-640)" >4</text><circle cx="310" cy="-642" r="3" stroke="#000000" fill="none" stroke-width="1" display="none" /><path d="M 313 -645 L 310 -648 L 307 -645" fill="none" stroke="#000000" stroke-width="1"  display="none" /></g><path d="M 328.969 -657.914 A 24 29 0 0 1 309 -645" id="gge178"   stroke="#000000" stroke-width="1" c_helper_type="arc1" fill="none" /><polyline points="294 -675 309 -675" stroke="#000000" id="gge179" stroke-width="1"   fill="none" stroke-linecap="round" /><polyline points="290 -670 293 -670" stroke="#000000" id="gge180" stroke-width="1"   fill="none" stroke-linecap="round" /></g><g c_partid="part_annotation" id="gge181" c_origin="215,-665" c_shapetype="group" c_etype="pinpart"><text x="215" y="-665" fill="#000000" font-family="Verdana" font-size="9pt" font-weight="undefined" font-style="undefined" dominant-baseline="" text-anchor="start" type="comment"  >A</text></g><g c_partid="part_annotation" id="gge183" c_origin="215,-645" c_shapetype="group" c_etype="pinpart"><text x="215" y="-645" fill="#000000" font-family="Verdana" font-size="9pt" font-weight="undefined" font-style="undefined" dominant-baseline="" text-anchor="start" type="comment"  >B</text></g><polyline c_etype="wire" c_shapetype="line" points="375 -660 340 -660" stroke="#000000" id="gge187" stroke-width="1"   fill="none" stroke-linecap="round" /><polyline c_etype="wire" c_shapetype="line" points="280 -670 235 -670" stroke="#000000" id="gge188" stroke-width="1"   fill="none" stroke-linecap="round" /><polyline c_etype="wire" c_shapetype="line" points="280 -650 235 -650" stroke="#000000" id="gge189" stroke-width="1"   fill="none" stroke-linecap="round" /></g></svg>