<svg xmlns="http://www.w3.org/2000/svg" xmlns:xlink="http://www.w3.org/1999/xlink" width="303.8" height="145.8" viewBox="239.4 -720 303.8 145.8"><title></title><style type="text/css">
#g1 circle.pindot {fill: none;stroke: none;}#g1 rect, #g1 circle, #g1 ellipse, #g1 polyline, #g1 line, #g1 polygon, #g1 path {shape-rendering: crispEdges;}path, polyline, polygon {stroke-linejoin:round;}
rect, circle, ellipse, polyline, line, polygon, path {shape-rendering:crispEdges;}
</style>
<rect x="239.4" y="-720" width="303.8" height="145.8" fill="#FFFFFF" stroke="none"/><g id="g1" c_spiceCmd="null" c_para="Prefix Start`1`" importFlag="0" c_portOfADImportHack="" c_transformList="" xmlns="http://www.w3.org/2000/svg"><g c_partid="part_annotation" id="gge113" c_origin="250,-615" c_shapetype="group" c_etype="pinpart"><text x="250" y="-615" fill="#000000" font-family="Verdana" font-size="9pt" font-weight="undefined" font-style="undefined" dominant-baseline="" text-anchor="start" type="comment"  >C</text></g><g c_partid="part_annotation" id="gge117" c_origin="250,-635" c_shapetype="group" c_etype="pinpart"><text x="250" y="-635" fill="#000000" font-family="Verdana" font-size="9pt" font-weight="undefined" font-style="undefined" dominant-baseline="" text-anchor="start" type="comment"  >B</text></g><g c_partid="part_annotation" id="gge119" c_origin="250,-660" c_shapetype="group" c_etype="pinpart"><text x="250" y="-660" fill="#000000" font-family="Verdana" font-size="9pt" font-weight="undefined" font-style="undefined" dominant-baseline="" text-anchor="start" type="comment"  >A</text></g><g c_origin="345,-630" c_para="package``spicePre`X`spiceSymbolName`LOGIC`BOM_Supplier Part``BOM_Supplier``Contributor`EasyEDA`BOM_Manufacturer Part``" c_partid="part_import_gge269" id="gge269" c_shapetype="group" c_etype="pinpart" ><g c_partid="part_annotation" id="gge271" display="none"><text c_note="note_name" x="313" y="-648.8125" fill="#000000" font-family="Arial" font-size="7pt" font-weight="" font-style="" dominant-baseline="" text-anchor="start"  >XOR2EE_US</text></g><g c_partid="part_annotation" id="gge273" display="none"><text c_note="note_pre" x="313" y="-657.81" fill="#000000" font-family="Arial" font-size="7pt" font-weight="" font-style="" dominant-baseline="" text-anchor="start"  >U4</text></g><g c_partid="part_pin" c_etype="pinpart"  c_show="show"  c_elec="0" c_spicepin="5" c_origin="375,-630" id="gge275" c_rotation="0"><circle c_pindot="true" class="pindot" cx="375" cy="-630" r="2" fill="#4F4F4F" stroke="none" /><path d="M 375 -630 h -10" fill="none" stroke="#000000" stroke-width="1"/><text x="360" y="-630" font-family="Verdana" font-size="7pt" fill="#000000" text-anchor="end" display="none"  >OUT</text><text x="377" y="-639" font-family="Verdana" font-size="7pt" fill="#000000" text-anchor="start" display="none"  >5</text><circle cx="368" cy="-630" r="3" stroke="#000000" fill="none" stroke-width="1" display="none" /><path d="M 365 -633 L 362 -630 L 365 -627" fill="none" stroke="#000000" stroke-width="1"  display="none" /></g><polyline points="325 -620 328 -620" stroke="#000000" id="gge282" stroke-width="1"   fill="none" stroke-linecap="round" /><path d="M 344 -645 A 24 29 0 0 1 363.969 -632.086" id="gge283"   stroke="#000000" stroke-width="1" c_helper_type="arc1" fill="none" /><path d="M 324.3 -645.461 A 16 19 0 0 1 324.3 -614.539" id="gge284"   stroke="#000000" stroke-width="1" c_helper_type="arc1" fill="none" /><polyline points="329 -615 344 -615" stroke="#000000" id="gge285" stroke-width="1"   fill="none" stroke-linecap="round" /><path d="M 327.875 -645.809 A 16 19 0 0 1 327.875 -614.191" id="gge286"   stroke="#000000" stroke-width="1" c_helper_type="arc1" fill="none" /><path d="M 364 -628 C 365 -630 365 -630 364 -632" id="gge287"  stroke="#000000" stroke-width="1"  fill="none" /><g c_partid="part_pin" c_etype="pinpart"  c_show="show"  c_elec="0" c_spicepin="1" c_origin="325,-640" id="gge288" c_rotation="180"><circle c_pindot="true" class="pindot" cx="315" cy="-640" r="2" fill="#4F4F4F" stroke="none" /><path d="M 325 -640 h -10" fill="none" stroke="#000000" stroke-width="1"/><text x="330" y="-640" font-family="Verdana" font-size="7pt" fill="#000000" text-anchor="start" display="none"  >INA</text><text x="313" y="-631" font-family="Verdana" font-size="7pt" fill="#000000" text-anchor="end" display="none"  >1 </text><circle cx="312" cy="-640" r="3" stroke="#000000" fill="none" stroke-width="1" display="none" /><path d="M 315 -637 L 318 -640 L 315 -643" fill="none" stroke="#000000" stroke-width="1"  display="none" /></g><g c_partid="part_pin" c_etype="pinpart"  c_show="show"  c_elec="0" c_spicepin="2" c_origin="325,-620" id="gge295" c_rotation="180"><circle c_pindot="true" class="pindot" cx="315" cy="-620" r="2" fill="#4F4F4F" stroke="none" /><path d="M 325 -620 h -10" fill="none" stroke="#000000" stroke-width="1"/><text x="330" y="-620" font-family="Verdana" font-size="7pt" fill="#000000" text-anchor="start" display="none"  >INB</text><text x="313" y="-611" font-family="Verdana" font-size="7pt" fill="#000000" text-anchor="end" display="none"  >2 </text><circle cx="312" cy="-620" r="3" stroke="#000000" fill="none" stroke-width="1" display="none" /><path d="M 315 -617 L 318 -620 L 315 -623" fill="none" stroke="#000000" stroke-width="1"  display="none" /></g><g c_partid="part_pin" c_etype="pinpart"  c_show="none" display="none" c_elec="0" c_spicepin="3" c_origin="345,-650" id="gge302" c_rotation="90"><circle c_pindot="true" class="pindot" cx="345" cy="-650" r="2" fill="#4F4F4F" stroke="none" /><path d="M 345 -650 v 5" fill="none" stroke="#000000" stroke-width="1"/><text x="348" y="-643" font-family="Verdana" font-size="7pt" fill="#000000" text-anchor="end" display="none" transform="rotate(270,348,-643)" >VDD</text><text x="344" y="-650" font-family="Verdana" font-size="7pt" fill="#000000" text-anchor="start" display="none" transform="rotate(270,344,-650)" >3</text><circle cx="345" cy="-648" r="3" stroke="#000000" fill="none" stroke-width="1" display="none" /><path d="M 342 -645 L 345 -642 L 348 -645" fill="none" stroke="#000000" stroke-width="1"  display="none" /></g><g c_partid="part_pin" c_etype="pinpart"  c_show="none" display="none" c_elec="0" c_spicepin="4" c_origin="345,-610" id="gge309" c_rotation="270"><circle c_pindot="true" class="pindot" cx="345" cy="-610" r="2" fill="#4F4F4F" stroke="none" /><path d="M 345 -610 v -5" fill="none" stroke="#000000" stroke-width="1"/><text x="348" y="-617" font-family="Verdana" font-size="7pt" fill="#000000" text-anchor="start" display="none" transform="rotate(270,348,-617)" >GND</text><text x="344" y="-610" font-family="Verdana" font-size="7pt" fill="#000000" text-anchor="end" display="none" transform="rotate(270,344,-610)" >4</text><circle cx="345" cy="-612" r="3" stroke="#000000" fill="none" stroke-width="1" display="none" /><path d="M 348 -615 L 345 -618 L 342 -615" fill="none" stroke="#000000" stroke-width="1"  display="none" /></g><path d="M 363.969 -627.914 A 24 29 0 0 1 344 -615" id="gge316"   stroke="#000000" stroke-width="1" c_helper_type="arc1" fill="none" /><polyline points="329 -645 344 -645" stroke="#000000" id="gge317" stroke-width="1"   fill="none" stroke-linecap="round" /><polyline points="325 -640 328 -640" stroke="#000000" id="gge318" stroke-width="1"   fill="none" stroke-linecap="round" /></g><g c_origin="470,-685" c_para="package``spicePre`X`spiceSymbolName`LOGIC`BOM_Supplier Part``BOM_Supplier``Contributor`EasyEDA`BOM_Manufacturer Part``" c_partid="part_import_gge319" id="gge319" c_shapetype="group" c_etype="pinpart" ><g c_partid="part_annotation" id="gge321" display="none"><text c_note="note_name" x="438" y="-703.796875" fill="#000000" font-family="Arial" font-size="7pt" font-weight="" font-style="" dominant-baseline="" text-anchor="start"  >OR2EE_US</text></g><g c_partid="part_annotation" id="gge323" display="none"><text c_note="note_pre" x="438" y="-712.81" fill="#000000" font-family="Arial" font-size="7pt" font-weight="" font-style="" dominant-baseline="" text-anchor="start"  >U3</text></g><g c_partid="part_pin" c_etype="pinpart"  c_show="show"  c_elec="0" c_spicepin="1" c_origin="450,-695" id="gge325" c_rotation="180"><circle c_pindot="true" class="pindot" cx="440" cy="-695" r="2" fill="#4F4F4F" stroke="none" /><path d="M 450 -695 h -10" fill="none" stroke="#000000" stroke-width="1"/><text x="455" y="-695" font-family="Verdana" font-size="7pt" fill="#000000" text-anchor="start" display="none"  >INA</text><text x="438" y="-686" font-family="Verdana" font-size="7pt" fill="#000000" text-anchor="end" display="none"  >1</text><circle cx="437" cy="-695" r="3" stroke="#000000" fill="none" stroke-width="1" display="none" /><path d="M 440 -692 L 443 -695 L 440 -698" fill="none" stroke="#000000" stroke-width="1"  display="none" /></g><g c_partid="part_pin" c_etype="pinpart"  c_show="show"  c_elec="0" c_spicepin="2" c_origin="450,-675" id="gge332" c_rotation="180"><circle c_pindot="true" class="pindot" cx="440" cy="-675" r="2" fill="#4F4F4F" stroke="none" /><path d="M 450 -675 h -10" fill="none" stroke="#000000" stroke-width="1"/><text x="455" y="-675" font-family="Verdana" font-size="7pt" fill="#000000" text-anchor="start" display="none"  >INB</text><text x="438" y="-666" font-family="Verdana" font-size="7pt" fill="#000000" text-anchor="end" display="none"  >2</text><circle cx="437" cy="-675" r="3" stroke="#000000" fill="none" stroke-width="1" display="none" /><path d="M 440 -672 L 443 -675 L 440 -678" fill="none" stroke="#000000" stroke-width="1"  display="none" /></g><g c_partid="part_pin" c_etype="pinpart"  c_show="show"  c_elec="0" c_spicepin="5" c_origin="500,-685" id="gge339" c_rotation="0"><circle c_pindot="true" class="pindot" cx="500" cy="-685" r="2" fill="#4F4F4F" stroke="none" /><path d="M 500 -685 h -10" fill="none" stroke="#000000" stroke-width="1"/><text x="485" y="-685" font-family="Verdana" font-size="7pt" fill="#000000" text-anchor="end" display="none"  >OUT</text><text x="502" y="-694" font-family="Verdana" font-size="7pt" fill="#000000" text-anchor="start" display="none"  >5</text><circle cx="493" cy="-685" r="3" stroke="#000000" fill="none" stroke-width="1" display="none" /><path d="M 490 -688 L 487 -685 L 490 -682" fill="none" stroke="#000000" stroke-width="1"  display="none" /></g><g c_partid="part_pin" c_etype="pinpart"  c_show="none" display="none" c_elec="0" c_spicepin="3" c_origin="470,-705" id="gge346" c_rotation="90"><circle c_pindot="true" class="pindot" cx="470" cy="-705" r="2" fill="#4F4F4F" stroke="none" /><path d="M 470 -705 v 5" fill="none" stroke="#000000" stroke-width="1"/><text x="473" y="-698" font-family="Verdana" font-size="7pt" fill="#000000" text-anchor="end" display="none" transform="rotate(270,473,-698)" >VDD</text><text x="469" y="-705" font-family="Verdana" font-size="7pt" fill="#000000" text-anchor="start" display="none" transform="rotate(270,469,-705)" >3</text><circle cx="470" cy="-703" r="3" stroke="#000000" fill="none" stroke-width="1" display="none" /><path d="M 467 -700 L 470 -697 L 473 -700" fill="none" stroke="#000000" stroke-width="1"  display="none" /></g><g c_partid="part_pin" c_etype="pinpart"  c_show="none" display="none" c_elec="0" c_spicepin="4" c_origin="470,-665" id="gge353" c_rotation="270"><circle c_pindot="true" class="pindot" cx="470" cy="-665" r="2" fill="#4F4F4F" stroke="none" /><path d="M 470 -665 v -5" fill="none" stroke="#000000" stroke-width="1"/><text x="473" y="-672" font-family="Verdana" font-size="7pt" fill="#000000" text-anchor="start" display="none" transform="rotate(270,473,-672)" >GND</text><text x="469" y="-665" font-family="Verdana" font-size="7pt" fill="#000000" text-anchor="end" display="none" transform="rotate(270,469,-665)" >4</text><circle cx="470" cy="-667" r="3" stroke="#000000" fill="none" stroke-width="1" display="none" /><path d="M 473 -670 L 470 -673 L 467 -670" fill="none" stroke="#000000" stroke-width="1"  display="none" /></g><polyline points="450 -675 453 -675" stroke="#000000" id="gge360" stroke-width="1"   fill="none" stroke-linecap="round" /><path d="M 448.875 -700.809 A 16 19 0 0 1 448.875 -669.191" id="gge361"   stroke="#000000" stroke-width="1" c_helper_type="arc1" fill="none" /><path d="M 489 -683 C 490 -685 490 -685 489 -687" id="gge362"  stroke="#000000" stroke-width="1"  fill="none" /><polyline points="450 -700 469 -700" stroke="#000000" id="gge363" stroke-width="1"   fill="none" stroke-linecap="round" /><path d="M 488.969 -682.914 A 24 29 0 0 1 469 -670" id="gge364"   stroke="#000000" stroke-width="1" c_helper_type="arc1" fill="none" /><path d="M 469 -700 A 24 29 0 0 1 488.969 -687.086" id="gge365"   stroke="#000000" stroke-width="1" c_helper_type="arc1" fill="none" /><polyline points="450 -670 469 -670" stroke="#000000" id="gge366" stroke-width="1"   fill="none" stroke-linecap="round" /><polyline points="450 -695 453 -695" stroke="#000000" id="gge367" stroke-width="1"   fill="none" stroke-linecap="round" /></g><polyline c_etype="wire" c_shapetype="line" points="380 -685 315 -685 315 -640 265 -640" stroke="#000000" id="gge495" stroke-width="1"   fill="none" stroke-linecap="round" /><polyline c_etype="wire" c_shapetype="line" points="315 -620 265 -620" stroke="#000000" id="gge496" stroke-width="1"   fill="none" stroke-linecap="round" /><g c_origin="415,-600" c_para="package``spicePre`X`spiceSymbolName`LOGIC`BOM_Supplier Part``BOM_Supplier``Contributor`EasyEDA`BOM_Manufacturer Part``" c_partid="part_import_gge498" id="gge498" c_shapetype="group" c_etype="pinpart" ><g c_partid="part_annotation" id="gge500" display="none"><text c_note="note_name" x="383" y="-618.8125" fill="#000000" font-family="Arial" font-size="7pt" font-weight="" font-style="" dominant-baseline="" text-anchor="start"  >XOR2EE_US</text></g><g c_partid="part_annotation" id="gge502" display="none"><text c_note="note_pre" x="383" y="-627.81" fill="#000000" font-family="Arial" font-size="7pt" font-weight="" font-style="" dominant-baseline="" text-anchor="start"  >U7</text></g><g c_partid="part_pin" c_etype="pinpart"  c_show="show"  c_elec="0" c_spicepin="5" c_origin="445,-600" id="gge504" c_rotation="0"><circle c_pindot="true" class="pindot" cx="445" cy="-600" r="2" fill="#4F4F4F" stroke="none" /><path d="M 445 -600 h -10" fill="none" stroke="#000000" stroke-width="1"/><text x="430" y="-600" font-family="Verdana" font-size="7pt" fill="#000000" text-anchor="end" display="none"  >OUT</text><text x="447" y="-609" font-family="Verdana" font-size="7pt" fill="#000000" text-anchor="start" display="none"  >5</text><circle cx="438" cy="-600" r="3" stroke="#000000" fill="none" stroke-width="1" display="none" /><path d="M 435 -603 L 432 -600 L 435 -597" fill="none" stroke="#000000" stroke-width="1"  display="none" /></g><polyline points="395 -590 398 -590" stroke="#000000" id="gge511" stroke-width="1"   fill="none" stroke-linecap="round" /><path d="M 414 -615 A 24 29 0 0 1 433.969 -602.086" id="gge512"   stroke="#000000" stroke-width="1" c_helper_type="arc1" fill="none" /><path d="M 394.3 -615.461 A 16 19 0 0 1 394.3 -584.539" id="gge513"   stroke="#000000" stroke-width="1" c_helper_type="arc1" fill="none" /><polyline points="399 -585 414 -585" stroke="#000000" id="gge514" stroke-width="1"   fill="none" stroke-linecap="round" /><path d="M 397.875 -615.809 A 16 19 0 0 1 397.875 -584.191" id="gge515"   stroke="#000000" stroke-width="1" c_helper_type="arc1" fill="none" /><path d="M 434 -598 C 435 -600 435 -600 434 -602" id="gge516"  stroke="#000000" stroke-width="1"  fill="none" /><g c_partid="part_pin" c_etype="pinpart"  c_show="show"  c_elec="0" c_spicepin="1" c_origin="395,-610" id="gge517" c_rotation="180"><circle c_pindot="true" class="pindot" cx="385" cy="-610" r="2" fill="#4F4F4F" stroke="none" /><path d="M 395 -610 h -10" fill="none" stroke="#000000" stroke-width="1"/><text x="400" y="-610" font-family="Verdana" font-size="7pt" fill="#000000" text-anchor="start" display="none"  >INA</text><text x="383" y="-601" font-family="Verdana" font-size="7pt" fill="#000000" text-anchor="end" display="none"  >1 </text><circle cx="382" cy="-610" r="3" stroke="#000000" fill="none" stroke-width="1" display="none" /><path d="M 385 -607 L 388 -610 L 385 -613" fill="none" stroke="#000000" stroke-width="1"  display="none" /></g><g c_partid="part_pin" c_etype="pinpart"  c_show="show"  c_elec="0" c_spicepin="2" c_origin="395,-590" id="gge524" c_rotation="180"><circle c_pindot="true" class="pindot" cx="385" cy="-590" r="2" fill="#4F4F4F" stroke="none" /><path d="M 395 -590 h -10" fill="none" stroke="#000000" stroke-width="1"/><text x="400" y="-590" font-family="Verdana" font-size="7pt" fill="#000000" text-anchor="start" display="none"  >INB</text><text x="383" y="-581" font-family="Verdana" font-size="7pt" fill="#000000" text-anchor="end" display="none"  >2 </text><circle cx="382" cy="-590" r="3" stroke="#000000" fill="none" stroke-width="1" display="none" /><path d="M 385 -587 L 388 -590 L 385 -593" fill="none" stroke="#000000" stroke-width="1"  display="none" /></g><g c_partid="part_pin" c_etype="pinpart"  c_show="none" display="none" c_elec="0" c_spicepin="3" c_origin="415,-620" id="gge531" c_rotation="90"><circle c_pindot="true" class="pindot" cx="415" cy="-620" r="2" fill="#4F4F4F" stroke="none" /><path d="M 415 -620 v 5" fill="none" stroke="#000000" stroke-width="1"/><text x="418" y="-613" font-family="Verdana" font-size="7pt" fill="#000000" text-anchor="end" display="none" transform="rotate(270,418,-613)" >VDD</text><text x="414" y="-620" font-family="Verdana" font-size="7pt" fill="#000000" text-anchor="start" display="none" transform="rotate(270,414,-620)" >3</text><circle cx="415" cy="-618" r="3" stroke="#000000" fill="none" stroke-width="1" display="none" /><path d="M 412 -615 L 415 -612 L 418 -615" fill="none" stroke="#000000" stroke-width="1"  display="none" /></g><g c_partid="part_pin" c_etype="pinpart"  c_show="none" display="none" c_elec="0" c_spicepin="4" c_origin="415,-580" id="gge538" c_rotation="270"><circle c_pindot="true" class="pindot" cx="415" cy="-580" r="2" fill="#4F4F4F" stroke="none" /><path d="M 415 -580 v -5" fill="none" stroke="#000000" stroke-width="1"/><text x="418" y="-587" font-family="Verdana" font-size="7pt" fill="#000000" text-anchor="start" display="none" transform="rotate(270,418,-587)" >GND</text><text x="414" y="-580" font-family="Verdana" font-size="7pt" fill="#000000" text-anchor="end" display="none" transform="rotate(270,414,-580)" >4</text><circle cx="415" cy="-582" r="3" stroke="#000000" fill="none" stroke-width="1" display="none" /><path d="M 418 -585 L 415 -588 L 412 -585" fill="none" stroke="#000000" stroke-width="1"  display="none" /></g><path d="M 433.969 -597.914 A 24 29 0 0 1 414 -585" id="gge545"   stroke="#000000" stroke-width="1" c_helper_type="arc1" fill="none" /><polyline points="399 -615 414 -615" stroke="#000000" id="gge546" stroke-width="1"   fill="none" stroke-linecap="round" /><polyline points="395 -610 398 -610" stroke="#000000" id="gge547" stroke-width="1"   fill="none" stroke-linecap="round" /></g><g c_partid="part_annotation" id="gge553" c_origin="525,-680" c_shapetype="group" c_etype="pinpart"><text x="525" y="-680" fill="#000000" font-family="Verdana" font-size="9pt" font-weight="undefined" font-style="undefined" dominant-baseline="" text-anchor="start" type="comment"  >Y</text></g><g c_origin="410,-655" c_para="package``spicePre`X`spiceSymbolName`LOGIC`BOM_Supplier Part``BOM_Supplier``Contributor`EasyEDA`BOM_Manufacturer Part``" c_partid="part_import_gge556" id="gge556" c_shapetype="group" c_etype="pinpart" ><g c_partid="part_annotation" id="gge558" display="none"><text c_note="note_name" x="378" y="-672.984375" fill="#000000" font-family="Arial" font-size="7pt" font-weight="" font-style="" dominant-baseline="" text-anchor="start"  >AND2EE_US</text></g><g c_partid="part_annotation" id="gge560" display="none"><text c_note="note_pre" x="378" y="-682" fill="#000000" font-family="Arial" font-size="7pt" font-weight="" font-style="" dominant-baseline="" text-anchor="start"  >U8</text></g><g c_partid="part_pin" c_etype="pinpart"  c_show="show"  c_elec="0" c_spicepin="5" c_origin="440,-655" id="gge562" c_rotation="0"><circle c_pindot="true" class="pindot" cx="440" cy="-655" r="2" fill="#4F4F4F" stroke="none" /><path d="M 440 -655 h -10" fill="none" stroke="#000000" stroke-width="1"/><text x="425" y="-655" font-family="Verdana" font-size="7pt" fill="#000000" text-anchor="end" display="none"  >OUT</text><text x="442" y="-664" font-family="Verdana" font-size="7pt" fill="#000000" text-anchor="start" display="none"  >5</text><circle cx="433" cy="-655" r="3" stroke="#000000" fill="none" stroke-width="1" display="none" /><path d="M 430 -658 L 427 -655 L 430 -652" fill="none" stroke="#000000" stroke-width="1"  display="none" /></g><polyline points="390 -670 390 -640" stroke="#000000" id="gge569" stroke-width="1"   fill="none" stroke-linecap="round" /><polyline points="390 -640 415 -640" stroke="#000000" id="gge570" stroke-width="1"   fill="none" stroke-linecap="round" /><path d="M 415 -670 A 15 15 0 0 1 415 -640" id="gge571"   stroke="#000000" stroke-width="1" c_helper_type="arc1" fill="none" /><polyline points="390 -670 415 -670" stroke="#000000" id="gge572" stroke-width="1"   fill="none" stroke-linecap="round" /><g c_partid="part_pin" c_etype="pinpart"  c_show="show"  c_elec="0" c_spicepin="1" c_origin="390,-665" id="gge573" c_rotation="180"><circle c_pindot="true" class="pindot" cx="380" cy="-665" r="2" fill="#4F4F4F" stroke="none" /><path d="M 390 -665 h -10" fill="none" stroke="#000000" stroke-width="1"/><text x="395" y="-665" font-family="Verdana" font-size="7pt" fill="#000000" text-anchor="start" display="none"  >INA</text><text x="378" y="-656" font-family="Verdana" font-size="7pt" fill="#000000" text-anchor="end" display="none"  >1</text><circle cx="377" cy="-665" r="3" stroke="#000000" fill="none" stroke-width="1" display="none" /><path d="M 380 -662 L 383 -665 L 380 -668" fill="none" stroke="#000000" stroke-width="1"  display="none" /></g><g c_partid="part_pin" c_etype="pinpart"  c_show="show"  c_elec="0" c_spicepin="2" c_origin="390,-645" id="gge580" c_rotation="180"><circle c_pindot="true" class="pindot" cx="380" cy="-645" r="2" fill="#4F4F4F" stroke="none" /><path d="M 390 -645 h -10" fill="none" stroke="#000000" stroke-width="1"/><text x="395" y="-645" font-family="Verdana" font-size="7pt" fill="#000000" text-anchor="start" display="none"  >INB</text><text x="378" y="-636" font-family="Verdana" font-size="7pt" fill="#000000" text-anchor="end" display="none"  >2</text><circle cx="377" cy="-645" r="3" stroke="#000000" fill="none" stroke-width="1" display="none" /><path d="M 380 -642 L 383 -645 L 380 -648" fill="none" stroke="#000000" stroke-width="1"  display="none" /></g><g c_partid="part_pin" c_etype="pinpart"  c_show="none" display="none" c_elec="0" c_spicepin="3" c_origin="410,-675" id="gge587" c_rotation="90"><circle c_pindot="true" class="pindot" cx="410" cy="-675" r="2" fill="#4F4F4F" stroke="none" /><path d="M 410 -675 v 5" fill="none" stroke="#000000" stroke-width="1"/><text x="413" y="-668" font-family="Verdana" font-size="7pt" fill="#000000" text-anchor="end" display="none" transform="rotate(270,413,-668)" >VDD</text><text x="409" y="-675" font-family="Verdana" font-size="7pt" fill="#000000" text-anchor="start" display="none" transform="rotate(270,409,-675)" >3</text><circle cx="410" cy="-673" r="3" stroke="#000000" fill="none" stroke-width="1" display="none" /><path d="M 407 -670 L 410 -667 L 413 -670" fill="none" stroke="#000000" stroke-width="1"  display="none" /></g><g c_partid="part_pin" c_etype="pinpart"  c_show="none" display="none" c_elec="0" c_spicepin="4" c_origin="410,-635" id="gge594" c_rotation="270"><circle c_pindot="true" class="pindot" cx="410" cy="-635" r="2" fill="#4F4F4F" stroke="none" /><path d="M 410 -635 v -5" fill="none" stroke="#000000" stroke-width="1"/><text x="413" y="-642" font-family="Verdana" font-size="7pt" fill="#000000" text-anchor="start" display="none" transform="rotate(270,413,-642)" >GND</text><text x="409" y="-635" font-family="Verdana" font-size="7pt" fill="#000000" text-anchor="end" display="none" transform="rotate(270,409,-635)" >4</text><circle cx="410" cy="-637" r="3" stroke="#000000" fill="none" stroke-width="1" display="none" /><path d="M 413 -640 L 410 -643 L 407 -640" fill="none" stroke="#000000" stroke-width="1"  display="none" /></g></g><g c_origin="410,-695" c_para="package``spicePre`X`spiceSymbolName`LOGIC`BOM_Supplier Part``BOM_Supplier``Contributor`EasyEDA`BOM_Manufacturer Part``" c_partid="part_import_gge609" id="gge609" c_shapetype="group" c_etype="pinpart" ><g c_partid="part_annotation" id="gge611" display="none"><text c_note="note_name" x="378" y="-712.984375" fill="#000000" font-family="Arial" font-size="7pt" font-weight="" font-style="" dominant-baseline="" text-anchor="start"  >AND2EE_US</text></g><g c_partid="part_annotation" id="gge613" display="none"><text c_note="note_pre" x="378" y="-722" fill="#000000" font-family="Arial" font-size="7pt" font-weight="" font-style="" dominant-baseline="" text-anchor="start"  >U10</text></g><g c_partid="part_pin" c_etype="pinpart"  c_show="show"  c_elec="0" c_spicepin="5" c_origin="440,-695" id="gge615" c_rotation="0"><circle c_pindot="true" class="pindot" cx="440" cy="-695" r="2" fill="#4F4F4F" stroke="none" /><path d="M 440 -695 h -10" fill="none" stroke="#000000" stroke-width="1"/><text x="425" y="-695" font-family="Verdana" font-size="7pt" fill="#000000" text-anchor="end" display="none"  >OUT</text><text x="442" y="-704" font-family="Verdana" font-size="7pt" fill="#000000" text-anchor="start" display="none"  >5</text><circle cx="433" cy="-695" r="3" stroke="#000000" fill="none" stroke-width="1" display="none" /><path d="M 430 -698 L 427 -695 L 430 -692" fill="none" stroke="#000000" stroke-width="1"  display="none" /></g><polyline points="390 -710 390 -680" stroke="#000000" id="gge622" stroke-width="1"   fill="none" stroke-linecap="round" /><polyline points="390 -680 415 -680" stroke="#000000" id="gge623" stroke-width="1"   fill="none" stroke-linecap="round" /><path d="M 415 -710 A 15 15 0 0 1 415 -680" id="gge624"   stroke="#000000" stroke-width="1" c_helper_type="arc1" fill="none" /><polyline points="390 -710 415 -710" stroke="#000000" id="gge625" stroke-width="1"   fill="none" stroke-linecap="round" /><g c_partid="part_pin" c_etype="pinpart"  c_show="show"  c_elec="0" c_spicepin="1" c_origin="390,-705" id="gge626" c_rotation="180"><circle c_pindot="true" class="pindot" cx="380" cy="-705" r="2" fill="#4F4F4F" stroke="none" /><path d="M 390 -705 h -10" fill="none" stroke="#000000" stroke-width="1"/><text x="395" y="-705" font-family="Verdana" font-size="7pt" fill="#000000" text-anchor="start" display="none"  >INA</text><text x="378" y="-696" font-family="Verdana" font-size="7pt" fill="#000000" text-anchor="end" display="none"  >1</text><circle cx="377" cy="-705" r="3" stroke="#000000" fill="none" stroke-width="1" display="none" /><path d="M 380 -702 L 383 -705 L 380 -708" fill="none" stroke="#000000" stroke-width="1"  display="none" /></g><g c_partid="part_pin" c_etype="pinpart"  c_show="show"  c_elec="0" c_spicepin="2" c_origin="390,-685" id="gge633" c_rotation="180"><circle c_pindot="true" class="pindot" cx="380" cy="-685" r="2" fill="#4F4F4F" stroke="none" /><path d="M 390 -685 h -10" fill="none" stroke="#000000" stroke-width="1"/><text x="395" y="-685" font-family="Verdana" font-size="7pt" fill="#000000" text-anchor="start" display="none"  >INB</text><text x="378" y="-676" font-family="Verdana" font-size="7pt" fill="#000000" text-anchor="end" display="none"  >2</text><circle cx="377" cy="-685" r="3" stroke="#000000" fill="none" stroke-width="1" display="none" /><path d="M 380 -682 L 383 -685 L 380 -688" fill="none" stroke="#000000" stroke-width="1"  display="none" /></g><g c_partid="part_pin" c_etype="pinpart"  c_show="none" display="none" c_elec="0" c_spicepin="3" c_origin="410,-715" id="gge640" c_rotation="90"><circle c_pindot="true" class="pindot" cx="410" cy="-715" r="2" fill="#4F4F4F" stroke="none" /><path d="M 410 -715 v 5" fill="none" stroke="#000000" stroke-width="1"/><text x="413" y="-708" font-family="Verdana" font-size="7pt" fill="#000000" text-anchor="end" display="none" transform="rotate(270,413,-708)" >VDD</text><text x="409" y="-715" font-family="Verdana" font-size="7pt" fill="#000000" text-anchor="start" display="none" transform="rotate(270,409,-715)" >3</text><circle cx="410" cy="-713" r="3" stroke="#000000" fill="none" stroke-width="1" display="none" /><path d="M 407 -710 L 410 -707 L 413 -710" fill="none" stroke="#000000" stroke-width="1"  display="none" /></g><g c_partid="part_pin" c_etype="pinpart"  c_show="none" display="none" c_elec="0" c_spicepin="4" c_origin="410,-675" id="gge647" c_rotation="270"><circle c_pindot="true" class="pindot" cx="410" cy="-675" r="2" fill="#4F4F4F" stroke="none" /><path d="M 410 -675 v -5" fill="none" stroke="#000000" stroke-width="1"/><text x="413" y="-682" font-family="Verdana" font-size="7pt" fill="#000000" text-anchor="start" display="none" transform="rotate(270,413,-682)" >GND</text><text x="409" y="-675" font-family="Verdana" font-size="7pt" fill="#000000" text-anchor="end" display="none" transform="rotate(270,409,-675)" >4</text><circle cx="410" cy="-677" r="3" stroke="#000000" fill="none" stroke-width="1" display="none" /><path d="M 413 -680 L 410 -683 L 407 -680" fill="none" stroke="#000000" stroke-width="1"  display="none" /></g></g><polyline c_etype="wire" c_shapetype="line" points="380 -645 380 -630 375 -630" stroke="#000000" id="gge668" stroke-width="1"   fill="none" stroke-linecap="round" /><polyline c_etype="wire" c_shapetype="line" points="380 -665 265 -665" stroke="#000000" id="gge669" stroke-width="1"   fill="none" stroke-linecap="round" /><polyline c_etype="wire" c_shapetype="line" points="380 -705 300 -705 300 -620" stroke="#000000" id="gge672" stroke-width="1"   fill="none" stroke-linecap="round" /><polyline c_etype="wire" c_shapetype="line" points="440 -675 440 -655" stroke="#000000" id="gge675" stroke-width="1"   fill="none" stroke-linecap="round" /><polyline c_etype="wire" c_shapetype="line" points="500 -685 520 -685" stroke="#000000" id="gge676" stroke-width="1"   fill="none" stroke-linecap="round" /><polyline c_etype="wire" c_shapetype="line" points="385 -590 285 -590 285 -665" stroke="#000000" id="gge677" stroke-width="1"   fill="none" stroke-linecap="round" /><polyline c_etype="wire" c_shapetype="line" points="385 -610 380 -610 380 -630" stroke="#000000" id="gge679" stroke-width="1"   fill="none" stroke-linecap="round" /><polyline c_etype="wire" c_shapetype="line" points="445 -600 520 -600" stroke="#000000" id="gge681" stroke-width="1"   fill="none" stroke-linecap="round" /><g c_partid="part_annotation" id="gge683" c_origin="525,-595" c_shapetype="group" c_etype="pinpart"><text x="525" y="-595" fill="#000000" font-family="Verdana" font-size="9pt" font-weight="undefined" font-style="undefined" dominant-baseline="" text-anchor="start" type="comment"  >X</text></g><g c_partid="part_junction" c_etype="pinpart" c_origin="380,-630" id="gge680" c_shapetype="group"><circle c_pindot="true" class="pindot" cx="380" cy="-630" r="2" fill="#4F4F4F" stroke="none"/><circle cx="380" cy="-630" r="2.5" fill="#000000" stroke-width="1"/></g><g c_partid="part_junction" c_etype="pinpart" c_origin="315,-640" id="gge671" c_shapetype="group"><circle c_pindot="true" class="pindot" cx="315" cy="-640" r="2" fill="#4F4F4F" stroke="none"/><circle cx="315" cy="-640" r="2.5" fill="#000000" stroke-width="1"/></g><g c_partid="part_junction" c_etype="pinpart" c_origin="300,-620" id="gge673" c_shapetype="group"><circle c_pindot="true" class="pindot" cx="300" cy="-620" r="2" fill="#4F4F4F" stroke="none"/><circle cx="300" cy="-620" r="2.5" fill="#000000" stroke-width="1"/></g><g c_partid="part_junction" c_etype="pinpart" c_origin="285,-665" id="gge678" c_shapetype="group"><circle c_pindot="true" class="pindot" cx="285" cy="-665" r="2" fill="#4F4F4F" stroke="none"/><circle cx="285" cy="-665" r="2.5" fill="#000000" stroke-width="1"/></g></g></svg>