<svg xmlns="http://www.w3.org/2000/svg" xmlns:xlink="http://www.w3.org/1999/xlink" width="353.2" height="167.2" viewBox="135 -657.2 353.2 167.2"><title></title><style type="text/css">
#g1 circle.pindot {fill: none;stroke: none;}#g1 rect, #g1 circle, #g1 ellipse, #g1 polyline, #g1 line, #g1 polygon, #g1 path {shape-rendering: crispEdges;}path, polyline, polygon {stroke-linejoin:round;}
rect, circle, ellipse, polyline, line, polygon, path {shape-rendering:crispEdges;}
</style>
<rect x="135" y="-657.2" width="353.2" height="167.2" fill="#FFFFFF" stroke="none"/><g id="g1" c_spiceCmd="null" c_para="Prefix Start`1`" importFlag="0" c_portOfADImportHack="" c_transformList="" xmlns="http://www.w3.org/2000/svg"><polyline c_etype="wire" c_shapetype="line" points="365 -620 460 -620" stroke="#000000" id="gge92" stroke-width="1"   fill="none" stroke-linecap="round" /><polyline c_etype="wire" c_shapetype="line" points="385 -565 365 -565" stroke="#000000" id="gge94" stroke-width="1"   fill="none" stroke-linecap="round" /><polyline c_etype="wire" c_shapetype="line" points="305 -505 185 -505 185 -620" stroke="#000000" id="gge95" stroke-width="1"   fill="none" stroke-linecap="round" /><polyline c_etype="wire" c_shapetype="line" points="305 -525 205 -525 205 -640" stroke="#000000" id="gge96" stroke-width="1"   fill="none" stroke-linecap="round" /><polyline c_etype="wire" c_shapetype="line" points="305 -555 260 -555 260 -590" stroke="#000000" id="gge97" stroke-width="1"   fill="none" stroke-linecap="round" /><polyline c_etype="wire" c_shapetype="line" points="305 -610 260 -610 260 -590 165 -590" stroke="#000000" id="gge98" stroke-width="1"   fill="none" stroke-linecap="round" /><polyline c_etype="wire" c_shapetype="line" points="305 -575 280 -575 280 -630" stroke="#000000" id="gge99" stroke-width="1"   fill="none" stroke-linecap="round" /><polyline c_etype="wire" c_shapetype="line" points="210 -620 165 -620" stroke="#000000" id="gge100" stroke-width="1"   fill="none" stroke-linecap="round" /><polyline c_etype="wire" c_shapetype="line" points="210 -640 165 -640" stroke="#000000" id="gge101" stroke-width="1"   fill="none" stroke-linecap="round" /><polyline c_etype="wire" c_shapetype="line" points="305 -630 270 -630" stroke="#000000" id="gge102" stroke-width="1"   fill="none" stroke-linecap="round" /><g c_partid="part_annotation" id="gge103" c_origin="145,-585" c_shapetype="group" c_etype="pinpart"><text x="145" y="-585" fill="#000000" font-family="Verdana" font-size="9pt" font-weight="undefined" font-style="undefined" dominant-baseline="" text-anchor="start" type="comment"  >C</text></g><g c_partid="part_annotation" id="gge105" c_origin="145,-615" c_shapetype="group" c_etype="pinpart"><text x="145" y="-615" fill="#000000" font-family="Verdana" font-size="9pt" font-weight="undefined" font-style="undefined" dominant-baseline="" text-anchor="start" type="comment"  >B</text></g><g c_partid="part_annotation" id="gge107" c_origin="145,-635" c_shapetype="group" c_etype="pinpart"><text x="145" y="-635" fill="#000000" font-family="Verdana" font-size="9pt" font-weight="undefined" font-style="undefined" dominant-baseline="" text-anchor="start" type="comment"  >A</text></g><g c_origin="240,-630" c_para="package``spicePre`X`spiceSymbolName`LOGIC`BOM_Supplier Part``BOM_Supplier``Contributor`EasyEDA`BOM_Manufacturer Part``" c_partid="part_import_gge109" id="gge109" c_shapetype="group" c_etype="pinpart" ><g c_partid="part_annotation" id="gge111" display="none"><text c_note="note_name" x="208" y="-648.8125" fill="#000000" font-family="Arial" font-size="7pt" font-weight="" font-style="" dominant-baseline="" text-anchor="start"  >XOR2EE_US</text></g><g c_partid="part_annotation" id="gge113" display="none"><text c_note="note_pre" x="208" y="-657.81" fill="#000000" font-family="Arial" font-size="7pt" font-weight="" font-style="" dominant-baseline="" text-anchor="start"  >U4</text></g><g c_partid="part_pin" c_etype="pinpart"  c_show="show"  c_elec="0" c_spicepin="5" c_origin="270,-630" id="gge115" c_rotation="0"><circle c_pindot="true" class="pindot" cx="270" cy="-630" r="2" fill="#4F4F4F" stroke="none" /><path d="M 270 -630 h -10" fill="none" stroke="#000000" stroke-width="1"/><text x="255" y="-630" font-family="Verdana" font-size="7pt" fill="#000000" text-anchor="end" display="none"  >OUT</text><text x="272" y="-639" font-family="Verdana" font-size="7pt" fill="#000000" text-anchor="start" display="none"  >5</text><circle cx="263" cy="-630" r="3" stroke="#000000" fill="none" stroke-width="1" display="none" /><path d="M 260 -633 L 257 -630 L 260 -627" fill="none" stroke="#000000" stroke-width="1"  display="none" /></g><polyline points="220 -620 223 -620" stroke="#000000" id="gge122" stroke-width="1"   fill="none" stroke-linecap="round" /><path d="M 239 -645 A 24 29 0 0 1 258.969 -632.086" id="gge123"   stroke="#000000" stroke-width="1" c_helper_type="arc1" fill="none" /><path d="M 219.3 -645.461 A 16 19 0 0 1 219.3 -614.539" id="gge124"   stroke="#000000" stroke-width="1" c_helper_type="arc1" fill="none" /><polyline points="224 -615 239 -615" stroke="#000000" id="gge125" stroke-width="1"   fill="none" stroke-linecap="round" /><path d="M 222.875 -645.809 A 16 19 0 0 1 222.875 -614.191" id="gge126"   stroke="#000000" stroke-width="1" c_helper_type="arc1" fill="none" /><path d="M 259 -628 C 260 -630 260 -630 259 -632" id="gge127"  stroke="#000000" stroke-width="1"  fill="none" /><g c_partid="part_pin" c_etype="pinpart"  c_show="show"  c_elec="0" c_spicepin="1" c_origin="220,-640" id="gge128" c_rotation="180"><circle c_pindot="true" class="pindot" cx="210" cy="-640" r="2" fill="#4F4F4F" stroke="none" /><path d="M 220 -640 h -10" fill="none" stroke="#000000" stroke-width="1"/><text x="225" y="-640" font-family="Verdana" font-size="7pt" fill="#000000" text-anchor="start" display="none"  >INA</text><text x="208" y="-631" font-family="Verdana" font-size="7pt" fill="#000000" text-anchor="end" display="none"  >1 </text><circle cx="207" cy="-640" r="3" stroke="#000000" fill="none" stroke-width="1" display="none" /><path d="M 210 -637 L 213 -640 L 210 -643" fill="none" stroke="#000000" stroke-width="1"  display="none" /></g><g c_partid="part_pin" c_etype="pinpart"  c_show="show"  c_elec="0" c_spicepin="2" c_origin="220,-620" id="gge135" c_rotation="180"><circle c_pindot="true" class="pindot" cx="210" cy="-620" r="2" fill="#4F4F4F" stroke="none" /><path d="M 220 -620 h -10" fill="none" stroke="#000000" stroke-width="1"/><text x="225" y="-620" font-family="Verdana" font-size="7pt" fill="#000000" text-anchor="start" display="none"  >INB</text><text x="208" y="-611" font-family="Verdana" font-size="7pt" fill="#000000" text-anchor="end" display="none"  >2 </text><circle cx="207" cy="-620" r="3" stroke="#000000" fill="none" stroke-width="1" display="none" /><path d="M 210 -617 L 213 -620 L 210 -623" fill="none" stroke="#000000" stroke-width="1"  display="none" /></g><g c_partid="part_pin" c_etype="pinpart"  c_show="none" display="none" c_elec="0" c_spicepin="3" c_origin="240,-650" id="gge142" c_rotation="90"><circle c_pindot="true" class="pindot" cx="240" cy="-650" r="2" fill="#4F4F4F" stroke="none" /><path d="M 240 -650 v 5" fill="none" stroke="#000000" stroke-width="1"/><text x="243" y="-643" font-family="Verdana" font-size="7pt" fill="#000000" text-anchor="end" display="none" transform="rotate(270,243,-643)" >VDD</text><text x="239" y="-650" font-family="Verdana" font-size="7pt" fill="#000000" text-anchor="start" display="none" transform="rotate(270,239,-650)" >3</text><circle cx="240" cy="-648" r="3" stroke="#000000" fill="none" stroke-width="1" display="none" /><path d="M 237 -645 L 240 -642 L 243 -645" fill="none" stroke="#000000" stroke-width="1"  display="none" /></g><g c_partid="part_pin" c_etype="pinpart"  c_show="none" display="none" c_elec="0" c_spicepin="4" c_origin="240,-610" id="gge149" c_rotation="270"><circle c_pindot="true" class="pindot" cx="240" cy="-610" r="2" fill="#4F4F4F" stroke="none" /><path d="M 240 -610 v -5" fill="none" stroke="#000000" stroke-width="1"/><text x="243" y="-617" font-family="Verdana" font-size="7pt" fill="#000000" text-anchor="start" display="none" transform="rotate(270,243,-617)" >GND</text><text x="239" y="-610" font-family="Verdana" font-size="7pt" fill="#000000" text-anchor="end" display="none" transform="rotate(270,239,-610)" >4</text><circle cx="240" cy="-612" r="3" stroke="#000000" fill="none" stroke-width="1" display="none" /><path d="M 243 -615 L 240 -618 L 237 -615" fill="none" stroke="#000000" stroke-width="1"  display="none" /></g><path d="M 258.969 -627.914 A 24 29 0 0 1 239 -615" id="gge156"   stroke="#000000" stroke-width="1" c_helper_type="arc1" fill="none" /><polyline points="224 -645 239 -645" stroke="#000000" id="gge157" stroke-width="1"   fill="none" stroke-linecap="round" /><polyline points="220 -640 223 -640" stroke="#000000" id="gge158" stroke-width="1"   fill="none" stroke-linecap="round" /></g><g c_origin="335,-620" c_para="package``spicePre`X`spiceSymbolName`LOGIC`BOM_Supplier Part``BOM_Supplier``Contributor`EasyEDA`BOM_Manufacturer Part``" c_partid="part_import_gge208" id="gge208" c_shapetype="group" c_etype="pinpart" ><g c_partid="part_annotation" id="gge210" display="none"><text c_note="note_name" x="303" y="-638.8125" fill="#000000" font-family="Arial" font-size="7pt" font-weight="" font-style="" dominant-baseline="" text-anchor="start"  >XOR2EE_US</text></g><g c_partid="part_annotation" id="gge212" display="none"><text c_note="note_pre" x="303" y="-647.81" fill="#000000" font-family="Arial" font-size="7pt" font-weight="" font-style="" dominant-baseline="" text-anchor="start"  >U7</text></g><g c_partid="part_pin" c_etype="pinpart"  c_show="show"  c_elec="0" c_spicepin="5" c_origin="365,-620" id="gge214" c_rotation="0"><circle c_pindot="true" class="pindot" cx="365" cy="-620" r="2" fill="#4F4F4F" stroke="none" /><path d="M 365 -620 h -10" fill="none" stroke="#000000" stroke-width="1"/><text x="350" y="-620" font-family="Verdana" font-size="7pt" fill="#000000" text-anchor="end" display="none"  >OUT</text><text x="367" y="-629" font-family="Verdana" font-size="7pt" fill="#000000" text-anchor="start" display="none"  >5</text><circle cx="358" cy="-620" r="3" stroke="#000000" fill="none" stroke-width="1" display="none" /><path d="M 355 -623 L 352 -620 L 355 -617" fill="none" stroke="#000000" stroke-width="1"  display="none" /></g><polyline points="315 -610 318 -610" stroke="#000000" id="gge221" stroke-width="1"   fill="none" stroke-linecap="round" /><path d="M 334 -635 A 24 29 0 0 1 353.969 -622.086" id="gge222"   stroke="#000000" stroke-width="1" c_helper_type="arc1" fill="none" /><path d="M 314.3 -635.461 A 16 19 0 0 1 314.3 -604.539" id="gge223"   stroke="#000000" stroke-width="1" c_helper_type="arc1" fill="none" /><polyline points="319 -605 334 -605" stroke="#000000" id="gge224" stroke-width="1"   fill="none" stroke-linecap="round" /><path d="M 317.875 -635.809 A 16 19 0 0 1 317.875 -604.191" id="gge225"   stroke="#000000" stroke-width="1" c_helper_type="arc1" fill="none" /><path d="M 354 -618 C 355 -620 355 -620 354 -622" id="gge226"  stroke="#000000" stroke-width="1"  fill="none" /><g c_partid="part_pin" c_etype="pinpart"  c_show="show"  c_elec="0" c_spicepin="1" c_origin="315,-630" id="gge227" c_rotation="180"><circle c_pindot="true" class="pindot" cx="305" cy="-630" r="2" fill="#4F4F4F" stroke="none" /><path d="M 315 -630 h -10" fill="none" stroke="#000000" stroke-width="1"/><text x="320" y="-630" font-family="Verdana" font-size="7pt" fill="#000000" text-anchor="start" display="none"  >INA</text><text x="303" y="-621" font-family="Verdana" font-size="7pt" fill="#000000" text-anchor="end" display="none"  >1 </text><circle cx="302" cy="-630" r="3" stroke="#000000" fill="none" stroke-width="1" display="none" /><path d="M 305 -627 L 308 -630 L 305 -633" fill="none" stroke="#000000" stroke-width="1"  display="none" /></g><g c_partid="part_pin" c_etype="pinpart"  c_show="show"  c_elec="0" c_spicepin="2" c_origin="315,-610" id="gge234" c_rotation="180"><circle c_pindot="true" class="pindot" cx="305" cy="-610" r="2" fill="#4F4F4F" stroke="none" /><path d="M 315 -610 h -10" fill="none" stroke="#000000" stroke-width="1"/><text x="320" y="-610" font-family="Verdana" font-size="7pt" fill="#000000" text-anchor="start" display="none"  >INB</text><text x="303" y="-601" font-family="Verdana" font-size="7pt" fill="#000000" text-anchor="end" display="none"  >2 </text><circle cx="302" cy="-610" r="3" stroke="#000000" fill="none" stroke-width="1" display="none" /><path d="M 305 -607 L 308 -610 L 305 -613" fill="none" stroke="#000000" stroke-width="1"  display="none" /></g><g c_partid="part_pin" c_etype="pinpart"  c_show="none" display="none" c_elec="0" c_spicepin="3" c_origin="335,-640" id="gge241" c_rotation="90"><circle c_pindot="true" class="pindot" cx="335" cy="-640" r="2" fill="#4F4F4F" stroke="none" /><path d="M 335 -640 v 5" fill="none" stroke="#000000" stroke-width="1"/><text x="338" y="-633" font-family="Verdana" font-size="7pt" fill="#000000" text-anchor="end" display="none" transform="rotate(270,338,-633)" >VDD</text><text x="334" y="-640" font-family="Verdana" font-size="7pt" fill="#000000" text-anchor="start" display="none" transform="rotate(270,334,-640)" >3</text><circle cx="335" cy="-638" r="3" stroke="#000000" fill="none" stroke-width="1" display="none" /><path d="M 332 -635 L 335 -632 L 338 -635" fill="none" stroke="#000000" stroke-width="1"  display="none" /></g><g c_partid="part_pin" c_etype="pinpart"  c_show="none" display="none" c_elec="0" c_spicepin="4" c_origin="335,-600" id="gge248" c_rotation="270"><circle c_pindot="true" class="pindot" cx="335" cy="-600" r="2" fill="#4F4F4F" stroke="none" /><path d="M 335 -600 v -5" fill="none" stroke="#000000" stroke-width="1"/><text x="338" y="-607" font-family="Verdana" font-size="7pt" fill="#000000" text-anchor="start" display="none" transform="rotate(270,338,-607)" >GND</text><text x="334" y="-600" font-family="Verdana" font-size="7pt" fill="#000000" text-anchor="end" display="none" transform="rotate(270,334,-600)" >4</text><circle cx="335" cy="-602" r="3" stroke="#000000" fill="none" stroke-width="1" display="none" /><path d="M 338 -605 L 335 -608 L 332 -605" fill="none" stroke="#000000" stroke-width="1"  display="none" /></g><path d="M 353.969 -617.914 A 24 29 0 0 1 334 -605" id="gge255"   stroke="#000000" stroke-width="1" c_helper_type="arc1" fill="none" /><polyline points="319 -635 334 -635" stroke="#000000" id="gge256" stroke-width="1"   fill="none" stroke-linecap="round" /><polyline points="315 -630 318 -630" stroke="#000000" id="gge257" stroke-width="1"   fill="none" stroke-linecap="round" /></g><g c_origin="335,-515" c_para="package``spicePre`X`spiceSymbolName`LOGIC`BOM_Supplier Part``BOM_Supplier``Contributor`EasyEDA`BOM_Manufacturer Part``" c_partid="part_import_gge260" id="gge260" c_shapetype="group" c_etype="pinpart" ><g c_partid="part_annotation" id="gge262" display="none"><text c_note="note_name" x="303" y="-532.984375" fill="#000000" font-family="Arial" font-size="7pt" font-weight="" font-style="" dominant-baseline="" text-anchor="start"  >AND2EE_US</text></g><g c_partid="part_annotation" id="gge264" display="none"><text c_note="note_pre" x="303" y="-542" fill="#000000" font-family="Arial" font-size="7pt" font-weight="" font-style="" dominant-baseline="" text-anchor="start"  >U8</text></g><g c_partid="part_pin" c_etype="pinpart"  c_show="show"  c_elec="0" c_spicepin="5" c_origin="365,-515" id="gge266" c_rotation="0"><circle c_pindot="true" class="pindot" cx="365" cy="-515" r="2" fill="#4F4F4F" stroke="none" /><path d="M 365 -515 h -10" fill="none" stroke="#000000" stroke-width="1"/><text x="350" y="-515" font-family="Verdana" font-size="7pt" fill="#000000" text-anchor="end" display="none"  >OUT</text><text x="367" y="-524" font-family="Verdana" font-size="7pt" fill="#000000" text-anchor="start" display="none"  >5</text><circle cx="358" cy="-515" r="3" stroke="#000000" fill="none" stroke-width="1" display="none" /><path d="M 355 -518 L 352 -515 L 355 -512" fill="none" stroke="#000000" stroke-width="1"  display="none" /></g><polyline points="315 -530 315 -500" stroke="#000000" id="gge273" stroke-width="1"   fill="none" stroke-linecap="round" /><polyline points="315 -500 340 -500" stroke="#000000" id="gge274" stroke-width="1"   fill="none" stroke-linecap="round" /><path d="M 340 -530 A 15 15 0 0 1 340 -500" id="gge275"   stroke="#000000" stroke-width="1" c_helper_type="arc1" fill="none" /><polyline points="315 -530 340 -530" stroke="#000000" id="gge276" stroke-width="1"   fill="none" stroke-linecap="round" /><g c_partid="part_pin" c_etype="pinpart"  c_show="show"  c_elec="0" c_spicepin="1" c_origin="315,-525" id="gge277" c_rotation="180"><circle c_pindot="true" class="pindot" cx="305" cy="-525" r="2" fill="#4F4F4F" stroke="none" /><path d="M 315 -525 h -10" fill="none" stroke="#000000" stroke-width="1"/><text x="320" y="-525" font-family="Verdana" font-size="7pt" fill="#000000" text-anchor="start" display="none"  >INA</text><text x="303" y="-516" font-family="Verdana" font-size="7pt" fill="#000000" text-anchor="end" display="none"  >1</text><circle cx="302" cy="-525" r="3" stroke="#000000" fill="none" stroke-width="1" display="none" /><path d="M 305 -522 L 308 -525 L 305 -528" fill="none" stroke="#000000" stroke-width="1"  display="none" /></g><g c_partid="part_pin" c_etype="pinpart"  c_show="show"  c_elec="0" c_spicepin="2" c_origin="315,-505" id="gge284" c_rotation="180"><circle c_pindot="true" class="pindot" cx="305" cy="-505" r="2" fill="#4F4F4F" stroke="none" /><path d="M 315 -505 h -10" fill="none" stroke="#000000" stroke-width="1"/><text x="320" y="-505" font-family="Verdana" font-size="7pt" fill="#000000" text-anchor="start" display="none"  >INB</text><text x="303" y="-496" font-family="Verdana" font-size="7pt" fill="#000000" text-anchor="end" display="none"  >2</text><circle cx="302" cy="-505" r="3" stroke="#000000" fill="none" stroke-width="1" display="none" /><path d="M 305 -502 L 308 -505 L 305 -508" fill="none" stroke="#000000" stroke-width="1"  display="none" /></g><g c_partid="part_pin" c_etype="pinpart"  c_show="none" display="none" c_elec="0" c_spicepin="3" c_origin="335,-535" id="gge291" c_rotation="90"><circle c_pindot="true" class="pindot" cx="335" cy="-535" r="2" fill="#4F4F4F" stroke="none" /><path d="M 335 -535 v 5" fill="none" stroke="#000000" stroke-width="1"/><text x="338" y="-528" font-family="Verdana" font-size="7pt" fill="#000000" text-anchor="end" display="none" transform="rotate(270,338,-528)" >VDD</text><text x="334" y="-535" font-family="Verdana" font-size="7pt" fill="#000000" text-anchor="start" display="none" transform="rotate(270,334,-535)" >3</text><circle cx="335" cy="-533" r="3" stroke="#000000" fill="none" stroke-width="1" display="none" /><path d="M 332 -530 L 335 -527 L 338 -530" fill="none" stroke="#000000" stroke-width="1"  display="none" /></g><g c_partid="part_pin" c_etype="pinpart"  c_show="none" display="none" c_elec="0" c_spicepin="4" c_origin="335,-495" id="gge298" c_rotation="270"><circle c_pindot="true" class="pindot" cx="335" cy="-495" r="2" fill="#4F4F4F" stroke="none" /><path d="M 335 -495 v -5" fill="none" stroke="#000000" stroke-width="1"/><text x="338" y="-502" font-family="Verdana" font-size="7pt" fill="#000000" text-anchor="start" display="none" transform="rotate(270,338,-502)" >GND</text><text x="334" y="-495" font-family="Verdana" font-size="7pt" fill="#000000" text-anchor="end" display="none" transform="rotate(270,334,-495)" >4</text><circle cx="335" cy="-497" r="3" stroke="#000000" fill="none" stroke-width="1" display="none" /><path d="M 338 -500 L 335 -503 L 332 -500" fill="none" stroke="#000000" stroke-width="1"  display="none" /></g></g><g c_origin="335,-565" c_para="package``spicePre`X`spiceSymbolName`LOGIC`BOM_Supplier Part``BOM_Supplier``Contributor`EasyEDA`BOM_Manufacturer Part``" c_partid="part_import_gge305" id="gge305" c_shapetype="group" c_etype="pinpart" ><g c_partid="part_annotation" id="gge307" display="none"><text c_note="note_name" x="303" y="-582.984375" fill="#000000" font-family="Arial" font-size="7pt" font-weight="" font-style="" dominant-baseline="" text-anchor="start"  >AND2EE_US</text></g><g c_partid="part_annotation" id="gge309" display="none"><text c_note="note_pre" x="303" y="-592" fill="#000000" font-family="Arial" font-size="7pt" font-weight="" font-style="" dominant-baseline="" text-anchor="start"  >U10</text></g><g c_partid="part_pin" c_etype="pinpart"  c_show="show"  c_elec="0" c_spicepin="5" c_origin="365,-565" id="gge311" c_rotation="0"><circle c_pindot="true" class="pindot" cx="365" cy="-565" r="2" fill="#4F4F4F" stroke="none" /><path d="M 365 -565 h -10" fill="none" stroke="#000000" stroke-width="1"/><text x="350" y="-565" font-family="Verdana" font-size="7pt" fill="#000000" text-anchor="end" display="none"  >OUT</text><text x="367" y="-574" font-family="Verdana" font-size="7pt" fill="#000000" text-anchor="start" display="none"  >5</text><circle cx="358" cy="-565" r="3" stroke="#000000" fill="none" stroke-width="1" display="none" /><path d="M 355 -568 L 352 -565 L 355 -562" fill="none" stroke="#000000" stroke-width="1"  display="none" /></g><polyline points="315 -580 315 -550" stroke="#000000" id="gge318" stroke-width="1"   fill="none" stroke-linecap="round" /><polyline points="315 -550 340 -550" stroke="#000000" id="gge319" stroke-width="1"   fill="none" stroke-linecap="round" /><path d="M 340 -580 A 15 15 0 0 1 340 -550" id="gge320"   stroke="#000000" stroke-width="1" c_helper_type="arc1" fill="none" /><polyline points="315 -580 340 -580" stroke="#000000" id="gge321" stroke-width="1"   fill="none" stroke-linecap="round" /><g c_partid="part_pin" c_etype="pinpart"  c_show="show"  c_elec="0" c_spicepin="1" c_origin="315,-575" id="gge322" c_rotation="180"><circle c_pindot="true" class="pindot" cx="305" cy="-575" r="2" fill="#4F4F4F" stroke="none" /><path d="M 315 -575 h -10" fill="none" stroke="#000000" stroke-width="1"/><text x="320" y="-575" font-family="Verdana" font-size="7pt" fill="#000000" text-anchor="start" display="none"  >INA</text><text x="303" y="-566" font-family="Verdana" font-size="7pt" fill="#000000" text-anchor="end" display="none"  >1</text><circle cx="302" cy="-575" r="3" stroke="#000000" fill="none" stroke-width="1" display="none" /><path d="M 305 -572 L 308 -575 L 305 -578" fill="none" stroke="#000000" stroke-width="1"  display="none" /></g><g c_partid="part_pin" c_etype="pinpart"  c_show="show"  c_elec="0" c_spicepin="2" c_origin="315,-555" id="gge329" c_rotation="180"><circle c_pindot="true" class="pindot" cx="305" cy="-555" r="2" fill="#4F4F4F" stroke="none" /><path d="M 315 -555 h -10" fill="none" stroke="#000000" stroke-width="1"/><text x="320" y="-555" font-family="Verdana" font-size="7pt" fill="#000000" text-anchor="start" display="none"  >INB</text><text x="303" y="-546" font-family="Verdana" font-size="7pt" fill="#000000" text-anchor="end" display="none"  >2</text><circle cx="302" cy="-555" r="3" stroke="#000000" fill="none" stroke-width="1" display="none" /><path d="M 305 -552 L 308 -555 L 305 -558" fill="none" stroke="#000000" stroke-width="1"  display="none" /></g><g c_partid="part_pin" c_etype="pinpart"  c_show="none" display="none" c_elec="0" c_spicepin="3" c_origin="335,-585" id="gge336" c_rotation="90"><circle c_pindot="true" class="pindot" cx="335" cy="-585" r="2" fill="#4F4F4F" stroke="none" /><path d="M 335 -585 v 5" fill="none" stroke="#000000" stroke-width="1"/><text x="338" y="-578" font-family="Verdana" font-size="7pt" fill="#000000" text-anchor="end" display="none" transform="rotate(270,338,-578)" >VDD</text><text x="334" y="-585" font-family="Verdana" font-size="7pt" fill="#000000" text-anchor="start" display="none" transform="rotate(270,334,-585)" >3</text><circle cx="335" cy="-583" r="3" stroke="#000000" fill="none" stroke-width="1" display="none" /><path d="M 332 -580 L 335 -577 L 338 -580" fill="none" stroke="#000000" stroke-width="1"  display="none" /></g><g c_partid="part_pin" c_etype="pinpart"  c_show="none" display="none" c_elec="0" c_spicepin="4" c_origin="335,-545" id="gge343" c_rotation="270"><circle c_pindot="true" class="pindot" cx="335" cy="-545" r="2" fill="#4F4F4F" stroke="none" /><path d="M 335 -545 v -5" fill="none" stroke="#000000" stroke-width="1"/><text x="338" y="-552" font-family="Verdana" font-size="7pt" fill="#000000" text-anchor="start" display="none" transform="rotate(270,338,-552)" >GND</text><text x="334" y="-545" font-family="Verdana" font-size="7pt" fill="#000000" text-anchor="end" display="none" transform="rotate(270,334,-545)" >4</text><circle cx="335" cy="-547" r="3" stroke="#000000" fill="none" stroke-width="1" display="none" /><path d="M 338 -550 L 335 -553 L 332 -550" fill="none" stroke="#000000" stroke-width="1"  display="none" /></g></g><g c_partid="part_annotation" id="gge350" c_origin="470,-615" c_shapetype="group" c_etype="pinpart"><text x="470" y="-615" fill="#000000" font-family="Verdana" font-size="9pt" font-weight="undefined" font-style="undefined" dominant-baseline="" text-anchor="start" type="comment"  >X</text></g><polyline c_etype="wire" c_shapetype="line" points="365 -515 385 -515" stroke="#000000" id="gge353" stroke-width="1"   fill="none" stroke-linecap="round" /><g c_partid="part_junction" c_etype="pinpart" c_origin="185,-620" id="gge88" c_shapetype="group"><circle c_pindot="true" class="pindot" cx="185" cy="-620" r="2" fill="#4F4F4F" stroke="none"/><circle cx="185" cy="-620" r="2.5" fill="#000000" stroke-width="1"/></g><g c_partid="part_junction" c_etype="pinpart" c_origin="260,-590" id="gge85" c_shapetype="group"><circle c_pindot="true" class="pindot" cx="260" cy="-590" r="2" fill="#4F4F4F" stroke="none"/><circle cx="260" cy="-590" r="2.5" fill="#000000" stroke-width="1"/></g><g c_partid="part_junction" c_etype="pinpart" c_origin="280,-630" id="gge82" c_shapetype="group"><circle c_pindot="true" class="pindot" cx="280" cy="-630" r="2" fill="#4F4F4F" stroke="none"/><circle cx="280" cy="-630" r="2.5" fill="#000000" stroke-width="1"/></g><g c_partid="part_junction" c_etype="pinpart" c_origin="205,-640" id="gge79" c_shapetype="group"><circle c_pindot="true" class="pindot" cx="205" cy="-640" r="2" fill="#4F4F4F" stroke="none"/><circle cx="205" cy="-640" r="2.5" fill="#000000" stroke-width="1"/></g></g></svg>