<svg xmlns="http://www.w3.org/2000/svg" xmlns:xlink="http://www.w3.org/1999/xlink" width="391.5" height="167" viewBox="149.2 -927 391.5 167"><title></title><style type="text/css">
#g1 circle.pindot {fill: none;stroke: none;}#g1 rect, #g1 circle, #g1 ellipse, #g1 polyline, #g1 line, #g1 polygon, #g1 path {shape-rendering: crispEdges;}path, polyline, polygon {stroke-linejoin:round;}
rect, circle, ellipse, polyline, line, polygon, path {shape-rendering:crispEdges;}
</style>
<rect x="149.2" y="-927" width="391.5" height="167" fill="#FFFFFF" stroke="none"/><g id="g1" c_spiceCmd="null" c_para="Prefix Start`1`" importFlag="0" c_portOfADImportHack="" c_transformList="" xmlns="http://www.w3.org/2000/svg"><polyline c_etype="wire" c_shapetype="line" points="470 -825 485 -825" stroke="#000000" id="gge698" stroke-width="1"   fill="none" stroke-linecap="round" /><polyline c_etype="wire" c_shapetype="line" points="390 -890 485 -890" stroke="#000000" id="gge699" stroke-width="1"   fill="none" stroke-linecap="round" /><polyline c_etype="wire" c_shapetype="line" points="410 -815 410 -785 390 -785" stroke="#000000" id="gge700" stroke-width="1"   fill="none" stroke-linecap="round" /><polyline c_etype="wire" c_shapetype="line" points="410 -835 390 -835" stroke="#000000" id="gge701" stroke-width="1"   fill="none" stroke-linecap="round" /><polyline c_etype="wire" c_shapetype="line" points="330 -775 210 -775 210 -890" stroke="#000000" id="gge702" stroke-width="1"   fill="none" stroke-linecap="round" /><polyline c_etype="wire" c_shapetype="line" points="330 -795 230 -795 230 -910" stroke="#000000" id="gge703" stroke-width="1"   fill="none" stroke-linecap="round" /><polyline c_etype="wire" c_shapetype="line" points="330 -825 285 -825 285 -860" stroke="#000000" id="gge704" stroke-width="1"   fill="none" stroke-linecap="round" /><polyline c_etype="wire" c_shapetype="line" points="330 -880 285 -880 285 -860 190 -860" stroke="#000000" id="gge705" stroke-width="1"   fill="none" stroke-linecap="round" /><polyline c_etype="wire" c_shapetype="line" points="330 -845 305 -845 305 -900" stroke="#000000" id="gge706" stroke-width="1"   fill="none" stroke-linecap="round" /><polyline c_etype="wire" c_shapetype="line" points="235 -890 190 -890" stroke="#000000" id="gge707" stroke-width="1"   fill="none" stroke-linecap="round" /><polyline c_etype="wire" c_shapetype="line" points="235 -910 190 -910" stroke="#000000" id="gge708" stroke-width="1"   fill="none" stroke-linecap="round" /><polyline c_etype="wire" c_shapetype="line" points="330 -900 295 -900" stroke="#000000" id="gge709" stroke-width="1"   fill="none" stroke-linecap="round" /><g c_partid="part_annotation" id="gge710" c_origin="160,-855" c_shapetype="group" c_etype="pinpart"><text x="160" y="-855" fill="#000000" font-family="Verdana" font-size="9pt" font-weight="undefined" font-style="undefined" dominant-baseline="" text-anchor="start" type="comment"  >C_in</text></g><g c_partid="part_annotation" id="gge712" c_origin="160,-885" c_shapetype="group" c_etype="pinpart"><text x="160" y="-885" fill="#000000" font-family="Verdana" font-size="9pt" font-weight="undefined" font-style="undefined" dominant-baseline="" text-anchor="start" type="comment"  >B</text></g><g c_partid="part_annotation" id="gge714" c_origin="160,-905" c_shapetype="group" c_etype="pinpart"><text x="160" y="-905" fill="#000000" font-family="Verdana" font-size="9pt" font-weight="undefined" font-style="undefined" dominant-baseline="" text-anchor="start" type="comment"  >A</text></g><g c_origin="265,-900" c_para="package``spicePre`X`spiceSymbolName`LOGIC`BOM_Supplier Part``BOM_Supplier``Contributor`EasyEDA`BOM_Manufacturer Part``" c_partid="part_import_gge716" id="gge716" c_shapetype="group" c_etype="pinpart" ><g c_partid="part_annotation" id="gge718" display="none"><text c_note="note_name" x="233" y="-918.8125" fill="#000000" font-family="Arial" font-size="7pt" font-weight="" font-style="" dominant-baseline="" text-anchor="start"  >XOR2EE_US</text></g><g c_partid="part_annotation" id="gge720" display="none"><text c_note="note_pre" x="233" y="-927.81" fill="#000000" font-family="Arial" font-size="7pt" font-weight="" font-style="" dominant-baseline="" text-anchor="start"  >U1</text></g><g c_partid="part_pin" c_etype="pinpart"  c_show="show"  c_elec="0" c_spicepin="5" c_origin="295,-900" id="gge722" c_rotation="0"><circle c_pindot="true" class="pindot" cx="295" cy="-900" r="2" fill="#4F4F4F" stroke="none" /><path d="M 295 -900 h -10" fill="none" stroke="#000000" stroke-width="1"/><text x="280" y="-900" font-family="Verdana" font-size="7pt" fill="#000000" text-anchor="end" display="none"  >OUT</text><text x="297" y="-909" font-family="Verdana" font-size="7pt" fill="#000000" text-anchor="start" display="none"  >5</text><circle cx="288" cy="-900" r="3" stroke="#000000" fill="none" stroke-width="1" display="none" /><path d="M 285 -903 L 282 -900 L 285 -897" fill="none" stroke="#000000" stroke-width="1"  display="none" /></g><polyline points="245 -890 248 -890" stroke="#000000" id="gge729" stroke-width="1"   fill="none" stroke-linecap="round" /><path d="M 264 -915 A 24 29 0 0 1 283.969 -902.086" id="gge730"   stroke="#000000" stroke-width="1" c_helper_type="arc1" fill="none" /><path d="M 244.3 -915.461 A 16 19 0 0 1 244.3 -884.539" id="gge731"   stroke="#000000" stroke-width="1" c_helper_type="arc1" fill="none" /><polyline points="249 -885 264 -885" stroke="#000000" id="gge732" stroke-width="1"   fill="none" stroke-linecap="round" /><path d="M 247.875 -915.809 A 16 19 0 0 1 247.875 -884.191" id="gge733"   stroke="#000000" stroke-width="1" c_helper_type="arc1" fill="none" /><path d="M 284 -898 C 285 -900 285 -900 284 -902" id="gge734"  stroke="#000000" stroke-width="1"  fill="none" /><g c_partid="part_pin" c_etype="pinpart"  c_show="show"  c_elec="0" c_spicepin="1" c_origin="245,-910" id="gge735" c_rotation="180"><circle c_pindot="true" class="pindot" cx="235" cy="-910" r="2" fill="#4F4F4F" stroke="none" /><path d="M 245 -910 h -10" fill="none" stroke="#000000" stroke-width="1"/><text x="250" y="-910" font-family="Verdana" font-size="7pt" fill="#000000" text-anchor="start" display="none"  >INA</text><text x="233" y="-901" font-family="Verdana" font-size="7pt" fill="#000000" text-anchor="end" display="none"  >1 </text><circle cx="232" cy="-910" r="3" stroke="#000000" fill="none" stroke-width="1" display="none" /><path d="M 235 -907 L 238 -910 L 235 -913" fill="none" stroke="#000000" stroke-width="1"  display="none" /></g><g c_partid="part_pin" c_etype="pinpart"  c_show="show"  c_elec="0" c_spicepin="2" c_origin="245,-890" id="gge742" c_rotation="180"><circle c_pindot="true" class="pindot" cx="235" cy="-890" r="2" fill="#4F4F4F" stroke="none" /><path d="M 245 -890 h -10" fill="none" stroke="#000000" stroke-width="1"/><text x="250" y="-890" font-family="Verdana" font-size="7pt" fill="#000000" text-anchor="start" display="none"  >INB</text><text x="233" y="-881" font-family="Verdana" font-size="7pt" fill="#000000" text-anchor="end" display="none"  >2 </text><circle cx="232" cy="-890" r="3" stroke="#000000" fill="none" stroke-width="1" display="none" /><path d="M 235 -887 L 238 -890 L 235 -893" fill="none" stroke="#000000" stroke-width="1"  display="none" /></g><g c_partid="part_pin" c_etype="pinpart"  c_show="none" display="none" c_elec="0" c_spicepin="3" c_origin="265,-920" id="gge749" c_rotation="90"><circle c_pindot="true" class="pindot" cx="265" cy="-920" r="2" fill="#4F4F4F" stroke="none" /><path d="M 265 -920 v 5" fill="none" stroke="#000000" stroke-width="1"/><text x="268" y="-913" font-family="Verdana" font-size="7pt" fill="#000000" text-anchor="end" display="none" transform="rotate(270,268,-913)" >VDD</text><text x="264" y="-920" font-family="Verdana" font-size="7pt" fill="#000000" text-anchor="start" display="none" transform="rotate(270,264,-920)" >3</text><circle cx="265" cy="-918" r="3" stroke="#000000" fill="none" stroke-width="1" display="none" /><path d="M 262 -915 L 265 -912 L 268 -915" fill="none" stroke="#000000" stroke-width="1"  display="none" /></g><g c_partid="part_pin" c_etype="pinpart"  c_show="none" display="none" c_elec="0" c_spicepin="4" c_origin="265,-880" id="gge756" c_rotation="270"><circle c_pindot="true" class="pindot" cx="265" cy="-880" r="2" fill="#4F4F4F" stroke="none" /><path d="M 265 -880 v -5" fill="none" stroke="#000000" stroke-width="1"/><text x="268" y="-887" font-family="Verdana" font-size="7pt" fill="#000000" text-anchor="start" display="none" transform="rotate(270,268,-887)" >GND</text><text x="264" y="-880" font-family="Verdana" font-size="7pt" fill="#000000" text-anchor="end" display="none" transform="rotate(270,264,-880)" >4</text><circle cx="265" cy="-882" r="3" stroke="#000000" fill="none" stroke-width="1" display="none" /><path d="M 268 -885 L 265 -888 L 262 -885" fill="none" stroke="#000000" stroke-width="1"  display="none" /></g><path d="M 283.969 -897.914 A 24 29 0 0 1 264 -885" id="gge763"   stroke="#000000" stroke-width="1" c_helper_type="arc1" fill="none" /><polyline points="249 -915 264 -915" stroke="#000000" id="gge764" stroke-width="1"   fill="none" stroke-linecap="round" /><polyline points="245 -910 248 -910" stroke="#000000" id="gge765" stroke-width="1"   fill="none" stroke-linecap="round" /></g><g c_origin="440,-825" c_para="package``spicePre`X`spiceSymbolName`LOGIC`BOM_Supplier Part``BOM_Supplier``Contributor`EasyEDA`BOM_Manufacturer Part``" c_partid="part_import_gge766" id="gge766" c_shapetype="group" c_etype="pinpart" ><g c_partid="part_annotation" id="gge768" display="none"><text c_note="note_name" x="408" y="-843.796875" fill="#000000" font-family="Arial" font-size="7pt" font-weight="" font-style="" dominant-baseline="" text-anchor="start"  >OR2EE_US</text></g><g c_partid="part_annotation" id="gge770" display="none"><text c_note="note_pre" x="408" y="-852.81" fill="#000000" font-family="Arial" font-size="7pt" font-weight="" font-style="" dominant-baseline="" text-anchor="start"  >U2</text></g><g c_partid="part_pin" c_etype="pinpart"  c_show="show"  c_elec="0" c_spicepin="1" c_origin="420,-835" id="gge772" c_rotation="180"><circle c_pindot="true" class="pindot" cx="410" cy="-835" r="2" fill="#4F4F4F" stroke="none" /><path d="M 420 -835 h -10" fill="none" stroke="#000000" stroke-width="1"/><text x="425" y="-835" font-family="Verdana" font-size="7pt" fill="#000000" text-anchor="start" display="none"  >INA</text><text x="408" y="-826" font-family="Verdana" font-size="7pt" fill="#000000" text-anchor="end" display="none"  >1</text><circle cx="407" cy="-835" r="3" stroke="#000000" fill="none" stroke-width="1" display="none" /><path d="M 410 -832 L 413 -835 L 410 -838" fill="none" stroke="#000000" stroke-width="1"  display="none" /></g><g c_partid="part_pin" c_etype="pinpart"  c_show="show"  c_elec="0" c_spicepin="2" c_origin="420,-815" id="gge779" c_rotation="180"><circle c_pindot="true" class="pindot" cx="410" cy="-815" r="2" fill="#4F4F4F" stroke="none" /><path d="M 420 -815 h -10" fill="none" stroke="#000000" stroke-width="1"/><text x="425" y="-815" font-family="Verdana" font-size="7pt" fill="#000000" text-anchor="start" display="none"  >INB</text><text x="408" y="-806" font-family="Verdana" font-size="7pt" fill="#000000" text-anchor="end" display="none"  >2</text><circle cx="407" cy="-815" r="3" stroke="#000000" fill="none" stroke-width="1" display="none" /><path d="M 410 -812 L 413 -815 L 410 -818" fill="none" stroke="#000000" stroke-width="1"  display="none" /></g><g c_partid="part_pin" c_etype="pinpart"  c_show="show"  c_elec="0" c_spicepin="5" c_origin="470,-825" id="gge786" c_rotation="0"><circle c_pindot="true" class="pindot" cx="470" cy="-825" r="2" fill="#4F4F4F" stroke="none" /><path d="M 470 -825 h -10" fill="none" stroke="#000000" stroke-width="1"/><text x="455" y="-825" font-family="Verdana" font-size="7pt" fill="#000000" text-anchor="end" display="none"  >OUT</text><text x="472" y="-834" font-family="Verdana" font-size="7pt" fill="#000000" text-anchor="start" display="none"  >5</text><circle cx="463" cy="-825" r="3" stroke="#000000" fill="none" stroke-width="1" display="none" /><path d="M 460 -828 L 457 -825 L 460 -822" fill="none" stroke="#000000" stroke-width="1"  display="none" /></g><g c_partid="part_pin" c_etype="pinpart"  c_show="none" display="none" c_elec="0" c_spicepin="3" c_origin="440,-845" id="gge793" c_rotation="90"><circle c_pindot="true" class="pindot" cx="440" cy="-845" r="2" fill="#4F4F4F" stroke="none" /><path d="M 440 -845 v 5" fill="none" stroke="#000000" stroke-width="1"/><text x="443" y="-838" font-family="Verdana" font-size="7pt" fill="#000000" text-anchor="end" display="none" transform="rotate(270,443,-838)" >VDD</text><text x="439" y="-845" font-family="Verdana" font-size="7pt" fill="#000000" text-anchor="start" display="none" transform="rotate(270,439,-845)" >3</text><circle cx="440" cy="-843" r="3" stroke="#000000" fill="none" stroke-width="1" display="none" /><path d="M 437 -840 L 440 -837 L 443 -840" fill="none" stroke="#000000" stroke-width="1"  display="none" /></g><g c_partid="part_pin" c_etype="pinpart"  c_show="none" display="none" c_elec="0" c_spicepin="4" c_origin="440,-805" id="gge800" c_rotation="270"><circle c_pindot="true" class="pindot" cx="440" cy="-805" r="2" fill="#4F4F4F" stroke="none" /><path d="M 440 -805 v -5" fill="none" stroke="#000000" stroke-width="1"/><text x="443" y="-812" font-family="Verdana" font-size="7pt" fill="#000000" text-anchor="start" display="none" transform="rotate(270,443,-812)" >GND</text><text x="439" y="-805" font-family="Verdana" font-size="7pt" fill="#000000" text-anchor="end" display="none" transform="rotate(270,439,-805)" >4</text><circle cx="440" cy="-807" r="3" stroke="#000000" fill="none" stroke-width="1" display="none" /><path d="M 443 -810 L 440 -813 L 437 -810" fill="none" stroke="#000000" stroke-width="1"  display="none" /></g><polyline points="420 -815 423 -815" stroke="#000000" id="gge807" stroke-width="1"   fill="none" stroke-linecap="round" /><path d="M 418.875 -840.809 A 16 19 0 0 1 418.875 -809.191" id="gge808"   stroke="#000000" stroke-width="1" c_helper_type="arc1" fill="none" /><path d="M 459 -823 C 460 -825 460 -825 459 -827" id="gge809"  stroke="#000000" stroke-width="1"  fill="none" /><polyline points="420 -840 439 -840" stroke="#000000" id="gge810" stroke-width="1"   fill="none" stroke-linecap="round" /><path d="M 458.969 -822.914 A 24 29 0 0 1 439 -810" id="gge811"   stroke="#000000" stroke-width="1" c_helper_type="arc1" fill="none" /><path d="M 439 -840 A 24 29 0 0 1 458.969 -827.086" id="gge812"   stroke="#000000" stroke-width="1" c_helper_type="arc1" fill="none" /><polyline points="420 -810 439 -810" stroke="#000000" id="gge813" stroke-width="1"   fill="none" stroke-linecap="round" /><polyline points="420 -835 423 -835" stroke="#000000" id="gge814" stroke-width="1"   fill="none" stroke-linecap="round" /></g><g c_origin="360,-890" c_para="package``spicePre`X`spiceSymbolName`LOGIC`BOM_Supplier Part``BOM_Supplier``Contributor`EasyEDA`BOM_Manufacturer Part``" c_partid="part_import_gge815" id="gge815" c_shapetype="group" c_etype="pinpart" ><g c_partid="part_annotation" id="gge817" display="none"><text c_note="note_name" x="328" y="-908.8125" fill="#000000" font-family="Arial" font-size="7pt" font-weight="" font-style="" dominant-baseline="" text-anchor="start"  >XOR2EE_US</text></g><g c_partid="part_annotation" id="gge819" display="none"><text c_note="note_pre" x="328" y="-917.81" fill="#000000" font-family="Arial" font-size="7pt" font-weight="" font-style="" dominant-baseline="" text-anchor="start"  >U5</text></g><g c_partid="part_pin" c_etype="pinpart"  c_show="show"  c_elec="0" c_spicepin="5" c_origin="390,-890" id="gge821" c_rotation="0"><circle c_pindot="true" class="pindot" cx="390" cy="-890" r="2" fill="#4F4F4F" stroke="none" /><path d="M 390 -890 h -10" fill="none" stroke="#000000" stroke-width="1"/><text x="375" y="-890" font-family="Verdana" font-size="7pt" fill="#000000" text-anchor="end" display="none"  >OUT</text><text x="392" y="-899" font-family="Verdana" font-size="7pt" fill="#000000" text-anchor="start" display="none"  >5</text><circle cx="383" cy="-890" r="3" stroke="#000000" fill="none" stroke-width="1" display="none" /><path d="M 380 -893 L 377 -890 L 380 -887" fill="none" stroke="#000000" stroke-width="1"  display="none" /></g><polyline points="340 -880 343 -880" stroke="#000000" id="gge828" stroke-width="1"   fill="none" stroke-linecap="round" /><path d="M 359 -905 A 24 29 0 0 1 378.969 -892.086" id="gge829"   stroke="#000000" stroke-width="1" c_helper_type="arc1" fill="none" /><path d="M 339.3 -905.461 A 16 19 0 0 1 339.3 -874.539" id="gge830"   stroke="#000000" stroke-width="1" c_helper_type="arc1" fill="none" /><polyline points="344 -875 359 -875" stroke="#000000" id="gge831" stroke-width="1"   fill="none" stroke-linecap="round" /><path d="M 342.875 -905.809 A 16 19 0 0 1 342.875 -874.191" id="gge832"   stroke="#000000" stroke-width="1" c_helper_type="arc1" fill="none" /><path d="M 379 -888 C 380 -890 380 -890 379 -892" id="gge833"  stroke="#000000" stroke-width="1"  fill="none" /><g c_partid="part_pin" c_etype="pinpart"  c_show="show"  c_elec="0" c_spicepin="1" c_origin="340,-900" id="gge834" c_rotation="180"><circle c_pindot="true" class="pindot" cx="330" cy="-900" r="2" fill="#4F4F4F" stroke="none" /><path d="M 340 -900 h -10" fill="none" stroke="#000000" stroke-width="1"/><text x="345" y="-900" font-family="Verdana" font-size="7pt" fill="#000000" text-anchor="start" display="none"  >INA</text><text x="328" y="-891" font-family="Verdana" font-size="7pt" fill="#000000" text-anchor="end" display="none"  >1 </text><circle cx="327" cy="-900" r="3" stroke="#000000" fill="none" stroke-width="1" display="none" /><path d="M 330 -897 L 333 -900 L 330 -903" fill="none" stroke="#000000" stroke-width="1"  display="none" /></g><g c_partid="part_pin" c_etype="pinpart"  c_show="show"  c_elec="0" c_spicepin="2" c_origin="340,-880" id="gge841" c_rotation="180"><circle c_pindot="true" class="pindot" cx="330" cy="-880" r="2" fill="#4F4F4F" stroke="none" /><path d="M 340 -880 h -10" fill="none" stroke="#000000" stroke-width="1"/><text x="345" y="-880" font-family="Verdana" font-size="7pt" fill="#000000" text-anchor="start" display="none"  >INB</text><text x="328" y="-871" font-family="Verdana" font-size="7pt" fill="#000000" text-anchor="end" display="none"  >2 </text><circle cx="327" cy="-880" r="3" stroke="#000000" fill="none" stroke-width="1" display="none" /><path d="M 330 -877 L 333 -880 L 330 -883" fill="none" stroke="#000000" stroke-width="1"  display="none" /></g><g c_partid="part_pin" c_etype="pinpart"  c_show="none" display="none" c_elec="0" c_spicepin="3" c_origin="360,-910" id="gge848" c_rotation="90"><circle c_pindot="true" class="pindot" cx="360" cy="-910" r="2" fill="#4F4F4F" stroke="none" /><path d="M 360 -910 v 5" fill="none" stroke="#000000" stroke-width="1"/><text x="363" y="-903" font-family="Verdana" font-size="7pt" fill="#000000" text-anchor="end" display="none" transform="rotate(270,363,-903)" >VDD</text><text x="359" y="-910" font-family="Verdana" font-size="7pt" fill="#000000" text-anchor="start" display="none" transform="rotate(270,359,-910)" >3</text><circle cx="360" cy="-908" r="3" stroke="#000000" fill="none" stroke-width="1" display="none" /><path d="M 357 -905 L 360 -902 L 363 -905" fill="none" stroke="#000000" stroke-width="1"  display="none" /></g><g c_partid="part_pin" c_etype="pinpart"  c_show="none" display="none" c_elec="0" c_spicepin="4" c_origin="360,-870" id="gge855" c_rotation="270"><circle c_pindot="true" class="pindot" cx="360" cy="-870" r="2" fill="#4F4F4F" stroke="none" /><path d="M 360 -870 v -5" fill="none" stroke="#000000" stroke-width="1"/><text x="363" y="-877" font-family="Verdana" font-size="7pt" fill="#000000" text-anchor="start" display="none" transform="rotate(270,363,-877)" >GND</text><text x="359" y="-870" font-family="Verdana" font-size="7pt" fill="#000000" text-anchor="end" display="none" transform="rotate(270,359,-870)" >4</text><circle cx="360" cy="-872" r="3" stroke="#000000" fill="none" stroke-width="1" display="none" /><path d="M 363 -875 L 360 -878 L 357 -875" fill="none" stroke="#000000" stroke-width="1"  display="none" /></g><path d="M 378.969 -887.914 A 24 29 0 0 1 359 -875" id="gge862"   stroke="#000000" stroke-width="1" c_helper_type="arc1" fill="none" /><polyline points="344 -905 359 -905" stroke="#000000" id="gge863" stroke-width="1"   fill="none" stroke-linecap="round" /><polyline points="340 -900 343 -900" stroke="#000000" id="gge864" stroke-width="1"   fill="none" stroke-linecap="round" /></g><g c_partid="part_annotation" id="gge865" c_origin="495,-820" c_shapetype="group" c_etype="pinpart"><text x="495" y="-820" fill="#000000" font-family="Verdana" font-size="9pt" font-weight="undefined" font-style="undefined" dominant-baseline="" text-anchor="start" type="comment"  >C_out</text></g><g c_origin="360,-785" c_para="package``spicePre`X`spiceSymbolName`LOGIC`BOM_Supplier Part``BOM_Supplier``Contributor`EasyEDA`BOM_Manufacturer Part``" c_partid="part_import_gge867" id="gge867" c_shapetype="group" c_etype="pinpart" ><g c_partid="part_annotation" id="gge869" display="none"><text c_note="note_name" x="328" y="-802.984375" fill="#000000" font-family="Arial" font-size="7pt" font-weight="" font-style="" dominant-baseline="" text-anchor="start"  >AND2EE_US</text></g><g c_partid="part_annotation" id="gge871" display="none"><text c_note="note_pre" x="328" y="-812" fill="#000000" font-family="Arial" font-size="7pt" font-weight="" font-style="" dominant-baseline="" text-anchor="start"  >U6</text></g><g c_partid="part_pin" c_etype="pinpart"  c_show="show"  c_elec="0" c_spicepin="5" c_origin="390,-785" id="gge873" c_rotation="0"><circle c_pindot="true" class="pindot" cx="390" cy="-785" r="2" fill="#4F4F4F" stroke="none" /><path d="M 390 -785 h -10" fill="none" stroke="#000000" stroke-width="1"/><text x="375" y="-785" font-family="Verdana" font-size="7pt" fill="#000000" text-anchor="end" display="none"  >OUT</text><text x="392" y="-794" font-family="Verdana" font-size="7pt" fill="#000000" text-anchor="start" display="none"  >5</text><circle cx="383" cy="-785" r="3" stroke="#000000" fill="none" stroke-width="1" display="none" /><path d="M 380 -788 L 377 -785 L 380 -782" fill="none" stroke="#000000" stroke-width="1"  display="none" /></g><polyline points="340 -800 340 -770" stroke="#000000" id="gge880" stroke-width="1"   fill="none" stroke-linecap="round" /><polyline points="340 -770 365 -770" stroke="#000000" id="gge881" stroke-width="1"   fill="none" stroke-linecap="round" /><path d="M 365 -800 A 15 15 0 0 1 365 -770" id="gge882"   stroke="#000000" stroke-width="1" c_helper_type="arc1" fill="none" /><polyline points="340 -800 365 -800" stroke="#000000" id="gge883" stroke-width="1"   fill="none" stroke-linecap="round" /><g c_partid="part_pin" c_etype="pinpart"  c_show="show"  c_elec="0" c_spicepin="1" c_origin="340,-795" id="gge884" c_rotation="180"><circle c_pindot="true" class="pindot" cx="330" cy="-795" r="2" fill="#4F4F4F" stroke="none" /><path d="M 340 -795 h -10" fill="none" stroke="#000000" stroke-width="1"/><text x="345" y="-795" font-family="Verdana" font-size="7pt" fill="#000000" text-anchor="start" display="none"  >INA</text><text x="328" y="-786" font-family="Verdana" font-size="7pt" fill="#000000" text-anchor="end" display="none"  >1</text><circle cx="327" cy="-795" r="3" stroke="#000000" fill="none" stroke-width="1" display="none" /><path d="M 330 -792 L 333 -795 L 330 -798" fill="none" stroke="#000000" stroke-width="1"  display="none" /></g><g c_partid="part_pin" c_etype="pinpart"  c_show="show"  c_elec="0" c_spicepin="2" c_origin="340,-775" id="gge891" c_rotation="180"><circle c_pindot="true" class="pindot" cx="330" cy="-775" r="2" fill="#4F4F4F" stroke="none" /><path d="M 340 -775 h -10" fill="none" stroke="#000000" stroke-width="1"/><text x="345" y="-775" font-family="Verdana" font-size="7pt" fill="#000000" text-anchor="start" display="none"  >INB</text><text x="328" y="-766" font-family="Verdana" font-size="7pt" fill="#000000" text-anchor="end" display="none"  >2</text><circle cx="327" cy="-775" r="3" stroke="#000000" fill="none" stroke-width="1" display="none" /><path d="M 330 -772 L 333 -775 L 330 -778" fill="none" stroke="#000000" stroke-width="1"  display="none" /></g><g c_partid="part_pin" c_etype="pinpart"  c_show="none" display="none" c_elec="0" c_spicepin="3" c_origin="360,-805" id="gge898" c_rotation="90"><circle c_pindot="true" class="pindot" cx="360" cy="-805" r="2" fill="#4F4F4F" stroke="none" /><path d="M 360 -805 v 5" fill="none" stroke="#000000" stroke-width="1"/><text x="363" y="-798" font-family="Verdana" font-size="7pt" fill="#000000" text-anchor="end" display="none" transform="rotate(270,363,-798)" >VDD</text><text x="359" y="-805" font-family="Verdana" font-size="7pt" fill="#000000" text-anchor="start" display="none" transform="rotate(270,359,-805)" >3</text><circle cx="360" cy="-803" r="3" stroke="#000000" fill="none" stroke-width="1" display="none" /><path d="M 357 -800 L 360 -797 L 363 -800" fill="none" stroke="#000000" stroke-width="1"  display="none" /></g><g c_partid="part_pin" c_etype="pinpart"  c_show="none" display="none" c_elec="0" c_spicepin="4" c_origin="360,-765" id="gge905" c_rotation="270"><circle c_pindot="true" class="pindot" cx="360" cy="-765" r="2" fill="#4F4F4F" stroke="none" /><path d="M 360 -765 v -5" fill="none" stroke="#000000" stroke-width="1"/><text x="363" y="-772" font-family="Verdana" font-size="7pt" fill="#000000" text-anchor="start" display="none" transform="rotate(270,363,-772)" >GND</text><text x="359" y="-765" font-family="Verdana" font-size="7pt" fill="#000000" text-anchor="end" display="none" transform="rotate(270,359,-765)" >4</text><circle cx="360" cy="-767" r="3" stroke="#000000" fill="none" stroke-width="1" display="none" /><path d="M 363 -770 L 360 -773 L 357 -770" fill="none" stroke="#000000" stroke-width="1"  display="none" /></g></g><g c_origin="360,-835" c_para="package``spicePre`X`spiceSymbolName`LOGIC`BOM_Supplier Part``BOM_Supplier``Contributor`EasyEDA`BOM_Manufacturer Part``" c_partid="part_import_gge912" id="gge912" c_shapetype="group" c_etype="pinpart" ><g c_partid="part_annotation" id="gge914" display="none"><text c_note="note_name" x="328" y="-852.984375" fill="#000000" font-family="Arial" font-size="7pt" font-weight="" font-style="" dominant-baseline="" text-anchor="start"  >AND2EE_US</text></g><g c_partid="part_annotation" id="gge916" display="none"><text c_note="note_pre" x="328" y="-862" fill="#000000" font-family="Arial" font-size="7pt" font-weight="" font-style="" dominant-baseline="" text-anchor="start"  >U9</text></g><g c_partid="part_pin" c_etype="pinpart"  c_show="show"  c_elec="0" c_spicepin="5" c_origin="390,-835" id="gge918" c_rotation="0"><circle c_pindot="true" class="pindot" cx="390" cy="-835" r="2" fill="#4F4F4F" stroke="none" /><path d="M 390 -835 h -10" fill="none" stroke="#000000" stroke-width="1"/><text x="375" y="-835" font-family="Verdana" font-size="7pt" fill="#000000" text-anchor="end" display="none"  >OUT</text><text x="392" y="-844" font-family="Verdana" font-size="7pt" fill="#000000" text-anchor="start" display="none"  >5</text><circle cx="383" cy="-835" r="3" stroke="#000000" fill="none" stroke-width="1" display="none" /><path d="M 380 -838 L 377 -835 L 380 -832" fill="none" stroke="#000000" stroke-width="1"  display="none" /></g><polyline points="340 -850 340 -820" stroke="#000000" id="gge925" stroke-width="1"   fill="none" stroke-linecap="round" /><polyline points="340 -820 365 -820" stroke="#000000" id="gge926" stroke-width="1"   fill="none" stroke-linecap="round" /><path d="M 365 -850 A 15 15 0 0 1 365 -820" id="gge927"   stroke="#000000" stroke-width="1" c_helper_type="arc1" fill="none" /><polyline points="340 -850 365 -850" stroke="#000000" id="gge928" stroke-width="1"   fill="none" stroke-linecap="round" /><g c_partid="part_pin" c_etype="pinpart"  c_show="show"  c_elec="0" c_spicepin="1" c_origin="340,-845" id="gge929" c_rotation="180"><circle c_pindot="true" class="pindot" cx="330" cy="-845" r="2" fill="#4F4F4F" stroke="none" /><path d="M 340 -845 h -10" fill="none" stroke="#000000" stroke-width="1"/><text x="345" y="-845" font-family="Verdana" font-size="7pt" fill="#000000" text-anchor="start" display="none"  >INA</text><text x="328" y="-836" font-family="Verdana" font-size="7pt" fill="#000000" text-anchor="end" display="none"  >1</text><circle cx="327" cy="-845" r="3" stroke="#000000" fill="none" stroke-width="1" display="none" /><path d="M 330 -842 L 333 -845 L 330 -848" fill="none" stroke="#000000" stroke-width="1"  display="none" /></g><g c_partid="part_pin" c_etype="pinpart"  c_show="show"  c_elec="0" c_spicepin="2" c_origin="340,-825" id="gge936" c_rotation="180"><circle c_pindot="true" class="pindot" cx="330" cy="-825" r="2" fill="#4F4F4F" stroke="none" /><path d="M 340 -825 h -10" fill="none" stroke="#000000" stroke-width="1"/><text x="345" y="-825" font-family="Verdana" font-size="7pt" fill="#000000" text-anchor="start" display="none"  >INB</text><text x="328" y="-816" font-family="Verdana" font-size="7pt" fill="#000000" text-anchor="end" display="none"  >2</text><circle cx="327" cy="-825" r="3" stroke="#000000" fill="none" stroke-width="1" display="none" /><path d="M 330 -822 L 333 -825 L 330 -828" fill="none" stroke="#000000" stroke-width="1"  display="none" /></g><g c_partid="part_pin" c_etype="pinpart"  c_show="none" display="none" c_elec="0" c_spicepin="3" c_origin="360,-855" id="gge943" c_rotation="90"><circle c_pindot="true" class="pindot" cx="360" cy="-855" r="2" fill="#4F4F4F" stroke="none" /><path d="M 360 -855 v 5" fill="none" stroke="#000000" stroke-width="1"/><text x="363" y="-848" font-family="Verdana" font-size="7pt" fill="#000000" text-anchor="end" display="none" transform="rotate(270,363,-848)" >VDD</text><text x="359" y="-855" font-family="Verdana" font-size="7pt" fill="#000000" text-anchor="start" display="none" transform="rotate(270,359,-855)" >3</text><circle cx="360" cy="-853" r="3" stroke="#000000" fill="none" stroke-width="1" display="none" /><path d="M 357 -850 L 360 -847 L 363 -850" fill="none" stroke="#000000" stroke-width="1"  display="none" /></g><g c_partid="part_pin" c_etype="pinpart"  c_show="none" display="none" c_elec="0" c_spicepin="4" c_origin="360,-815" id="gge950" c_rotation="270"><circle c_pindot="true" class="pindot" cx="360" cy="-815" r="2" fill="#4F4F4F" stroke="none" /><path d="M 360 -815 v -5" fill="none" stroke="#000000" stroke-width="1"/><text x="363" y="-822" font-family="Verdana" font-size="7pt" fill="#000000" text-anchor="start" display="none" transform="rotate(270,363,-822)" >GND</text><text x="359" y="-815" font-family="Verdana" font-size="7pt" fill="#000000" text-anchor="end" display="none" transform="rotate(270,359,-815)" >4</text><circle cx="360" cy="-817" r="3" stroke="#000000" fill="none" stroke-width="1" display="none" /><path d="M 363 -820 L 360 -823 L 357 -820" fill="none" stroke="#000000" stroke-width="1"  display="none" /></g></g><g c_partid="part_annotation" id="gge957" c_origin="495,-885" c_shapetype="group" c_etype="pinpart"><text x="495" y="-885" fill="#000000" font-family="Verdana" font-size="9pt" font-weight="undefined" font-style="undefined" dominant-baseline="" text-anchor="start" type="comment"  >S</text></g><g c_partid="part_junction" c_etype="pinpart" c_origin="210,-890" id="gge695" c_shapetype="group"><circle c_pindot="true" class="pindot" cx="210" cy="-890" r="2" fill="#4F4F4F" stroke="none"/><circle cx="210" cy="-890" r="2.5" fill="#000000" stroke-width="1"/></g><g c_partid="part_junction" c_etype="pinpart" c_origin="285,-860" id="gge692" c_shapetype="group"><circle c_pindot="true" class="pindot" cx="285" cy="-860" r="2" fill="#4F4F4F" stroke="none"/><circle cx="285" cy="-860" r="2.5" fill="#000000" stroke-width="1"/></g><g c_partid="part_junction" c_etype="pinpart" c_origin="305,-900" id="gge689" c_shapetype="group"><circle c_pindot="true" class="pindot" cx="305" cy="-900" r="2" fill="#4F4F4F" stroke="none"/><circle cx="305" cy="-900" r="2.5" fill="#000000" stroke-width="1"/></g><g c_partid="part_junction" c_etype="pinpart" c_origin="230,-910" id="gge686" c_shapetype="group"><circle c_pindot="true" class="pindot" cx="230" cy="-910" r="2" fill="#4F4F4F" stroke="none"/><circle cx="230" cy="-910" r="2.5" fill="#000000" stroke-width="1"/></g></g></svg>