<svg xmlns="http://www.w3.org/2000/svg" xmlns:xlink="http://www.w3.org/1999/xlink" width="356.1" height="118" viewBox="208.1 -648 356.1 118"><title></title><style type="text/css">
#g1 circle.pindot {fill: none;stroke: none;}#g1 rect, #g1 circle, #g1 ellipse, #g1 polyline, #g1 line, #g1 polygon, #g1 path {shape-rendering: crispEdges;}path, polyline, polygon {stroke-linejoin:round;}
rect, circle, ellipse, polyline, line, polygon, path {shape-rendering:crispEdges;}
</style>
<rect x="208.1" y="-648" width="356.1" height="118" fill="#FFFFFF" stroke="none"/><g id="g1" c_spiceCmd="null" c_para="Prefix Start`1`" importFlag="0" c_portOfADImportHack="" c_transformList="" xmlns="http://www.w3.org/2000/svg"><g c_partid="part_annotation" id="gge92" c_origin="545,-605" c_shapetype="group" c_etype="pinpart"><text x="545" y="-605" fill="#000000" font-family="Verdana" font-size="9pt" font-weight="undefined" font-style="undefined" dominant-baseline="" text-anchor="start" type="comment"  >X</text></g><g c_origin="410,-555" c_para="package``spicePre`X`spiceSymbolName`LOGIC`BOM_Supplier Part``BOM_Supplier``Contributor`EasyEDA`BOM_Manufacturer Part``" c_partid="part_import_gge94" id="gge94" c_shapetype="group" c_etype="pinpart" ><g c_partid="part_annotation" id="gge96" display="none"><text c_note="note_name" x="378" y="-572.984375" fill="#000000" font-family="Arial" font-size="7pt" font-weight="" font-style="" dominant-baseline="" text-anchor="start"  >AND2EE_US</text></g><g c_partid="part_annotation" id="gge98" display="none"><text c_note="note_pre" x="378" y="-582" fill="#000000" font-family="Arial" font-size="7pt" font-weight="" font-style="" dominant-baseline="" text-anchor="start"  >U10</text></g><g c_partid="part_pin" c_etype="pinpart"  c_show="show"  c_elec="0" c_spicepin="5" c_origin="440,-555" id="gge100" c_rotation="0"><circle c_pindot="true" class="pindot" cx="440" cy="-555" r="2" fill="#4F4F4F" stroke="none" /><path d="M 440 -555 h -10" fill="none" stroke="#000000" stroke-width="1"/><text x="425" y="-555" font-family="Verdana" font-size="7pt" fill="#000000" text-anchor="end" display="none"  >OUT</text><text x="442" y="-564" font-family="Verdana" font-size="7pt" fill="#000000" text-anchor="start" display="none"  >5</text><circle cx="433" cy="-555" r="3" stroke="#000000" fill="none" stroke-width="1" display="none" /><path d="M 430 -558 L 427 -555 L 430 -552" fill="none" stroke="#000000" stroke-width="1"  display="none" /></g><polyline points="390 -570 390 -540" stroke="#000000" id="gge107" stroke-width="1"   fill="none" stroke-linecap="round" /><polyline points="390 -540 415 -540" stroke="#000000" id="gge108" stroke-width="1"   fill="none" stroke-linecap="round" /><path d="M 415 -570 A 15 15 0 0 1 415 -540" id="gge109"   stroke="#000000" stroke-width="1" c_helper_type="arc1" fill="none" /><polyline points="390 -570 415 -570" stroke="#000000" id="gge110" stroke-width="1"   fill="none" stroke-linecap="round" /><g c_partid="part_pin" c_etype="pinpart"  c_show="show"  c_elec="0" c_spicepin="1" c_origin="390,-565" id="gge111" c_rotation="180"><circle c_pindot="true" class="pindot" cx="380" cy="-565" r="2" fill="#4F4F4F" stroke="none" /><path d="M 390 -565 h -10" fill="none" stroke="#000000" stroke-width="1"/><text x="395" y="-565" font-family="Verdana" font-size="7pt" fill="#000000" text-anchor="start" display="none"  >INA</text><text x="378" y="-556" font-family="Verdana" font-size="7pt" fill="#000000" text-anchor="end" display="none"  >1</text><circle cx="377" cy="-565" r="3" stroke="#000000" fill="none" stroke-width="1" display="none" /><path d="M 380 -562 L 383 -565 L 380 -568" fill="none" stroke="#000000" stroke-width="1"  display="none" /></g><g c_partid="part_pin" c_etype="pinpart"  c_show="show"  c_elec="0" c_spicepin="2" c_origin="390,-545" id="gge118" c_rotation="180"><circle c_pindot="true" class="pindot" cx="380" cy="-545" r="2" fill="#4F4F4F" stroke="none" /><path d="M 390 -545 h -10" fill="none" stroke="#000000" stroke-width="1"/><text x="395" y="-545" font-family="Verdana" font-size="7pt" fill="#000000" text-anchor="start" display="none"  >INB</text><text x="378" y="-536" font-family="Verdana" font-size="7pt" fill="#000000" text-anchor="end" display="none"  >2</text><circle cx="377" cy="-545" r="3" stroke="#000000" fill="none" stroke-width="1" display="none" /><path d="M 380 -542 L 383 -545 L 380 -548" fill="none" stroke="#000000" stroke-width="1"  display="none" /></g><g c_partid="part_pin" c_etype="pinpart"  c_show="none" display="none" c_elec="0" c_spicepin="3" c_origin="410,-575" id="gge125" c_rotation="90"><circle c_pindot="true" class="pindot" cx="410" cy="-575" r="2" fill="#4F4F4F" stroke="none" /><path d="M 410 -575 v 5" fill="none" stroke="#000000" stroke-width="1"/><text x="413" y="-568" font-family="Verdana" font-size="7pt" fill="#000000" text-anchor="end" display="none" transform="rotate(270,413,-568)" >VDD</text><text x="409" y="-575" font-family="Verdana" font-size="7pt" fill="#000000" text-anchor="start" display="none" transform="rotate(270,409,-575)" >3</text><circle cx="410" cy="-573" r="3" stroke="#000000" fill="none" stroke-width="1" display="none" /><path d="M 407 -570 L 410 -567 L 413 -570" fill="none" stroke="#000000" stroke-width="1"  display="none" /></g><g c_partid="part_pin" c_etype="pinpart"  c_show="none" display="none" c_elec="0" c_spicepin="4" c_origin="410,-535" id="gge132" c_rotation="270"><circle c_pindot="true" class="pindot" cx="410" cy="-535" r="2" fill="#4F4F4F" stroke="none" /><path d="M 410 -535 v -5" fill="none" stroke="#000000" stroke-width="1"/><text x="413" y="-542" font-family="Verdana" font-size="7pt" fill="#000000" text-anchor="start" display="none" transform="rotate(270,413,-542)" >GND</text><text x="409" y="-535" font-family="Verdana" font-size="7pt" fill="#000000" text-anchor="end" display="none" transform="rotate(270,409,-535)" >4</text><circle cx="410" cy="-537" r="3" stroke="#000000" fill="none" stroke-width="1" display="none" /><path d="M 413 -540 L 410 -543 L 407 -540" fill="none" stroke="#000000" stroke-width="1"  display="none" /></g></g><g c_origin="410,-610" c_para="package``spicePre`X`spiceSymbolName`LOGIC`BOM_Supplier Part``BOM_Supplier``Contributor`EasyEDA`BOM_Manufacturer Part``" c_partid="part_import_gge184" id="gge184" c_shapetype="group" c_etype="pinpart" ><g c_partid="part_annotation" id="gge186" display="none"><text c_note="note_name" x="378" y="-628.8125" fill="#000000" font-family="Arial" font-size="7pt" font-weight="" font-style="" dominant-baseline="" text-anchor="start"  >XOR2EE_US</text></g><g c_partid="part_annotation" id="gge188" display="none"><text c_note="note_pre" x="378" y="-637.81" fill="#000000" font-family="Arial" font-size="7pt" font-weight="" font-style="" dominant-baseline="" text-anchor="start"  >U7</text></g><g c_partid="part_pin" c_etype="pinpart"  c_show="show"  c_elec="0" c_spicepin="5" c_origin="440,-610" id="gge190" c_rotation="0"><circle c_pindot="true" class="pindot" cx="440" cy="-610" r="2" fill="#4F4F4F" stroke="none" /><path d="M 440 -610 h -10" fill="none" stroke="#000000" stroke-width="1"/><text x="425" y="-610" font-family="Verdana" font-size="7pt" fill="#000000" text-anchor="end" display="none"  >OUT</text><text x="442" y="-619" font-family="Verdana" font-size="7pt" fill="#000000" text-anchor="start" display="none"  >5</text><circle cx="433" cy="-610" r="3" stroke="#000000" fill="none" stroke-width="1" display="none" /><path d="M 430 -613 L 427 -610 L 430 -607" fill="none" stroke="#000000" stroke-width="1"  display="none" /></g><polyline points="390 -600 393 -600" stroke="#000000" id="gge197" stroke-width="1"   fill="none" stroke-linecap="round" /><path d="M 409 -625 A 24 29 0 0 1 428.969 -612.086" id="gge198"   stroke="#000000" stroke-width="1" c_helper_type="arc1" fill="none" /><path d="M 389.3 -625.461 A 16 19 0 0 1 389.3 -594.539" id="gge199"   stroke="#000000" stroke-width="1" c_helper_type="arc1" fill="none" /><polyline points="394 -595 409 -595" stroke="#000000" id="gge200" stroke-width="1"   fill="none" stroke-linecap="round" /><path d="M 392.875 -625.809 A 16 19 0 0 1 392.875 -594.191" id="gge201"   stroke="#000000" stroke-width="1" c_helper_type="arc1" fill="none" /><path d="M 429 -608 C 430 -610 430 -610 429 -612" id="gge202"  stroke="#000000" stroke-width="1"  fill="none" /><g c_partid="part_pin" c_etype="pinpart"  c_show="show"  c_elec="0" c_spicepin="1" c_origin="390,-620" id="gge203" c_rotation="180"><circle c_pindot="true" class="pindot" cx="380" cy="-620" r="2" fill="#4F4F4F" stroke="none" /><path d="M 390 -620 h -10" fill="none" stroke="#000000" stroke-width="1"/><text x="395" y="-620" font-family="Verdana" font-size="7pt" fill="#000000" text-anchor="start" display="none"  >INA</text><text x="378" y="-611" font-family="Verdana" font-size="7pt" fill="#000000" text-anchor="end" display="none"  >1 </text><circle cx="377" cy="-620" r="3" stroke="#000000" fill="none" stroke-width="1" display="none" /><path d="M 380 -617 L 383 -620 L 380 -623" fill="none" stroke="#000000" stroke-width="1"  display="none" /></g><g c_partid="part_pin" c_etype="pinpart"  c_show="show"  c_elec="0" c_spicepin="2" c_origin="390,-600" id="gge210" c_rotation="180"><circle c_pindot="true" class="pindot" cx="380" cy="-600" r="2" fill="#4F4F4F" stroke="none" /><path d="M 390 -600 h -10" fill="none" stroke="#000000" stroke-width="1"/><text x="395" y="-600" font-family="Verdana" font-size="7pt" fill="#000000" text-anchor="start" display="none"  >INB</text><text x="378" y="-591" font-family="Verdana" font-size="7pt" fill="#000000" text-anchor="end" display="none"  >2 </text><circle cx="377" cy="-600" r="3" stroke="#000000" fill="none" stroke-width="1" display="none" /><path d="M 380 -597 L 383 -600 L 380 -603" fill="none" stroke="#000000" stroke-width="1"  display="none" /></g><g c_partid="part_pin" c_etype="pinpart"  c_show="none" display="none" c_elec="0" c_spicepin="3" c_origin="410,-630" id="gge217" c_rotation="90"><circle c_pindot="true" class="pindot" cx="410" cy="-630" r="2" fill="#4F4F4F" stroke="none" /><path d="M 410 -630 v 5" fill="none" stroke="#000000" stroke-width="1"/><text x="413" y="-623" font-family="Verdana" font-size="7pt" fill="#000000" text-anchor="end" display="none" transform="rotate(270,413,-623)" >VDD</text><text x="409" y="-630" font-family="Verdana" font-size="7pt" fill="#000000" text-anchor="start" display="none" transform="rotate(270,409,-630)" >3</text><circle cx="410" cy="-628" r="3" stroke="#000000" fill="none" stroke-width="1" display="none" /><path d="M 407 -625 L 410 -622 L 413 -625" fill="none" stroke="#000000" stroke-width="1"  display="none" /></g><g c_partid="part_pin" c_etype="pinpart"  c_show="none" display="none" c_elec="0" c_spicepin="4" c_origin="410,-590" id="gge224" c_rotation="270"><circle c_pindot="true" class="pindot" cx="410" cy="-590" r="2" fill="#4F4F4F" stroke="none" /><path d="M 410 -590 v -5" fill="none" stroke="#000000" stroke-width="1"/><text x="413" y="-597" font-family="Verdana" font-size="7pt" fill="#000000" text-anchor="start" display="none" transform="rotate(270,413,-597)" >GND</text><text x="409" y="-590" font-family="Verdana" font-size="7pt" fill="#000000" text-anchor="end" display="none" transform="rotate(270,409,-590)" >4</text><circle cx="410" cy="-592" r="3" stroke="#000000" fill="none" stroke-width="1" display="none" /><path d="M 413 -595 L 410 -598 L 407 -595" fill="none" stroke="#000000" stroke-width="1"  display="none" /></g><path d="M 428.969 -607.914 A 24 29 0 0 1 409 -595" id="gge231"   stroke="#000000" stroke-width="1" c_helper_type="arc1" fill="none" /><polyline points="394 -625 409 -625" stroke="#000000" id="gge232" stroke-width="1"   fill="none" stroke-linecap="round" /><polyline points="390 -620 393 -620" stroke="#000000" id="gge233" stroke-width="1"   fill="none" stroke-linecap="round" /></g><g c_origin="315,-620" c_para="package``spicePre`X`spiceSymbolName`LOGIC`BOM_Supplier Part``BOM_Supplier``Contributor`EasyEDA`BOM_Manufacturer Part``" c_partid="part_import_gge234" id="gge234" c_shapetype="group" c_etype="pinpart" ><g c_partid="part_annotation" id="gge236" display="none"><text c_note="note_name" x="283" y="-638.8125" fill="#000000" font-family="Arial" font-size="7pt" font-weight="" font-style="" dominant-baseline="" text-anchor="start"  >XOR2EE_US</text></g><g c_partid="part_annotation" id="gge238" display="none"><text c_note="note_pre" x="283" y="-647.81" fill="#000000" font-family="Arial" font-size="7pt" font-weight="" font-style="" dominant-baseline="" text-anchor="start"  >U4</text></g><g c_partid="part_pin" c_etype="pinpart"  c_show="show"  c_elec="0" c_spicepin="5" c_origin="345,-620" id="gge240" c_rotation="0"><circle c_pindot="true" class="pindot" cx="345" cy="-620" r="2" fill="#4F4F4F" stroke="none" /><path d="M 345 -620 h -10" fill="none" stroke="#000000" stroke-width="1"/><text x="330" y="-620" font-family="Verdana" font-size="7pt" fill="#000000" text-anchor="end" display="none"  >OUT</text><text x="347" y="-629" font-family="Verdana" font-size="7pt" fill="#000000" text-anchor="start" display="none"  >5</text><circle cx="338" cy="-620" r="3" stroke="#000000" fill="none" stroke-width="1" display="none" /><path d="M 335 -623 L 332 -620 L 335 -617" fill="none" stroke="#000000" stroke-width="1"  display="none" /></g><polyline points="295 -610 298 -610" stroke="#000000" id="gge247" stroke-width="1"   fill="none" stroke-linecap="round" /><path d="M 314 -635 A 24 29 0 0 1 333.969 -622.086" id="gge248"   stroke="#000000" stroke-width="1" c_helper_type="arc1" fill="none" /><path d="M 294.3 -635.461 A 16 19 0 0 1 294.3 -604.539" id="gge249"   stroke="#000000" stroke-width="1" c_helper_type="arc1" fill="none" /><polyline points="299 -605 314 -605" stroke="#000000" id="gge250" stroke-width="1"   fill="none" stroke-linecap="round" /><path d="M 297.875 -635.809 A 16 19 0 0 1 297.875 -604.191" id="gge251"   stroke="#000000" stroke-width="1" c_helper_type="arc1" fill="none" /><path d="M 334 -618 C 335 -620 335 -620 334 -622" id="gge252"  stroke="#000000" stroke-width="1"  fill="none" /><g c_partid="part_pin" c_etype="pinpart"  c_show="show"  c_elec="0" c_spicepin="1" c_origin="295,-630" id="gge253" c_rotation="180"><circle c_pindot="true" class="pindot" cx="285" cy="-630" r="2" fill="#4F4F4F" stroke="none" /><path d="M 295 -630 h -10" fill="none" stroke="#000000" stroke-width="1"/><text x="300" y="-630" font-family="Verdana" font-size="7pt" fill="#000000" text-anchor="start" display="none"  >INA</text><text x="283" y="-621" font-family="Verdana" font-size="7pt" fill="#000000" text-anchor="end" display="none"  >1 </text><circle cx="282" cy="-630" r="3" stroke="#000000" fill="none" stroke-width="1" display="none" /><path d="M 285 -627 L 288 -630 L 285 -633" fill="none" stroke="#000000" stroke-width="1"  display="none" /></g><g c_partid="part_pin" c_etype="pinpart"  c_show="show"  c_elec="0" c_spicepin="2" c_origin="295,-610" id="gge260" c_rotation="180"><circle c_pindot="true" class="pindot" cx="285" cy="-610" r="2" fill="#4F4F4F" stroke="none" /><path d="M 295 -610 h -10" fill="none" stroke="#000000" stroke-width="1"/><text x="300" y="-610" font-family="Verdana" font-size="7pt" fill="#000000" text-anchor="start" display="none"  >INB</text><text x="283" y="-601" font-family="Verdana" font-size="7pt" fill="#000000" text-anchor="end" display="none"  >2 </text><circle cx="282" cy="-610" r="3" stroke="#000000" fill="none" stroke-width="1" display="none" /><path d="M 285 -607 L 288 -610 L 285 -613" fill="none" stroke="#000000" stroke-width="1"  display="none" /></g><g c_partid="part_pin" c_etype="pinpart"  c_show="none" display="none" c_elec="0" c_spicepin="3" c_origin="315,-640" id="gge267" c_rotation="90"><circle c_pindot="true" class="pindot" cx="315" cy="-640" r="2" fill="#4F4F4F" stroke="none" /><path d="M 315 -640 v 5" fill="none" stroke="#000000" stroke-width="1"/><text x="318" y="-633" font-family="Verdana" font-size="7pt" fill="#000000" text-anchor="end" display="none" transform="rotate(270,318,-633)" >VDD</text><text x="314" y="-640" font-family="Verdana" font-size="7pt" fill="#000000" text-anchor="start" display="none" transform="rotate(270,314,-640)" >3</text><circle cx="315" cy="-638" r="3" stroke="#000000" fill="none" stroke-width="1" display="none" /><path d="M 312 -635 L 315 -632 L 318 -635" fill="none" stroke="#000000" stroke-width="1"  display="none" /></g><g c_partid="part_pin" c_etype="pinpart"  c_show="none" display="none" c_elec="0" c_spicepin="4" c_origin="315,-600" id="gge274" c_rotation="270"><circle c_pindot="true" class="pindot" cx="315" cy="-600" r="2" fill="#4F4F4F" stroke="none" /><path d="M 315 -600 v -5" fill="none" stroke="#000000" stroke-width="1"/><text x="318" y="-607" font-family="Verdana" font-size="7pt" fill="#000000" text-anchor="start" display="none" transform="rotate(270,318,-607)" >GND</text><text x="314" y="-600" font-family="Verdana" font-size="7pt" fill="#000000" text-anchor="end" display="none" transform="rotate(270,314,-600)" >4</text><circle cx="315" cy="-602" r="3" stroke="#000000" fill="none" stroke-width="1" display="none" /><path d="M 318 -605 L 315 -608 L 312 -605" fill="none" stroke="#000000" stroke-width="1"  display="none" /></g><path d="M 333.969 -617.914 A 24 29 0 0 1 314 -605" id="gge281"   stroke="#000000" stroke-width="1" c_helper_type="arc1" fill="none" /><polyline points="299 -635 314 -635" stroke="#000000" id="gge282" stroke-width="1"   fill="none" stroke-linecap="round" /><polyline points="295 -630 298 -630" stroke="#000000" id="gge283" stroke-width="1"   fill="none" stroke-linecap="round" /></g><g c_partid="part_annotation" id="gge284" c_origin="220,-625" c_shapetype="group" c_etype="pinpart"><text x="220" y="-625" fill="#000000" font-family="Verdana" font-size="9pt" font-weight="undefined" font-style="undefined" dominant-baseline="" text-anchor="start" type="comment"  >A</text></g><g c_partid="part_annotation" id="gge286" c_origin="220,-605" c_shapetype="group" c_etype="pinpart"><text x="220" y="-605" fill="#000000" font-family="Verdana" font-size="9pt" font-weight="undefined" font-style="undefined" dominant-baseline="" text-anchor="start" type="comment"  >B</text></g><g c_partid="part_annotation" id="gge288" c_origin="220,-575" c_shapetype="group" c_etype="pinpart"><text x="220" y="-575" fill="#000000" font-family="Verdana" font-size="9pt" font-weight="undefined" font-style="undefined" dominant-baseline="" text-anchor="start" type="comment"  >C</text></g><polyline c_etype="wire" c_shapetype="line" points="380 -620 345 -620" stroke="#000000" id="gge290" stroke-width="1"   fill="none" stroke-linecap="round" /><polyline c_etype="wire" c_shapetype="line" points="285 -630 240 -630" stroke="#000000" id="gge291" stroke-width="1"   fill="none" stroke-linecap="round" /><polyline c_etype="wire" c_shapetype="line" points="285 -610 240 -610" stroke="#000000" id="gge292" stroke-width="1"   fill="none" stroke-linecap="round" /><polyline c_etype="wire" c_shapetype="line" points="380 -565 355 -565 355 -620" stroke="#000000" id="gge293" stroke-width="1"   fill="none" stroke-linecap="round" /><polyline c_etype="wire" c_shapetype="line" points="380 -600 335 -600 335 -580 240 -580" stroke="#000000" id="gge294" stroke-width="1"   fill="none" stroke-linecap="round" /><polyline c_etype="wire" c_shapetype="line" points="380 -545 335 -545 335 -580" stroke="#000000" id="gge295" stroke-width="1"   fill="none" stroke-linecap="round" /><polyline c_etype="wire" c_shapetype="line" points="460 -555 440 -555" stroke="#000000" id="gge298" stroke-width="1"   fill="none" stroke-linecap="round" /><polyline c_etype="wire" c_shapetype="line" points="440 -610 535 -610" stroke="#000000" id="gge299" stroke-width="1"   fill="none" stroke-linecap="round" /><g c_partid="part_junction" c_etype="pinpart" c_origin="335,-580" id="gge85" c_shapetype="group"><circle c_pindot="true" class="pindot" cx="335" cy="-580" r="2" fill="#4F4F4F" stroke="none"/><circle cx="335" cy="-580" r="2.5" fill="#000000" stroke-width="1"/></g><g c_partid="part_junction" c_etype="pinpart" c_origin="355,-620" id="gge82" c_shapetype="group"><circle c_pindot="true" class="pindot" cx="355" cy="-620" r="2" fill="#4F4F4F" stroke="none"/><circle cx="355" cy="-620" r="2.5" fill="#000000" stroke-width="1"/></g></g></svg>