<svg xmlns="http://www.w3.org/2000/svg" xmlns:xlink="http://www.w3.org/1999/xlink" width="354.3" height="167.1" viewBox="69.3 -627.1 354.3 167.1"><title></title><style type="text/css">
#g1 circle.pindot {fill: none;stroke: none;}#g1 rect, #g1 circle, #g1 ellipse, #g1 polyline, #g1 line, #g1 polygon, #g1 path {shape-rendering: crispEdges;}path, polyline, polygon {stroke-linejoin:round;}
rect, circle, ellipse, polyline, line, polygon, path {shape-rendering:crispEdges;}
</style>
<rect x="69.3" y="-627.1" width="354.3" height="167.1" fill="#FFFFFF" stroke="none"/><g id="g1" c_spiceCmd="null" c_para="Prefix Start`1`" importFlag="0" c_portOfADImportHack="" c_transformList="" xmlns="http://www.w3.org/2000/svg"><g c_partid="part_annotation" id="gge91" c_origin="405,-585" c_shapetype="group" c_etype="pinpart"><text x="405" y="-585" fill="#000000" font-family="Verdana" font-size="9pt" font-weight="undefined" font-style="undefined" dominant-baseline="" text-anchor="start" type="comment"  >X</text></g><g c_origin="270,-535" c_para="package``spicePre`X`spiceSymbolName`LOGIC`BOM_Supplier Part``BOM_Supplier``Contributor`EasyEDA`BOM_Manufacturer Part``" c_partid="part_import_gge101" id="gge101" c_shapetype="group" c_etype="pinpart" ><g c_partid="part_annotation" id="gge103" display="none"><text c_note="note_name" x="238" y="-552.984375" fill="#000000" font-family="Arial" font-size="7pt" font-weight="" font-style="" dominant-baseline="" text-anchor="start"  >AND2EE_US</text></g><g c_partid="part_annotation" id="gge105" display="none"><text c_note="note_pre" x="238" y="-562" fill="#000000" font-family="Arial" font-size="7pt" font-weight="" font-style="" dominant-baseline="" text-anchor="start"  >U10</text></g><g c_partid="part_pin" c_etype="pinpart"  c_show="show"  c_elec="0" c_spicepin="5" c_origin="300,-535" id="gge107" c_rotation="0"><circle c_pindot="true" class="pindot" cx="300" cy="-535" r="2" fill="#4F4F4F" stroke="none" /><path d="M 300 -535 h -10" fill="none" stroke="#000000" stroke-width="1"/><text x="285" y="-535" font-family="Verdana" font-size="7pt" fill="#000000" text-anchor="end" display="none"  >OUT</text><text x="302" y="-544" font-family="Verdana" font-size="7pt" fill="#000000" text-anchor="start" display="none"  >5</text><circle cx="293" cy="-535" r="3" stroke="#000000" fill="none" stroke-width="1" display="none" /><path d="M 290 -538 L 287 -535 L 290 -532" fill="none" stroke="#000000" stroke-width="1"  display="none" /></g><polyline points="250 -550 250 -520" stroke="#000000" id="gge114" stroke-width="1"   fill="none" stroke-linecap="round" /><polyline points="250 -520 275 -520" stroke="#000000" id="gge115" stroke-width="1"   fill="none" stroke-linecap="round" /><path d="M 275 -550 A 15 15 0 0 1 275 -520" id="gge116"   stroke="#000000" stroke-width="1" c_helper_type="arc1" fill="none" /><polyline points="250 -550 275 -550" stroke="#000000" id="gge117" stroke-width="1"   fill="none" stroke-linecap="round" /><g c_partid="part_pin" c_etype="pinpart"  c_show="show"  c_elec="0" c_spicepin="1" c_origin="250,-545" id="gge118" c_rotation="180"><circle c_pindot="true" class="pindot" cx="240" cy="-545" r="2" fill="#4F4F4F" stroke="none" /><path d="M 250 -545 h -10" fill="none" stroke="#000000" stroke-width="1"/><text x="255" y="-545" font-family="Verdana" font-size="7pt" fill="#000000" text-anchor="start" display="none"  >INA</text><text x="238" y="-536" font-family="Verdana" font-size="7pt" fill="#000000" text-anchor="end" display="none"  >1</text><circle cx="237" cy="-545" r="3" stroke="#000000" fill="none" stroke-width="1" display="none" /><path d="M 240 -542 L 243 -545 L 240 -548" fill="none" stroke="#000000" stroke-width="1"  display="none" /></g><g c_partid="part_pin" c_etype="pinpart"  c_show="show"  c_elec="0" c_spicepin="2" c_origin="250,-525" id="gge125" c_rotation="180"><circle c_pindot="true" class="pindot" cx="240" cy="-525" r="2" fill="#4F4F4F" stroke="none" /><path d="M 250 -525 h -10" fill="none" stroke="#000000" stroke-width="1"/><text x="255" y="-525" font-family="Verdana" font-size="7pt" fill="#000000" text-anchor="start" display="none"  >INB</text><text x="238" y="-516" font-family="Verdana" font-size="7pt" fill="#000000" text-anchor="end" display="none"  >2</text><circle cx="237" cy="-525" r="3" stroke="#000000" fill="none" stroke-width="1" display="none" /><path d="M 240 -522 L 243 -525 L 240 -528" fill="none" stroke="#000000" stroke-width="1"  display="none" /></g><g c_partid="part_pin" c_etype="pinpart"  c_show="none" display="none" c_elec="0" c_spicepin="3" c_origin="270,-555" id="gge132" c_rotation="90"><circle c_pindot="true" class="pindot" cx="270" cy="-555" r="2" fill="#4F4F4F" stroke="none" /><path d="M 270 -555 v 5" fill="none" stroke="#000000" stroke-width="1"/><text x="273" y="-548" font-family="Verdana" font-size="7pt" fill="#000000" text-anchor="end" display="none" transform="rotate(270,273,-548)" >VDD</text><text x="269" y="-555" font-family="Verdana" font-size="7pt" fill="#000000" text-anchor="start" display="none" transform="rotate(270,269,-555)" >3</text><circle cx="270" cy="-553" r="3" stroke="#000000" fill="none" stroke-width="1" display="none" /><path d="M 267 -550 L 270 -547 L 273 -550" fill="none" stroke="#000000" stroke-width="1"  display="none" /></g><g c_partid="part_pin" c_etype="pinpart"  c_show="none" display="none" c_elec="0" c_spicepin="4" c_origin="270,-515" id="gge139" c_rotation="270"><circle c_pindot="true" class="pindot" cx="270" cy="-515" r="2" fill="#4F4F4F" stroke="none" /><path d="M 270 -515 v -5" fill="none" stroke="#000000" stroke-width="1"/><text x="273" y="-522" font-family="Verdana" font-size="7pt" fill="#000000" text-anchor="start" display="none" transform="rotate(270,273,-522)" >GND</text><text x="269" y="-515" font-family="Verdana" font-size="7pt" fill="#000000" text-anchor="end" display="none" transform="rotate(270,269,-515)" >4</text><circle cx="270" cy="-517" r="3" stroke="#000000" fill="none" stroke-width="1" display="none" /><path d="M 273 -520 L 270 -523 L 267 -520" fill="none" stroke="#000000" stroke-width="1"  display="none" /></g></g><g c_origin="270,-485" c_para="package``spicePre`X`spiceSymbolName`LOGIC`BOM_Supplier Part``BOM_Supplier``Contributor`EasyEDA`BOM_Manufacturer Part``" c_partid="part_import_gge146" id="gge146" c_shapetype="group" c_etype="pinpart" ><g c_partid="part_annotation" id="gge148" display="none"><text c_note="note_name" x="238" y="-502.984375" fill="#000000" font-family="Arial" font-size="7pt" font-weight="" font-style="" dominant-baseline="" text-anchor="start"  >AND2EE_US</text></g><g c_partid="part_annotation" id="gge150" display="none"><text c_note="note_pre" x="238" y="-512" fill="#000000" font-family="Arial" font-size="7pt" font-weight="" font-style="" dominant-baseline="" text-anchor="start"  >U8</text></g><g c_partid="part_pin" c_etype="pinpart"  c_show="show"  c_elec="0" c_spicepin="5" c_origin="300,-485" id="gge152" c_rotation="0"><circle c_pindot="true" class="pindot" cx="300" cy="-485" r="2" fill="#4F4F4F" stroke="none" /><path d="M 300 -485 h -10" fill="none" stroke="#000000" stroke-width="1"/><text x="285" y="-485" font-family="Verdana" font-size="7pt" fill="#000000" text-anchor="end" display="none"  >OUT</text><text x="302" y="-494" font-family="Verdana" font-size="7pt" fill="#000000" text-anchor="start" display="none"  >5</text><circle cx="293" cy="-485" r="3" stroke="#000000" fill="none" stroke-width="1" display="none" /><path d="M 290 -488 L 287 -485 L 290 -482" fill="none" stroke="#000000" stroke-width="1"  display="none" /></g><polyline points="250 -500 250 -470" stroke="#000000" id="gge159" stroke-width="1"   fill="none" stroke-linecap="round" /><polyline points="250 -470 275 -470" stroke="#000000" id="gge160" stroke-width="1"   fill="none" stroke-linecap="round" /><path d="M 275 -500 A 15 15 0 0 1 275 -470" id="gge161"   stroke="#000000" stroke-width="1" c_helper_type="arc1" fill="none" /><polyline points="250 -500 275 -500" stroke="#000000" id="gge162" stroke-width="1"   fill="none" stroke-linecap="round" /><g c_partid="part_pin" c_etype="pinpart"  c_show="show"  c_elec="0" c_spicepin="1" c_origin="250,-495" id="gge163" c_rotation="180"><circle c_pindot="true" class="pindot" cx="240" cy="-495" r="2" fill="#4F4F4F" stroke="none" /><path d="M 250 -495 h -10" fill="none" stroke="#000000" stroke-width="1"/><text x="255" y="-495" font-family="Verdana" font-size="7pt" fill="#000000" text-anchor="start" display="none"  >INA</text><text x="238" y="-486" font-family="Verdana" font-size="7pt" fill="#000000" text-anchor="end" display="none"  >1</text><circle cx="237" cy="-495" r="3" stroke="#000000" fill="none" stroke-width="1" display="none" /><path d="M 240 -492 L 243 -495 L 240 -498" fill="none" stroke="#000000" stroke-width="1"  display="none" /></g><g c_partid="part_pin" c_etype="pinpart"  c_show="show"  c_elec="0" c_spicepin="2" c_origin="250,-475" id="gge170" c_rotation="180"><circle c_pindot="true" class="pindot" cx="240" cy="-475" r="2" fill="#4F4F4F" stroke="none" /><path d="M 250 -475 h -10" fill="none" stroke="#000000" stroke-width="1"/><text x="255" y="-475" font-family="Verdana" font-size="7pt" fill="#000000" text-anchor="start" display="none"  >INB</text><text x="238" y="-466" font-family="Verdana" font-size="7pt" fill="#000000" text-anchor="end" display="none"  >2</text><circle cx="237" cy="-475" r="3" stroke="#000000" fill="none" stroke-width="1" display="none" /><path d="M 240 -472 L 243 -475 L 240 -478" fill="none" stroke="#000000" stroke-width="1"  display="none" /></g><g c_partid="part_pin" c_etype="pinpart"  c_show="none" display="none" c_elec="0" c_spicepin="3" c_origin="270,-505" id="gge177" c_rotation="90"><circle c_pindot="true" class="pindot" cx="270" cy="-505" r="2" fill="#4F4F4F" stroke="none" /><path d="M 270 -505 v 5" fill="none" stroke="#000000" stroke-width="1"/><text x="273" y="-498" font-family="Verdana" font-size="7pt" fill="#000000" text-anchor="end" display="none" transform="rotate(270,273,-498)" >VDD</text><text x="269" y="-505" font-family="Verdana" font-size="7pt" fill="#000000" text-anchor="start" display="none" transform="rotate(270,269,-505)" >3</text><circle cx="270" cy="-503" r="3" stroke="#000000" fill="none" stroke-width="1" display="none" /><path d="M 267 -500 L 270 -497 L 273 -500" fill="none" stroke="#000000" stroke-width="1"  display="none" /></g><g c_partid="part_pin" c_etype="pinpart"  c_show="none" display="none" c_elec="0" c_spicepin="4" c_origin="270,-465" id="gge184" c_rotation="270"><circle c_pindot="true" class="pindot" cx="270" cy="-465" r="2" fill="#4F4F4F" stroke="none" /><path d="M 270 -465 v -5" fill="none" stroke="#000000" stroke-width="1"/><text x="273" y="-472" font-family="Verdana" font-size="7pt" fill="#000000" text-anchor="start" display="none" transform="rotate(270,273,-472)" >GND</text><text x="269" y="-465" font-family="Verdana" font-size="7pt" fill="#000000" text-anchor="end" display="none" transform="rotate(270,269,-465)" >4</text><circle cx="270" cy="-467" r="3" stroke="#000000" fill="none" stroke-width="1" display="none" /><path d="M 273 -470 L 270 -473 L 267 -470" fill="none" stroke="#000000" stroke-width="1"  display="none" /></g></g><g c_partid="part_annotation" id="gge191" c_origin="405,-520" c_shapetype="group" c_etype="pinpart"><text x="405" y="-520" fill="#000000" font-family="Verdana" font-size="9pt" font-weight="undefined" font-style="undefined" dominant-baseline="" text-anchor="start" type="comment"  >Y</text></g><g c_origin="270,-590" c_para="package``spicePre`X`spiceSymbolName`LOGIC`BOM_Supplier Part``BOM_Supplier``Contributor`EasyEDA`BOM_Manufacturer Part``" c_partid="part_import_gge193" id="gge193" c_shapetype="group" c_etype="pinpart" ><g c_partid="part_annotation" id="gge195" display="none"><text c_note="note_name" x="238" y="-608.8125" fill="#000000" font-family="Arial" font-size="7pt" font-weight="" font-style="" dominant-baseline="" text-anchor="start"  >XOR2EE_US</text></g><g c_partid="part_annotation" id="gge197" display="none"><text c_note="note_pre" x="238" y="-617.81" fill="#000000" font-family="Arial" font-size="7pt" font-weight="" font-style="" dominant-baseline="" text-anchor="start"  >U7</text></g><g c_partid="part_pin" c_etype="pinpart"  c_show="show"  c_elec="0" c_spicepin="5" c_origin="300,-590" id="gge199" c_rotation="0"><circle c_pindot="true" class="pindot" cx="300" cy="-590" r="2" fill="#4F4F4F" stroke="none" /><path d="M 300 -590 h -10" fill="none" stroke="#000000" stroke-width="1"/><text x="285" y="-590" font-family="Verdana" font-size="7pt" fill="#000000" text-anchor="end" display="none"  >OUT</text><text x="302" y="-599" font-family="Verdana" font-size="7pt" fill="#000000" text-anchor="start" display="none"  >5</text><circle cx="293" cy="-590" r="3" stroke="#000000" fill="none" stroke-width="1" display="none" /><path d="M 290 -593 L 287 -590 L 290 -587" fill="none" stroke="#000000" stroke-width="1"  display="none" /></g><polyline points="250 -580 253 -580" stroke="#000000" id="gge206" stroke-width="1"   fill="none" stroke-linecap="round" /><path d="M 269 -605 A 24 29 0 0 1 288.969 -592.086" id="gge207"   stroke="#000000" stroke-width="1" c_helper_type="arc1" fill="none" /><path d="M 249.3 -605.461 A 16 19 0 0 1 249.3 -574.539" id="gge208"   stroke="#000000" stroke-width="1" c_helper_type="arc1" fill="none" /><polyline points="254 -575 269 -575" stroke="#000000" id="gge209" stroke-width="1"   fill="none" stroke-linecap="round" /><path d="M 252.875 -605.809 A 16 19 0 0 1 252.875 -574.191" id="gge210"   stroke="#000000" stroke-width="1" c_helper_type="arc1" fill="none" /><path d="M 289 -588 C 290 -590 290 -590 289 -592" id="gge211"  stroke="#000000" stroke-width="1"  fill="none" /><g c_partid="part_pin" c_etype="pinpart"  c_show="show"  c_elec="0" c_spicepin="1" c_origin="250,-600" id="gge212" c_rotation="180"><circle c_pindot="true" class="pindot" cx="240" cy="-600" r="2" fill="#4F4F4F" stroke="none" /><path d="M 250 -600 h -10" fill="none" stroke="#000000" stroke-width="1"/><text x="255" y="-600" font-family="Verdana" font-size="7pt" fill="#000000" text-anchor="start" display="none"  >INA</text><text x="238" y="-591" font-family="Verdana" font-size="7pt" fill="#000000" text-anchor="end" display="none"  >1 </text><circle cx="237" cy="-600" r="3" stroke="#000000" fill="none" stroke-width="1" display="none" /><path d="M 240 -597 L 243 -600 L 240 -603" fill="none" stroke="#000000" stroke-width="1"  display="none" /></g><g c_partid="part_pin" c_etype="pinpart"  c_show="show"  c_elec="0" c_spicepin="2" c_origin="250,-580" id="gge219" c_rotation="180"><circle c_pindot="true" class="pindot" cx="240" cy="-580" r="2" fill="#4F4F4F" stroke="none" /><path d="M 250 -580 h -10" fill="none" stroke="#000000" stroke-width="1"/><text x="255" y="-580" font-family="Verdana" font-size="7pt" fill="#000000" text-anchor="start" display="none"  >INB</text><text x="238" y="-571" font-family="Verdana" font-size="7pt" fill="#000000" text-anchor="end" display="none"  >2 </text><circle cx="237" cy="-580" r="3" stroke="#000000" fill="none" stroke-width="1" display="none" /><path d="M 240 -577 L 243 -580 L 240 -583" fill="none" stroke="#000000" stroke-width="1"  display="none" /></g><g c_partid="part_pin" c_etype="pinpart"  c_show="none" display="none" c_elec="0" c_spicepin="3" c_origin="270,-610" id="gge226" c_rotation="90"><circle c_pindot="true" class="pindot" cx="270" cy="-610" r="2" fill="#4F4F4F" stroke="none" /><path d="M 270 -610 v 5" fill="none" stroke="#000000" stroke-width="1"/><text x="273" y="-603" font-family="Verdana" font-size="7pt" fill="#000000" text-anchor="end" display="none" transform="rotate(270,273,-603)" >VDD</text><text x="269" y="-610" font-family="Verdana" font-size="7pt" fill="#000000" text-anchor="start" display="none" transform="rotate(270,269,-610)" >3</text><circle cx="270" cy="-608" r="3" stroke="#000000" fill="none" stroke-width="1" display="none" /><path d="M 267 -605 L 270 -602 L 273 -605" fill="none" stroke="#000000" stroke-width="1"  display="none" /></g><g c_partid="part_pin" c_etype="pinpart"  c_show="none" display="none" c_elec="0" c_spicepin="4" c_origin="270,-570" id="gge233" c_rotation="270"><circle c_pindot="true" class="pindot" cx="270" cy="-570" r="2" fill="#4F4F4F" stroke="none" /><path d="M 270 -570 v -5" fill="none" stroke="#000000" stroke-width="1"/><text x="273" y="-577" font-family="Verdana" font-size="7pt" fill="#000000" text-anchor="start" display="none" transform="rotate(270,273,-577)" >GND</text><text x="269" y="-570" font-family="Verdana" font-size="7pt" fill="#000000" text-anchor="end" display="none" transform="rotate(270,269,-570)" >4</text><circle cx="270" cy="-572" r="3" stroke="#000000" fill="none" stroke-width="1" display="none" /><path d="M 273 -575 L 270 -578 L 267 -575" fill="none" stroke="#000000" stroke-width="1"  display="none" /></g><path d="M 288.969 -587.914 A 24 29 0 0 1 269 -575" id="gge240"   stroke="#000000" stroke-width="1" c_helper_type="arc1" fill="none" /><polyline points="254 -605 269 -605" stroke="#000000" id="gge241" stroke-width="1"   fill="none" stroke-linecap="round" /><polyline points="250 -600 253 -600" stroke="#000000" id="gge242" stroke-width="1"   fill="none" stroke-linecap="round" /></g><g c_origin="350,-525" c_para="package``spicePre`X`spiceSymbolName`LOGIC`BOM_Supplier Part``BOM_Supplier``Contributor`EasyEDA`BOM_Manufacturer Part``" c_partid="part_import_gge245" id="gge245" c_shapetype="group" c_etype="pinpart" ><g c_partid="part_annotation" id="gge247" display="none"><text c_note="note_name" x="318" y="-543.796875" fill="#000000" font-family="Arial" font-size="7pt" font-weight="" font-style="" dominant-baseline="" text-anchor="start"  >OR2EE_US</text></g><g c_partid="part_annotation" id="gge249" display="none"><text c_note="note_pre" x="318" y="-552.81" fill="#000000" font-family="Arial" font-size="7pt" font-weight="" font-style="" dominant-baseline="" text-anchor="start"  >U3</text></g><g c_partid="part_pin" c_etype="pinpart"  c_show="show"  c_elec="0" c_spicepin="1" c_origin="330,-535" id="gge251" c_rotation="180"><circle c_pindot="true" class="pindot" cx="320" cy="-535" r="2" fill="#4F4F4F" stroke="none" /><path d="M 330 -535 h -10" fill="none" stroke="#000000" stroke-width="1"/><text x="335" y="-535" font-family="Verdana" font-size="7pt" fill="#000000" text-anchor="start" display="none"  >INA</text><text x="318" y="-526" font-family="Verdana" font-size="7pt" fill="#000000" text-anchor="end" display="none"  >1</text><circle cx="317" cy="-535" r="3" stroke="#000000" fill="none" stroke-width="1" display="none" /><path d="M 320 -532 L 323 -535 L 320 -538" fill="none" stroke="#000000" stroke-width="1"  display="none" /></g><g c_partid="part_pin" c_etype="pinpart"  c_show="show"  c_elec="0" c_spicepin="2" c_origin="330,-515" id="gge258" c_rotation="180"><circle c_pindot="true" class="pindot" cx="320" cy="-515" r="2" fill="#4F4F4F" stroke="none" /><path d="M 330 -515 h -10" fill="none" stroke="#000000" stroke-width="1"/><text x="335" y="-515" font-family="Verdana" font-size="7pt" fill="#000000" text-anchor="start" display="none"  >INB</text><text x="318" y="-506" font-family="Verdana" font-size="7pt" fill="#000000" text-anchor="end" display="none"  >2</text><circle cx="317" cy="-515" r="3" stroke="#000000" fill="none" stroke-width="1" display="none" /><path d="M 320 -512 L 323 -515 L 320 -518" fill="none" stroke="#000000" stroke-width="1"  display="none" /></g><g c_partid="part_pin" c_etype="pinpart"  c_show="show"  c_elec="0" c_spicepin="5" c_origin="380,-525" id="gge265" c_rotation="0"><circle c_pindot="true" class="pindot" cx="380" cy="-525" r="2" fill="#4F4F4F" stroke="none" /><path d="M 380 -525 h -10" fill="none" stroke="#000000" stroke-width="1"/><text x="365" y="-525" font-family="Verdana" font-size="7pt" fill="#000000" text-anchor="end" display="none"  >OUT</text><text x="382" y="-534" font-family="Verdana" font-size="7pt" fill="#000000" text-anchor="start" display="none"  >5</text><circle cx="373" cy="-525" r="3" stroke="#000000" fill="none" stroke-width="1" display="none" /><path d="M 370 -528 L 367 -525 L 370 -522" fill="none" stroke="#000000" stroke-width="1"  display="none" /></g><g c_partid="part_pin" c_etype="pinpart"  c_show="none" display="none" c_elec="0" c_spicepin="3" c_origin="350,-545" id="gge272" c_rotation="90"><circle c_pindot="true" class="pindot" cx="350" cy="-545" r="2" fill="#4F4F4F" stroke="none" /><path d="M 350 -545 v 5" fill="none" stroke="#000000" stroke-width="1"/><text x="353" y="-538" font-family="Verdana" font-size="7pt" fill="#000000" text-anchor="end" display="none" transform="rotate(270,353,-538)" >VDD</text><text x="349" y="-545" font-family="Verdana" font-size="7pt" fill="#000000" text-anchor="start" display="none" transform="rotate(270,349,-545)" >3</text><circle cx="350" cy="-543" r="3" stroke="#000000" fill="none" stroke-width="1" display="none" /><path d="M 347 -540 L 350 -537 L 353 -540" fill="none" stroke="#000000" stroke-width="1"  display="none" /></g><g c_partid="part_pin" c_etype="pinpart"  c_show="none" display="none" c_elec="0" c_spicepin="4" c_origin="350,-505" id="gge279" c_rotation="270"><circle c_pindot="true" class="pindot" cx="350" cy="-505" r="2" fill="#4F4F4F" stroke="none" /><path d="M 350 -505 v -5" fill="none" stroke="#000000" stroke-width="1"/><text x="353" y="-512" font-family="Verdana" font-size="7pt" fill="#000000" text-anchor="start" display="none" transform="rotate(270,353,-512)" >GND</text><text x="349" y="-505" font-family="Verdana" font-size="7pt" fill="#000000" text-anchor="end" display="none" transform="rotate(270,349,-505)" >4</text><circle cx="350" cy="-507" r="3" stroke="#000000" fill="none" stroke-width="1" display="none" /><path d="M 353 -510 L 350 -513 L 347 -510" fill="none" stroke="#000000" stroke-width="1"  display="none" /></g><polyline points="330 -515 333 -515" stroke="#000000" id="gge286" stroke-width="1"   fill="none" stroke-linecap="round" /><path d="M 328.875 -540.809 A 16 19 0 0 1 328.875 -509.191" id="gge287"   stroke="#000000" stroke-width="1" c_helper_type="arc1" fill="none" /><path d="M 369 -523 C 370 -525 370 -525 369 -527" id="gge288"  stroke="#000000" stroke-width="1"  fill="none" /><polyline points="330 -540 349 -540" stroke="#000000" id="gge289" stroke-width="1"   fill="none" stroke-linecap="round" /><path d="M 368.969 -522.914 A 24 29 0 0 1 349 -510" id="gge290"   stroke="#000000" stroke-width="1" c_helper_type="arc1" fill="none" /><path d="M 349 -540 A 24 29 0 0 1 368.969 -527.086" id="gge291"   stroke="#000000" stroke-width="1" c_helper_type="arc1" fill="none" /><polyline points="330 -510 349 -510" stroke="#000000" id="gge292" stroke-width="1"   fill="none" stroke-linecap="round" /><polyline points="330 -535 333 -535" stroke="#000000" id="gge293" stroke-width="1"   fill="none" stroke-linecap="round" /></g><g c_origin="175,-600" c_para="package``spicePre`X`spiceSymbolName`LOGIC`BOM_Supplier Part``BOM_Supplier``Contributor`EasyEDA`BOM_Manufacturer Part``" c_partid="part_import_gge294" id="gge294" c_shapetype="group" c_etype="pinpart" ><g c_partid="part_annotation" id="gge296" display="none"><text c_note="note_name" x="143" y="-618.8125" fill="#000000" font-family="Arial" font-size="7pt" font-weight="" font-style="" dominant-baseline="" text-anchor="start"  >XOR2EE_US</text></g><g c_partid="part_annotation" id="gge298" display="none"><text c_note="note_pre" x="143" y="-627.81" fill="#000000" font-family="Arial" font-size="7pt" font-weight="" font-style="" dominant-baseline="" text-anchor="start"  >U4</text></g><g c_partid="part_pin" c_etype="pinpart"  c_show="show"  c_elec="0" c_spicepin="5" c_origin="205,-600" id="gge300" c_rotation="0"><circle c_pindot="true" class="pindot" cx="205" cy="-600" r="2" fill="#4F4F4F" stroke="none" /><path d="M 205 -600 h -10" fill="none" stroke="#000000" stroke-width="1"/><text x="190" y="-600" font-family="Verdana" font-size="7pt" fill="#000000" text-anchor="end" display="none"  >OUT</text><text x="207" y="-609" font-family="Verdana" font-size="7pt" fill="#000000" text-anchor="start" display="none"  >5</text><circle cx="198" cy="-600" r="3" stroke="#000000" fill="none" stroke-width="1" display="none" /><path d="M 195 -603 L 192 -600 L 195 -597" fill="none" stroke="#000000" stroke-width="1"  display="none" /></g><polyline points="155 -590 158 -590" stroke="#000000" id="gge307" stroke-width="1"   fill="none" stroke-linecap="round" /><path d="M 174 -615 A 24 29 0 0 1 193.969 -602.086" id="gge308"   stroke="#000000" stroke-width="1" c_helper_type="arc1" fill="none" /><path d="M 154.3 -615.461 A 16 19 0 0 1 154.3 -584.539" id="gge309"   stroke="#000000" stroke-width="1" c_helper_type="arc1" fill="none" /><polyline points="159 -585 174 -585" stroke="#000000" id="gge310" stroke-width="1"   fill="none" stroke-linecap="round" /><path d="M 157.875 -615.809 A 16 19 0 0 1 157.875 -584.191" id="gge311"   stroke="#000000" stroke-width="1" c_helper_type="arc1" fill="none" /><path d="M 194 -598 C 195 -600 195 -600 194 -602" id="gge312"  stroke="#000000" stroke-width="1"  fill="none" /><g c_partid="part_pin" c_etype="pinpart"  c_show="show"  c_elec="0" c_spicepin="1" c_origin="155,-610" id="gge313" c_rotation="180"><circle c_pindot="true" class="pindot" cx="145" cy="-610" r="2" fill="#4F4F4F" stroke="none" /><path d="M 155 -610 h -10" fill="none" stroke="#000000" stroke-width="1"/><text x="160" y="-610" font-family="Verdana" font-size="7pt" fill="#000000" text-anchor="start" display="none"  >INA</text><text x="143" y="-601" font-family="Verdana" font-size="7pt" fill="#000000" text-anchor="end" display="none"  >1 </text><circle cx="142" cy="-610" r="3" stroke="#000000" fill="none" stroke-width="1" display="none" /><path d="M 145 -607 L 148 -610 L 145 -613" fill="none" stroke="#000000" stroke-width="1"  display="none" /></g><g c_partid="part_pin" c_etype="pinpart"  c_show="show"  c_elec="0" c_spicepin="2" c_origin="155,-590" id="gge320" c_rotation="180"><circle c_pindot="true" class="pindot" cx="145" cy="-590" r="2" fill="#4F4F4F" stroke="none" /><path d="M 155 -590 h -10" fill="none" stroke="#000000" stroke-width="1"/><text x="160" y="-590" font-family="Verdana" font-size="7pt" fill="#000000" text-anchor="start" display="none"  >INB</text><text x="143" y="-581" font-family="Verdana" font-size="7pt" fill="#000000" text-anchor="end" display="none"  >2 </text><circle cx="142" cy="-590" r="3" stroke="#000000" fill="none" stroke-width="1" display="none" /><path d="M 145 -587 L 148 -590 L 145 -593" fill="none" stroke="#000000" stroke-width="1"  display="none" /></g><g c_partid="part_pin" c_etype="pinpart"  c_show="none" display="none" c_elec="0" c_spicepin="3" c_origin="175,-620" id="gge327" c_rotation="90"><circle c_pindot="true" class="pindot" cx="175" cy="-620" r="2" fill="#4F4F4F" stroke="none" /><path d="M 175 -620 v 5" fill="none" stroke="#000000" stroke-width="1"/><text x="178" y="-613" font-family="Verdana" font-size="7pt" fill="#000000" text-anchor="end" display="none" transform="rotate(270,178,-613)" >VDD</text><text x="174" y="-620" font-family="Verdana" font-size="7pt" fill="#000000" text-anchor="start" display="none" transform="rotate(270,174,-620)" >3</text><circle cx="175" cy="-618" r="3" stroke="#000000" fill="none" stroke-width="1" display="none" /><path d="M 172 -615 L 175 -612 L 178 -615" fill="none" stroke="#000000" stroke-width="1"  display="none" /></g><g c_partid="part_pin" c_etype="pinpart"  c_show="none" display="none" c_elec="0" c_spicepin="4" c_origin="175,-580" id="gge334" c_rotation="270"><circle c_pindot="true" class="pindot" cx="175" cy="-580" r="2" fill="#4F4F4F" stroke="none" /><path d="M 175 -580 v -5" fill="none" stroke="#000000" stroke-width="1"/><text x="178" y="-587" font-family="Verdana" font-size="7pt" fill="#000000" text-anchor="start" display="none" transform="rotate(270,178,-587)" >GND</text><text x="174" y="-580" font-family="Verdana" font-size="7pt" fill="#000000" text-anchor="end" display="none" transform="rotate(270,174,-580)" >4</text><circle cx="175" cy="-582" r="3" stroke="#000000" fill="none" stroke-width="1" display="none" /><path d="M 178 -585 L 175 -588 L 172 -585" fill="none" stroke="#000000" stroke-width="1"  display="none" /></g><path d="M 193.969 -597.914 A 24 29 0 0 1 174 -585" id="gge341"   stroke="#000000" stroke-width="1" c_helper_type="arc1" fill="none" /><polyline points="159 -615 174 -615" stroke="#000000" id="gge342" stroke-width="1"   fill="none" stroke-linecap="round" /><polyline points="155 -610 158 -610" stroke="#000000" id="gge343" stroke-width="1"   fill="none" stroke-linecap="round" /></g><g c_partid="part_annotation" id="gge344" c_origin="80,-605" c_shapetype="group" c_etype="pinpart"><text x="80" y="-605" fill="#000000" font-family="Verdana" font-size="9pt" font-weight="undefined" font-style="undefined" dominant-baseline="" text-anchor="start" type="comment"  >A</text></g><g c_partid="part_annotation" id="gge346" c_origin="80,-585" c_shapetype="group" c_etype="pinpart"><text x="80" y="-585" fill="#000000" font-family="Verdana" font-size="9pt" font-weight="undefined" font-style="undefined" dominant-baseline="" text-anchor="start" type="comment"  >B</text></g><g c_partid="part_annotation" id="gge348" c_origin="80,-555" c_shapetype="group" c_etype="pinpart"><text x="80" y="-555" fill="#000000" font-family="Verdana" font-size="9pt" font-weight="undefined" font-style="undefined" dominant-baseline="" text-anchor="start" type="comment"  >C</text></g><polyline c_etype="wire" c_shapetype="line" points="240 -600 205 -600" stroke="#000000" id="gge359" stroke-width="1"   fill="none" stroke-linecap="round" /><polyline c_etype="wire" c_shapetype="line" points="145 -610 100 -610" stroke="#000000" id="gge360" stroke-width="1"   fill="none" stroke-linecap="round" /><polyline c_etype="wire" c_shapetype="line" points="145 -590 100 -590" stroke="#000000" id="gge361" stroke-width="1"   fill="none" stroke-linecap="round" /><polyline c_etype="wire" c_shapetype="line" points="240 -545 215 -545 215 -600" stroke="#000000" id="gge367" stroke-width="1"   fill="none" stroke-linecap="round" /><polyline c_etype="wire" c_shapetype="line" points="240 -580 195 -580 195 -560 100 -560" stroke="#000000" id="gge369" stroke-width="1"   fill="none" stroke-linecap="round" /><polyline c_etype="wire" c_shapetype="line" points="240 -525 195 -525 195 -560" stroke="#000000" id="gge370" stroke-width="1"   fill="none" stroke-linecap="round" /><polyline c_etype="wire" c_shapetype="line" points="240 -495 140 -495 140 -610" stroke="#000000" id="gge372" stroke-width="1"   fill="none" stroke-linecap="round" /><polyline c_etype="wire" c_shapetype="line" points="240 -475 120 -475 120 -590" stroke="#000000" id="gge374" stroke-width="1"   fill="none" stroke-linecap="round" /><polyline c_etype="wire" c_shapetype="line" points="320 -535 300 -535" stroke="#000000" id="gge376" stroke-width="1"   fill="none" stroke-linecap="round" /><polyline c_etype="wire" c_shapetype="line" points="320 -515 320 -485 300 -485" stroke="#000000" id="gge377" stroke-width="1"   fill="none" stroke-linecap="round" /><polyline c_etype="wire" c_shapetype="line" points="300 -590 395 -590" stroke="#000000" id="gge378" stroke-width="1"   fill="none" stroke-linecap="round" /><polyline c_etype="wire" c_shapetype="line" points="380 -525 395 -525" stroke="#000000" id="gge379" stroke-width="1"   fill="none" stroke-linecap="round" /><g c_partid="part_junction" c_etype="pinpart" c_origin="120,-590" id="gge375" c_shapetype="group"><circle c_pindot="true" class="pindot" cx="120" cy="-590" r="2" fill="#4F4F4F" stroke="none"/><circle cx="120" cy="-590" r="2.5" fill="#000000" stroke-width="1"/></g><g c_partid="part_junction" c_etype="pinpart" c_origin="195,-560" id="gge371" c_shapetype="group"><circle c_pindot="true" class="pindot" cx="195" cy="-560" r="2" fill="#4F4F4F" stroke="none"/><circle cx="195" cy="-560" r="2.5" fill="#000000" stroke-width="1"/></g><g c_partid="part_junction" c_etype="pinpart" c_origin="215,-600" id="gge368" c_shapetype="group"><circle c_pindot="true" class="pindot" cx="215" cy="-600" r="2" fill="#4F4F4F" stroke="none"/><circle cx="215" cy="-600" r="2.5" fill="#000000" stroke-width="1"/></g><g c_partid="part_junction" c_etype="pinpart" c_origin="140,-610" id="gge373" c_shapetype="group"><circle c_pindot="true" class="pindot" cx="140" cy="-610" r="2" fill="#4F4F4F" stroke="none"/><circle cx="140" cy="-610" r="2.5" fill="#000000" stroke-width="1"/></g></g></svg>