<svg xmlns="http://www.w3.org/2000/svg" xmlns:xlink="http://www.w3.org/1999/xlink" width="356.1" height="84.8" viewBox="238.1 -643 356.1 84.8"><title></title><style type="text/css">
#g1 circle.pindot {fill: none;stroke: none;}#g1 rect, #g1 circle, #g1 ellipse, #g1 polyline, #g1 line, #g1 polygon, #g1 path {shape-rendering: crispEdges;}path, polyline, polygon {stroke-linejoin:round;}
rect, circle, ellipse, polyline, line, polygon, path {shape-rendering:crispEdges;}
</style>
<rect x="238.1" y="-643" width="356.1" height="84.8" fill="#FFFFFF" stroke="none"/><g id="g1" c_spiceCmd="null" c_para="Prefix Start`1`" importFlag="0" c_portOfADImportHack="" c_transformList="" xmlns="http://www.w3.org/2000/svg"><polyline c_etype="wire" c_shapetype="line" points="470 -605 565 -605" stroke="#000000" id="gge85" stroke-width="1"   fill="none" stroke-linecap="round" /><polyline c_etype="wire" c_shapetype="line" points="410 -595 365 -595 365 -575 270 -575" stroke="#000000" id="gge88" stroke-width="1"   fill="none" stroke-linecap="round" /><polyline c_etype="wire" c_shapetype="line" points="315 -605 270 -605" stroke="#000000" id="gge90" stroke-width="1"   fill="none" stroke-linecap="round" /><polyline c_etype="wire" c_shapetype="line" points="315 -625 270 -625" stroke="#000000" id="gge91" stroke-width="1"   fill="none" stroke-linecap="round" /><polyline c_etype="wire" c_shapetype="line" points="410 -615 375 -615" stroke="#000000" id="gge92" stroke-width="1"   fill="none" stroke-linecap="round" /><g c_partid="part_annotation" id="gge93" c_origin="250,-570" c_shapetype="group" c_etype="pinpart"><text x="250" y="-570" fill="#000000" font-family="Verdana" font-size="9pt" font-weight="undefined" font-style="undefined" dominant-baseline="" text-anchor="start" type="comment"  >C</text></g><g c_partid="part_annotation" id="gge95" c_origin="250,-600" c_shapetype="group" c_etype="pinpart"><text x="250" y="-600" fill="#000000" font-family="Verdana" font-size="9pt" font-weight="undefined" font-style="undefined" dominant-baseline="" text-anchor="start" type="comment"  >B</text></g><g c_partid="part_annotation" id="gge97" c_origin="250,-620" c_shapetype="group" c_etype="pinpart"><text x="250" y="-620" fill="#000000" font-family="Verdana" font-size="9pt" font-weight="undefined" font-style="undefined" dominant-baseline="" text-anchor="start" type="comment"  >A</text></g><g c_origin="345,-615" c_para="package``spicePre`X`spiceSymbolName`LOGIC`BOM_Supplier Part``BOM_Supplier``Contributor`EasyEDA`BOM_Manufacturer Part``" c_partid="part_import_gge99" id="gge99" c_shapetype="group" c_etype="pinpart" ><g c_partid="part_annotation" id="gge101" display="none"><text c_note="note_name" x="313" y="-633.8125" fill="#000000" font-family="Arial" font-size="7pt" font-weight="" font-style="" dominant-baseline="" text-anchor="start"  >XOR2EE_US</text></g><g c_partid="part_annotation" id="gge103" display="none"><text c_note="note_pre" x="313" y="-642.81" fill="#000000" font-family="Arial" font-size="7pt" font-weight="" font-style="" dominant-baseline="" text-anchor="start"  >U4</text></g><g c_partid="part_pin" c_etype="pinpart"  c_show="show"  c_elec="0" c_spicepin="5" c_origin="375,-615" id="gge105" c_rotation="0"><circle c_pindot="true" class="pindot" cx="375" cy="-615" r="2" fill="#4F4F4F" stroke="none" /><path d="M 375 -615 h -10" fill="none" stroke="#000000" stroke-width="1"/><text x="360" y="-615" font-family="Verdana" font-size="7pt" fill="#000000" text-anchor="end" display="none"  >OUT</text><text x="377" y="-624" font-family="Verdana" font-size="7pt" fill="#000000" text-anchor="start" display="none"  >5</text><circle cx="368" cy="-615" r="3" stroke="#000000" fill="none" stroke-width="1" display="none" /><path d="M 365 -618 L 362 -615 L 365 -612" fill="none" stroke="#000000" stroke-width="1"  display="none" /></g><polyline points="325 -605 328 -605" stroke="#000000" id="gge112" stroke-width="1"   fill="none" stroke-linecap="round" /><path d="M 344 -630 A 24 29 0 0 1 363.969 -617.086" id="gge113"   stroke="#000000" stroke-width="1" c_helper_type="arc1" fill="none" /><path d="M 324.3 -630.461 A 16 19 0 0 1 324.3 -599.539" id="gge114"   stroke="#000000" stroke-width="1" c_helper_type="arc1" fill="none" /><polyline points="329 -600 344 -600" stroke="#000000" id="gge115" stroke-width="1"   fill="none" stroke-linecap="round" /><path d="M 327.875 -630.809 A 16 19 0 0 1 327.875 -599.191" id="gge116"   stroke="#000000" stroke-width="1" c_helper_type="arc1" fill="none" /><path d="M 364 -613 C 365 -615 365 -615 364 -617" id="gge117"  stroke="#000000" stroke-width="1"  fill="none" /><g c_partid="part_pin" c_etype="pinpart"  c_show="show"  c_elec="0" c_spicepin="1" c_origin="325,-625" id="gge118" c_rotation="180"><circle c_pindot="true" class="pindot" cx="315" cy="-625" r="2" fill="#4F4F4F" stroke="none" /><path d="M 325 -625 h -10" fill="none" stroke="#000000" stroke-width="1"/><text x="330" y="-625" font-family="Verdana" font-size="7pt" fill="#000000" text-anchor="start" display="none"  >INA</text><text x="313" y="-616" font-family="Verdana" font-size="7pt" fill="#000000" text-anchor="end" display="none"  >1 </text><circle cx="312" cy="-625" r="3" stroke="#000000" fill="none" stroke-width="1" display="none" /><path d="M 315 -622 L 318 -625 L 315 -628" fill="none" stroke="#000000" stroke-width="1"  display="none" /></g><g c_partid="part_pin" c_etype="pinpart"  c_show="show"  c_elec="0" c_spicepin="2" c_origin="325,-605" id="gge125" c_rotation="180"><circle c_pindot="true" class="pindot" cx="315" cy="-605" r="2" fill="#4F4F4F" stroke="none" /><path d="M 325 -605 h -10" fill="none" stroke="#000000" stroke-width="1"/><text x="330" y="-605" font-family="Verdana" font-size="7pt" fill="#000000" text-anchor="start" display="none"  >INB</text><text x="313" y="-596" font-family="Verdana" font-size="7pt" fill="#000000" text-anchor="end" display="none"  >2 </text><circle cx="312" cy="-605" r="3" stroke="#000000" fill="none" stroke-width="1" display="none" /><path d="M 315 -602 L 318 -605 L 315 -608" fill="none" stroke="#000000" stroke-width="1"  display="none" /></g><g c_partid="part_pin" c_etype="pinpart"  c_show="none" display="none" c_elec="0" c_spicepin="3" c_origin="345,-635" id="gge132" c_rotation="90"><circle c_pindot="true" class="pindot" cx="345" cy="-635" r="2" fill="#4F4F4F" stroke="none" /><path d="M 345 -635 v 5" fill="none" stroke="#000000" stroke-width="1"/><text x="348" y="-628" font-family="Verdana" font-size="7pt" fill="#000000" text-anchor="end" display="none" transform="rotate(270,348,-628)" >VDD</text><text x="344" y="-635" font-family="Verdana" font-size="7pt" fill="#000000" text-anchor="start" display="none" transform="rotate(270,344,-635)" >3</text><circle cx="345" cy="-633" r="3" stroke="#000000" fill="none" stroke-width="1" display="none" /><path d="M 342 -630 L 345 -627 L 348 -630" fill="none" stroke="#000000" stroke-width="1"  display="none" /></g><g c_partid="part_pin" c_etype="pinpart"  c_show="none" display="none" c_elec="0" c_spicepin="4" c_origin="345,-595" id="gge139" c_rotation="270"><circle c_pindot="true" class="pindot" cx="345" cy="-595" r="2" fill="#4F4F4F" stroke="none" /><path d="M 345 -595 v -5" fill="none" stroke="#000000" stroke-width="1"/><text x="348" y="-602" font-family="Verdana" font-size="7pt" fill="#000000" text-anchor="start" display="none" transform="rotate(270,348,-602)" >GND</text><text x="344" y="-595" font-family="Verdana" font-size="7pt" fill="#000000" text-anchor="end" display="none" transform="rotate(270,344,-595)" >4</text><circle cx="345" cy="-597" r="3" stroke="#000000" fill="none" stroke-width="1" display="none" /><path d="M 348 -600 L 345 -603 L 342 -600" fill="none" stroke="#000000" stroke-width="1"  display="none" /></g><path d="M 363.969 -612.914 A 24 29 0 0 1 344 -600" id="gge146"   stroke="#000000" stroke-width="1" c_helper_type="arc1" fill="none" /><polyline points="329 -630 344 -630" stroke="#000000" id="gge147" stroke-width="1"   fill="none" stroke-linecap="round" /><polyline points="325 -625 328 -625" stroke="#000000" id="gge148" stroke-width="1"   fill="none" stroke-linecap="round" /></g><g c_origin="440,-605" c_para="package``spicePre`X`spiceSymbolName`LOGIC`BOM_Supplier Part``BOM_Supplier``Contributor`EasyEDA`BOM_Manufacturer Part``" c_partid="part_import_gge149" id="gge149" c_shapetype="group" c_etype="pinpart" ><g c_partid="part_annotation" id="gge151" display="none"><text c_note="note_name" x="408" y="-623.8125" fill="#000000" font-family="Arial" font-size="7pt" font-weight="" font-style="" dominant-baseline="" text-anchor="start"  >XOR2EE_US</text></g><g c_partid="part_annotation" id="gge153" display="none"><text c_note="note_pre" x="408" y="-632.81" fill="#000000" font-family="Arial" font-size="7pt" font-weight="" font-style="" dominant-baseline="" text-anchor="start"  >U7</text></g><g c_partid="part_pin" c_etype="pinpart"  c_show="show"  c_elec="0" c_spicepin="5" c_origin="470,-605" id="gge155" c_rotation="0"><circle c_pindot="true" class="pindot" cx="470" cy="-605" r="2" fill="#4F4F4F" stroke="none" /><path d="M 470 -605 h -10" fill="none" stroke="#000000" stroke-width="1"/><text x="455" y="-605" font-family="Verdana" font-size="7pt" fill="#000000" text-anchor="end" display="none"  >OUT</text><text x="472" y="-614" font-family="Verdana" font-size="7pt" fill="#000000" text-anchor="start" display="none"  >5</text><circle cx="463" cy="-605" r="3" stroke="#000000" fill="none" stroke-width="1" display="none" /><path d="M 460 -608 L 457 -605 L 460 -602" fill="none" stroke="#000000" stroke-width="1"  display="none" /></g><polyline points="420 -595 423 -595" stroke="#000000" id="gge162" stroke-width="1"   fill="none" stroke-linecap="round" /><path d="M 439 -620 A 24 29 0 0 1 458.969 -607.086" id="gge163"   stroke="#000000" stroke-width="1" c_helper_type="arc1" fill="none" /><path d="M 419.3 -620.461 A 16 19 0 0 1 419.3 -589.539" id="gge164"   stroke="#000000" stroke-width="1" c_helper_type="arc1" fill="none" /><polyline points="424 -590 439 -590" stroke="#000000" id="gge165" stroke-width="1"   fill="none" stroke-linecap="round" /><path d="M 422.875 -620.809 A 16 19 0 0 1 422.875 -589.191" id="gge166"   stroke="#000000" stroke-width="1" c_helper_type="arc1" fill="none" /><path d="M 459 -603 C 460 -605 460 -605 459 -607" id="gge167"  stroke="#000000" stroke-width="1"  fill="none" /><g c_partid="part_pin" c_etype="pinpart"  c_show="show"  c_elec="0" c_spicepin="1" c_origin="420,-615" id="gge168" c_rotation="180"><circle c_pindot="true" class="pindot" cx="410" cy="-615" r="2" fill="#4F4F4F" stroke="none" /><path d="M 420 -615 h -10" fill="none" stroke="#000000" stroke-width="1"/><text x="425" y="-615" font-family="Verdana" font-size="7pt" fill="#000000" text-anchor="start" display="none"  >INA</text><text x="408" y="-606" font-family="Verdana" font-size="7pt" fill="#000000" text-anchor="end" display="none"  >1 </text><circle cx="407" cy="-615" r="3" stroke="#000000" fill="none" stroke-width="1" display="none" /><path d="M 410 -612 L 413 -615 L 410 -618" fill="none" stroke="#000000" stroke-width="1"  display="none" /></g><g c_partid="part_pin" c_etype="pinpart"  c_show="show"  c_elec="0" c_spicepin="2" c_origin="420,-595" id="gge175" c_rotation="180"><circle c_pindot="true" class="pindot" cx="410" cy="-595" r="2" fill="#4F4F4F" stroke="none" /><path d="M 420 -595 h -10" fill="none" stroke="#000000" stroke-width="1"/><text x="425" y="-595" font-family="Verdana" font-size="7pt" fill="#000000" text-anchor="start" display="none"  >INB</text><text x="408" y="-586" font-family="Verdana" font-size="7pt" fill="#000000" text-anchor="end" display="none"  >2 </text><circle cx="407" cy="-595" r="3" stroke="#000000" fill="none" stroke-width="1" display="none" /><path d="M 410 -592 L 413 -595 L 410 -598" fill="none" stroke="#000000" stroke-width="1"  display="none" /></g><g c_partid="part_pin" c_etype="pinpart"  c_show="none" display="none" c_elec="0" c_spicepin="3" c_origin="440,-625" id="gge182" c_rotation="90"><circle c_pindot="true" class="pindot" cx="440" cy="-625" r="2" fill="#4F4F4F" stroke="none" /><path d="M 440 -625 v 5" fill="none" stroke="#000000" stroke-width="1"/><text x="443" y="-618" font-family="Verdana" font-size="7pt" fill="#000000" text-anchor="end" display="none" transform="rotate(270,443,-618)" >VDD</text><text x="439" y="-625" font-family="Verdana" font-size="7pt" fill="#000000" text-anchor="start" display="none" transform="rotate(270,439,-625)" >3</text><circle cx="440" cy="-623" r="3" stroke="#000000" fill="none" stroke-width="1" display="none" /><path d="M 437 -620 L 440 -617 L 443 -620" fill="none" stroke="#000000" stroke-width="1"  display="none" /></g><g c_partid="part_pin" c_etype="pinpart"  c_show="none" display="none" c_elec="0" c_spicepin="4" c_origin="440,-585" id="gge189" c_rotation="270"><circle c_pindot="true" class="pindot" cx="440" cy="-585" r="2" fill="#4F4F4F" stroke="none" /><path d="M 440 -585 v -5" fill="none" stroke="#000000" stroke-width="1"/><text x="443" y="-592" font-family="Verdana" font-size="7pt" fill="#000000" text-anchor="start" display="none" transform="rotate(270,443,-592)" >GND</text><text x="439" y="-585" font-family="Verdana" font-size="7pt" fill="#000000" text-anchor="end" display="none" transform="rotate(270,439,-585)" >4</text><circle cx="440" cy="-587" r="3" stroke="#000000" fill="none" stroke-width="1" display="none" /><path d="M 443 -590 L 440 -593 L 437 -590" fill="none" stroke="#000000" stroke-width="1"  display="none" /></g><path d="M 458.969 -602.914 A 24 29 0 0 1 439 -590" id="gge196"   stroke="#000000" stroke-width="1" c_helper_type="arc1" fill="none" /><polyline points="424 -620 439 -620" stroke="#000000" id="gge197" stroke-width="1"   fill="none" stroke-linecap="round" /><polyline points="420 -615 423 -615" stroke="#000000" id="gge198" stroke-width="1"   fill="none" stroke-linecap="round" /></g><g c_partid="part_annotation" id="gge244" c_origin="575,-600" c_shapetype="group" c_etype="pinpart"><text x="575" y="-600" fill="#000000" font-family="Verdana" font-size="9pt" font-weight="undefined" font-style="undefined" dominant-baseline="" text-anchor="start" type="comment"  >X</text></g></g></svg>