<?xml version="1.0" standalone="no"?>
<!DOCTYPE svg PUBLIC "-//W3C//DTD SVG 20010904//EN"
 "http://www.w3.org/TR/2001/REC-SVG-20010904/DTD/svg10.dtd">
<svg version="1.0" xmlns="http://www.w3.org/2000/svg"
 width="451.867476pt" height="796.034093pt" viewBox="0 0 451.867476 796.034093"
 preserveAspectRatio="xMidYMid meet">
<metadata>
Created by potrace 1.16, written by Peter Selinger 2001-2019
</metadata>
<g transform="translate(-101.092524,912.674093) scale(0.144000,-0.144000)"
fill="#000000" stroke="none">
<path d="M1017 6333 c-4 -3 -7 -109 -7 -235 l0 -228 -24 -11 c-13 -6 -32 -26
-42 -45 l-18 -33 10 -38 9 -38 32 -20 32 -20 1 -296 0 -297 -35 -26 -34 -26
-6 -34 -7 -34 17 -31 c9 -18 27 -37 40 -43 l25 -11 0 -186 0 -186 -29 -13
c-17 -7 -35 -28 -45 -50 l-17 -38 17 -37 c10 -21 30 -42 46 -49 l28 -13 0
-168 0 -167 -24 -11 c-13 -6 -32 -26 -42 -45 l-18 -33 10 -37 c11 -46 52 -78
100 -78 l37 0 28 32 29 32 0 39 0 38 -21 27 c-11 14 -26 26 -33 26 l-13 0 -6
122 c-4 66 -7 145 -7 175 l0 53 14 0 c8 0 27 15 42 33 l27 32 406 5 406 5 3
533 2 532 490 0 490 0 0 -548 0 -548 -72 -18 c-180 -45 -316 -202 -329 -381
-7 -89 32 -219 82 -276 12 -13 26 -31 33 -39 35 -48 145 -111 216 -125 19 -3
43 -9 53 -11 l17 -5 0 -495 0 -494 -898 0 -898 0 -17 30 c-10 16 -29 33 -43
36 l-24 6 0 52 c0 28 3 115 7 193 l6 141 22 12 c44 23 59 99 30 144 -17 25
-70 52 -95 48 l-15 -2 -136 272 c-127 255 -158 302 -167 256 -2 -9 56 -133
127 -275 72 -142 131 -264 131 -270 0 -6 -7 -24 -15 -39 -8 -16 -15 -38 -15
-49 0 -29 35 -82 59 -90 l21 -6 0 -192 0 -193 -28 -10 c-17 -7 -35 -25 -45
-47 l-18 -36 7 -25 c8 -31 48 -76 69 -76 l15 0 0 -640 0 -639 -152 -3 -153 -3
0 -15 0 -15 162 -5 c90 -3 236 -3 325 0 l163 5 0 15 0 15 -152 3 -153 3 0 638
0 639 24 6 c14 3 33 20 43 36 l17 30 916 2 915 3 3 517 2 517 18 5 c9 2 33 8
52 11 70 14 187 81 213 122 4 7 19 25 32 39 72 78 104 232 74 349 -41 154
-163 274 -316 310 l-73 18 0 548 0 549 435 0 435 0 0 20 0 20 -435 0 -435 0
-2 428 -3 427 -971 3 c-534 1 -974 -1 -977 -5z m1913 -448 l0 -405 -510 0
-510 0 0 -530 0 -530 -390 0 -390 0 -12 25 c-6 14 -24 30 -40 37 l-28 13 0 96
c0 53 3 137 6 187 l7 90 22 12 c28 15 45 51 45 94 l0 33 -25 27 c-13 14 -29
26 -35 26 l-10 0 0 299 0 299 35 35 35 35 0 40 0 39 -21 27 c-11 14 -27 26
-35 26 l-14 0 0 103 c0 56 -3 153 -7 215 l-6 112 941 0 942 0 0 -405z m-1856
-81 c20 -20 20 -43 0 -72 l-15 -22 -29 0 -29 0 -11 19 c-14 26 -13 64 2 79 17
17 64 15 82 -4z m6 -805 c17 -30 8 -62 -22 -78 l-26 -15 -26 14 -26 13 0 32
c0 40 16 55 57 55 l32 0 11 -21z m1980 -723 c109 -34 193 -109 238 -213 l22
-52 0 -95 0 -94 -20 -48 c-46 -107 -118 -177 -221 -214 l-54 -20 -75 0 -75 0
-54 20 c-101 37 -172 105 -221 211 l-20 44 0 98 0 98 22 52 c33 77 97 148 168
186 76 40 206 53 290 27z m-1986 -382 c20 -20 20 -43 0 -72 l-15 -22 -29 0
-29 0 -11 19 c-14 26 -13 64 2 79 17 17 64 15 82 -4z m6 -805 c17 -30 8 -62
-22 -78 l-26 -15 -26 14 -26 13 0 32 c0 40 16 55 57 55 l32 0 11 -21z"/>
<path d="M2937 4204 c-4 -4 -7 -29 -7 -56 l0 -48 -49 0 -49 0 -5 -13 c-3 -8
-2 -20 3 -27 l8 -12 45 3 46 4 3 -55 3 -55 15 0 15 0 3 55 3 55 46 -4 45 -3 8
12 c5 7 6 19 3 27 l-5 13 -49 0 -48 0 -3 52 c-3 48 -15 68 -31 52z"/>
<path d="M2828 3728 c-3 -7 -3 -19 -1 -25 l5 -13 118 0 118 0 5 13 c2 6 2 18
-1 25 l-4 12 -118 0 -118 0 -4 -12z"/>
<path d="M825 970 c-4 -6 -1 -17 5 -25 l12 -15 188 0 188 0 12 15 c6 8 9 19 5
25 l-6 10 -199 0 -199 0 -6 -10z"/>
<path d="M945 850 c-4 -6 -1 -17 5 -25 l12 -15 68 0 68 0 12 15 c21 26 0 35
-80 35 -44 0 -82 -5 -85 -10z"/>
</g>
</svg>
