<?xml version="1.0" standalone="no"?>
<!DOCTYPE svg PUBLIC "-//W3C//DTD SVG 20010904//EN"
 "http://www.w3.org/TR/2001/REC-SVG-20010904/DTD/svg10.dtd">
<svg version="1.0" xmlns="http://www.w3.org/2000/svg"
 width="690.480000pt" height="796.034093pt" viewBox="0 0 690.480000 796.034093"
 preserveAspectRatio="xMidYMid meet">
<metadata>
Created by potrace 1.16, written by Peter Selinger 2001-2019
</metadata>
<g transform="translate(-128.880000,839.234093) scale(0.144000,-0.144000)"
fill="#000000" stroke="none">
<path d="M2867 5823 c-4 -3 -7 -165 -7 -359 l0 -353 -160 -3 -160 -3 0 53 0
52 -20 0 -20 0 0 -365 0 -365 20 0 20 0 0 50 0 50 160 0 160 0 0 -298 0 -297
-29 -13 c-17 -7 -35 -28 -45 -50 l-17 -38 17 -37 c10 -21 30 -42 46 -49 l28
-13 0 -297 0 -298 -160 0 -160 0 0 50 0 50 -20 0 -20 0 0 -365 0 -365 20 0 20
0 0 50 0 50 160 0 160 0 0 -298 0 -298 -28 -10 c-17 -7 -35 -25 -45 -47 l-18
-36 7 -25 c8 -31 48 -76 69 -76 l15 0 0 -640 0 -639 -152 -3 -153 -3 0 -15 0
-15 162 -5 c90 -3 236 -3 325 0 l163 5 0 15 0 15 -152 3 -153 3 0 638 0 639
24 6 c14 3 33 20 43 36 l17 30 916 2 915 3 3 517 2 517 18 5 c9 2 33 8 52 11
70 14 187 81 213 122 4 7 19 25 32 39 72 78 104 232 74 349 -41 154 -163 274
-316 310 l-73 18 0 548 0 549 435 0 435 0 0 20 0 20 -435 0 -435 0 -2 428 -3
427 -971 3 c-534 1 -974 -1 -977 -5z m1913 -448 l0 -405 -510 0 -510 0 0 -530
0 -530 -390 0 -390 0 -12 25 c-6 14 -24 30 -39 37 l-29 13 -2 320 -3 320 -177
3 -178 2 0 218 0 217 177 0 178 0 3 358 2 357 940 0 940 0 0 -405z m0 -993 l0
-548 -72 -18 c-180 -45 -316 -202 -329 -381 -7 -89 32 -219 82 -276 12 -13 26
-31 33 -39 35 -48 145 -111 216 -125 19 -3 43 -9 53 -11 l17 -5 0 -495 0 -494
-898 0 -898 0 -17 30 c-10 16 -29 33 -43 36 l-24 6 0 314 0 313 -19 11 c-11 6
-89 10 -180 10 l-161 0 0 215 0 215 178 2 177 3 3 323 2 322 14 0 c8 0 27 15
42 33 l27 32 406 5 406 5 3 533 2 532 490 0 490 0 0 -548z m130 -616 c109 -34
193 -109 238 -213 l22 -52 0 -95 0 -94 -20 -48 c-46 -107 -118 -177 -221 -214
l-54 -20 -75 0 -75 0 -54 20 c-101 37 -172 105 -221 211 l-20 44 0 98 0 98 22
52 c33 77 97 148 168 186 76 40 206 53 290 27z"/>
<path d="M4787 3694 c-4 -4 -7 -29 -7 -56 l0 -48 -49 0 -49 0 -5 -13 c-3 -8
-2 -20 3 -27 l8 -12 45 3 46 4 3 -55 3 -55 15 0 15 0 3 55 3 55 46 -4 45 -3 8
12 c5 7 6 19 3 27 l-5 13 -49 0 -48 0 -3 52 c-3 48 -15 68 -31 52z"/>
<path d="M4678 3218 c-3 -7 -3 -19 -1 -25 l5 -13 118 0 118 0 5 13 c2 6 2 18
-1 25 l-4 12 -118 0 -118 0 -4 -12z"/>
<path d="M2380 5005 l0 -85 -26 10 c-61 23 -144 -5 -144 -48 l0 -17 -152 0
-153 0 -3 -921 -2 -922 -25 -6 c-13 -3 -32 -20 -42 -36 l-17 -30 -461 -2 -460
-3 0 -20 0 -20 460 -3 461 -2 17 -29 c10 -17 32 -34 52 -41 l35 -12 35 12 c20
7 42 24 52 41 l17 29 178 0 178 0 0 -110 0 -110 20 0 20 0 0 245 0 245 -20 0
-20 0 0 -110 0 -110 -178 0 -178 0 -17 30 c-10 16 -29 33 -43 36 l-24 6 0 899
0 898 135 3 135 3 0 -17 c0 -43 83 -71 144 -48 l26 10 0 -85 0 -85 20 0 20 0
0 245 0 245 -20 0 -20 0 0 -85z m-46 -143 l16 -19 -19 -17 c-23 -21 -49 -18
-64 6 l-11 16 13 16 c18 21 44 20 65 -2z"/>
<path d="M2675 460 c-4 -6 -1 -17 5 -25 l12 -15 188 0 188 0 12 15 c6 8 9 19
5 25 l-6 10 -199 0 -199 0 -6 -10z"/>
<path d="M2795 340 c-4 -6 -1 -17 5 -25 l12 -15 68 0 68 0 12 15 c21 26 0 35
-80 35 -44 0 -82 -5 -85 -10z"/>
</g>
</svg>
