<?xml version="1.0" standalone="no"?>
<!DOCTYPE svg PUBLIC "-//W3C//DTD SVG 20010904//EN"
 "http://www.w3.org/TR/2001/REC-SVG-20010904/DTD/svg10.dtd">
<svg version="1.0" xmlns="http://www.w3.org/2000/svg"
 width="791.133736pt" height="771.942857pt" viewBox="0 0 791.133736 771.942857"
 preserveAspectRatio="xMidYMid meet">
<metadata>
Created by potrace 1.16, written by Peter Selinger 2001-2019
</metadata>
<g transform="translate(-47.520000,871.200000) scale(0.144000,-0.144000)"
fill="#000000" stroke="none">
<path d="M1430 5710 l0 -340 -90 0 -90 0 0 -260 0 -260 90 0 90 0 0 -385 0
-385 30 0 30 0 0 410 0 410 -95 0 -95 0 0 215 0 215 95 0 95 0 0 360 0 360
-30 0 -30 0 0 -340z"/>
<path d="M3647 6034 c-4 -4 -7 -162 -7 -350 l0 -344 -24 -16 c-14 -8 -30 -31
-36 -49 l-11 -34 15 -30 c9 -16 25 -32 36 -36 l20 -6 0 -147 0 -148 -30 -26
-30 -26 0 -37 0 -37 30 -28 30 -28 0 -386 0 -386 25 0 25 0 0 390 0 389 19 11
c11 5 24 25 30 43 l12 34 -10 24 c-5 13 -19 32 -30 41 l-21 18 0 149 0 149 14
5 c8 3 22 20 31 37 l16 31 -6 30 c-4 16 -16 36 -28 44 l-22 15 -5 353 -5 352
-15 3 c-9 1 -19 0 -23 -4z"/>
<path d="M5553 6033 l-13 -5 0 -346 0 -346 -27 -28 -26 -28 0 -30 c0 -86 119
-115 159 -38 l15 29 -6 30 c-4 16 -18 37 -31 45 l-24 16 -2 351 -3 352 -15 2
c-8 1 -21 -1 -27 -4z"/>
<path d="M1150 5268 l0 -101 -18 16 c-25 23 -91 21 -122 -3 l-25 -20 -327 0
-328 0 0 -30 0 -30 330 0 330 0 0 -10 c0 -5 9 -19 20 -30 l20 -20 38 0 c21 0
48 7 60 16 l22 15 0 -110 0 -111 20 0 20 0 0 260 0 260 -20 0 -20 0 0 -102z
m-40 -122 c6 -8 10 -25 8 -38 l-3 -23 -38 -3 -37 -3 -6 15 c-3 9 -3 27 0 41
l6 25 29 0 c16 0 34 -7 41 -14z"/>
<path d="M5776 5248 c-8 -13 -54 -103 -102 -200 l-89 -178 -18 0 c-29 0 -65
-29 -76 -61 l-10 -30 9 -24 c5 -13 18 -30 30 -37 l20 -13 0 -392 0 -393 30 0
30 0 0 388 0 389 21 19 c12 10 25 30 30 42 l9 24 -11 37 -11 37 96 192 c55
110 93 198 90 207 -9 22 -31 19 -48 -7z"/>
<path d="M1430 2330 l0 -340 -90 0 -90 0 0 -260 0 -260 90 0 90 0 0 -380 0
-380 30 0 30 0 0 405 0 405 -95 0 -95 0 0 215 0 215 95 0 95 0 0 360 0 360
-30 0 -30 0 0 -340z"/>
<path d="M3633 2663 l-13 -5 0 -218 0 -218 -30 -30 c-46 -46 -39 -109 16 -143
l34 -21 29 7 c76 16 102 120 41 162 l-20 14 0 218 0 217 -12 12 c-13 13 -24
14 -45 5z"/>
<path d="M5501 2596 l-12 -14 1 -209 1 -210 -32 -32 -32 -32 6 -42 6 -41 25
-19 26 -19 0 -164 0 -165 -25 -22 c-15 -13 -28 -37 -31 -58 l-6 -36 31 -35 31
-36 0 -372 0 -371 15 -15 14 -15 21 21 20 20 0 370 0 371 27 23 28 24 0 42 0
42 -28 24 -27 23 0 165 0 164 28 20 27 20 0 47 0 47 -27 23 -28 24 0 219 0
220 -16 6 c-23 9 -30 8 -43 -8z"/>
<path d="M3873 2123 c-8 -16 -59 -113 -112 -218 l-96 -190 -32 -7 c-78 -20
-97 -119 -31 -166 l18 -13 0 -375 0 -375 14 -14 14 -14 21 23 21 23 0 367 -1
367 24 19 c31 25 39 66 21 108 l-13 33 104 210 c58 115 105 218 105 229 l0 20
-20 0 c-12 0 -28 -12 -37 -27z"/>
<path d="M1150 1885 l0 -105 -410 0 -410 0 0 -30 0 -30 410 0 410 0 0 -125 0
-125 20 0 20 0 0 260 0 260 -20 0 -20 0 0 -105z"/>
</g>
</svg>
