<?xml version="1.0" standalone="no"?>
<!DOCTYPE svg PUBLIC "-//W3C//DTD SVG 20010904//EN"
 "http://www.w3.org/TR/2001/REC-SVG-20010904/DTD/svg10.dtd">
<svg version="1.0" xmlns="http://www.w3.org/2000/svg"
 width="741.600000pt" height="452.160000pt" viewBox="0 0 741.600000 452.160000"
 preserveAspectRatio="xMidYMid meet">
<metadata>
Created by potrace 1.16, written by Peter Selinger 2001-2019
</metadata>
<g transform="translate(0.000000,554.400000) scale(0.144000,-0.144000)"
fill="#000000" stroke="none">
<path d="M4755 3830 l-18 -20 -219 0 -218 0 0 -120 0 -120 -150 0 -150 0 0
120 0 120 -600 0 -600 0 0 -120 0 -120 -150 0 -150 0 0 120 0 120 -695 0 -695
0 0 -184 0 -183 -35 -6 c-55 -9 -124 -48 -161 -91 -39 -46 -74 -131 -74 -182
0 -131 96 -249 226 -276 l44 -10 0 -204 0 -204 -110 0 -110 0 0 -10 0 -10 235
0 235 0 0 10 0 10 -115 0 -115 0 0 205 0 204 38 7 c127 22 232 147 232 276 0
52 -34 138 -74 184 -37 43 -106 82 -161 91 l-35 6 0 173 0 174 675 0 675 0 0
-110 0 -110 -35 0 c-19 0 -35 -4 -35 -10 l0 -10 240 0 240 0 0 10 c0 6 -16 10
-35 10 l-35 0 0 110 0 110 580 0 580 0 0 -110 0 -110 -35 0 c-19 0 -35 -4 -35
-10 l0 -10 240 0 240 0 0 10 c0 6 -16 10 -35 10 l-35 0 0 110 0 110 205 0 206
0 24 -27 24 -28 1 -272 0 -273 -35 0 -35 0 0 -305 0 -305 35 0 35 0 0 -450 0
-450 -110 0 -110 0 0 -10 0 -10 235 0 235 0 0 10 0 10 -115 0 -115 0 0 450 0
450 40 0 40 0 0 305 0 305 -40 0 -40 0 0 269 0 269 31 31 31 31 144 0 144 0 0
10 0 10 -148 0 -149 0 -18 20 c-10 11 -28 20 -40 20 -12 0 -30 -9 -40 -20z
m-3537 -435 c49 -21 110 -80 133 -130 21 -45 25 -129 8 -189 -13 -48 -82 -123
-134 -147 l-40 -19 -65 0 -65 0 -40 19 c-52 24 -121 99 -134 147 -16 56 -13
139 4 182 21 49 80 110 130 133 l40 19 63 0 c34 0 79 -7 100 -15z m3632 -510
l0 -275 -55 0 -55 0 0 275 0 275 55 0 55 0 0 -275z"/>
<path d="M1110 3315 l0 -35 -35 0 -35 0 0 -15 0 -15 35 0 35 0 0 -35 c0 -19 5
-35 10 -35 6 0 10 16 10 35 l0 35 35 0 35 0 0 15 0 15 -35 0 -35 0 0 35 c0 19
-4 35 -10 35 -5 0 -10 -16 -10 -35z"/>
<path d="M1040 3025 l0 -15 80 0 80 0 0 15 0 15 -80 0 -80 0 0 -15z"/>
<path d="M2490 3480 c0 -6 32 -10 75 -10 l75 0 0 -880 0 -880 -1320 0 -1320 0
0 -10 0 -10 1330 0 1330 0 0 890 0 890 75 0 c43 0 75 4 75 10 l0 10 -160 0
-160 0 0 -10z"/>
<path d="M3990 3480 c0 -6 32 -10 75 -10 l75 0 0 -1370 0 -1370 -2070 0 -2070
0 0 -10 0 -10 2080 0 2080 0 0 1380 0 1380 75 0 c43 0 75 4 75 10 l0 10 -160
0 -160 0 0 -10z"/>
<path d="M960 2380 l0 -10 170 0 170 0 0 10 0 10 -170 0 -170 0 0 -10z"/>
<path d="M1010 2290 l0 -10 120 0 120 0 0 10 0 10 -120 0 -120 0 0 -10z"/>
<path d="M4630 1590 l0 -10 170 0 170 0 0 10 0 10 -170 0 -170 0 0 -10z"/>
<path d="M4680 1500 l0 -10 120 0 120 0 0 10 0 10 -120 0 -120 0 0 -10z"/>
</g>
</svg>
