<?xml version="1.0" standalone="no"?>
<!DOCTYPE svg PUBLIC "-//W3C//DTD SVG 20010904//EN"
 "http://www.w3.org/TR/2001/REC-SVG-20010904/DTD/svg10.dtd">
<svg version="1.0" xmlns="http://www.w3.org/2000/svg"
 width="675.025062pt" height="564.593107pt" viewBox="0 0 675.025062 564.593107"
 preserveAspectRatio="xMidYMid meet">
<metadata>
Created by potrace 1.16, written by Peter Selinger 2001-2019
</metadata>
<g transform="translate(-216.035388,738.720000) scale(0.144000,-0.144000)"
fill="#000000" stroke="none">
<path d="M2831 4996 l-264 -132 -36 18 c-19 10 -41 18 -49 18 -28 0 -80 -32
-90 -55 l-11 -25 -238 -2 -238 -3 -3 -756 -2 -755 -58 -12 c-157 -32 -280
-149 -328 -313 -26 -88 -14 -200 32 -291 54 -107 192 -209 303 -224 l51 -7 0
-478 0 -478 -152 -3 -153 -3 0 -15 0 -15 165 -5 c91 -3 237 -3 325 0 l160 5 3
18 3 17 -150 0 -151 0 0 479 0 479 48 6 c26 4 74 20 107 36 l60 29 57 58 c65
66 103 140 116 228 l10 60 -9 60 c-13 81 -56 169 -113 232 l-47 52 -70 35
c-38 19 -90 38 -114 42 l-45 6 0 734 0 734 220 0 220 0 0 -14 c0 -45 102 -73
148 -40 27 18 54 68 50 91 l-3 16 270 136 270 136 3 18 3 17 -18 0 c-10 -1
-137 -61 -282 -134z m-313 -158 c7 -7 12 -27 12 -45 l0 -32 -19 -11 c-43 -22
-81 1 -81 49 0 34 17 51 50 51 14 0 31 -5 38 -12z m-457 -1612 c67 -27 136
-81 174 -136 100 -145 76 -367 -55 -489 -115 -108 -295 -131 -439 -56 -53 27
-131 113 -160 175 l-25 55 -4 90 -4 90 21 56 c12 31 31 67 42 80 12 13 26 31
33 39 22 30 97 82 144 101 l47 18 85 0 85 1 56 -24z"/>
<path d="M1907 3163 c-4 -3 -7 -28 -7 -55 l0 -48 -50 0 -50 0 0 -26 0 -26 50
4 50 3 0 -48 0 -48 16 -6 c21 -8 34 14 34 60 l0 37 44 0 44 0 6 16 c10 26 -2
34 -50 34 l-44 0 0 33 c0 63 -20 94 -43 70z"/>
<path d="M1863 2702 l-63 -3 0 -24 0 -25 119 0 119 0 6 17 c4 9 3 20 -1 24
-10 9 -100 15 -180 11z"/>
<path d="M3250 4893 c-26 -10 -52 -37 -65 -68 l-13 -30 19 -37 c23 -45 45 -58
97 -58 l39 0 27 26 c14 15 26 31 26 35 0 5 524 9 1180 9 l1180 0 0 -733 0
-733 -58 -12 c-157 -32 -280 -149 -328 -313 -26 -88 -14 -200 32 -291 54 -107
192 -209 303 -224 l51 -7 0 -478 0 -478 -152 -3 -153 -3 0 -15 0 -15 165 -5
c91 -3 237 -3 325 0 l160 5 3 18 3 17 -150 0 -151 0 0 479 0 479 48 6 c26 4
74 20 107 36 l60 29 57 58 c65 66 103 140 116 228 l10 60 -9 60 c-13 81 -56
169 -113 232 l-47 52 -70 35 c-38 19 -89 38 -114 42 l-45 6 -2 757 -3 756
-1201 3 -1201 2 -11 26 c-17 36 -82 62 -122 47z m80 -69 l14 -26 -15 -26 c-17
-31 -35 -37 -72 -23 l-27 11 0 33 c0 41 15 57 55 57 l32 0 13 -26z m2566
-1595 c31 -12 69 -33 85 -48 l30 -26 -124 -124 -124 -123 -122 119 c-66 66
-121 124 -121 130 0 14 59 54 109 74 l46 18 82 1 82 0 57 -21z m-283 -230
l119 -122 -123 -123 -123 -124 -22 21 c-12 12 -33 44 -45 72 l-23 52 -4 90 -4
90 21 55 c21 57 57 110 74 110 6 0 64 -55 130 -121z m466 86 c54 -79 71 -193
46 -302 -13 -55 -65 -153 -81 -153 -6 0 -212 206 -233 233 l-14 18 119 120
c65 65 123 119 129 119 5 0 21 -16 34 -35z m-188 -365 c67 -66 118 -124 114
-130 -13 -21 -84 -59 -141 -76 l-58 -16 -65 5 c-36 2 -85 11 -109 20 -49 17
-112 57 -112 72 0 11 231 245 242 245 5 0 62 -54 129 -120z"/>
<path d="M1822 1382 c-53 -1 -101 -7 -106 -12 l-9 -9 13 -16 13 -15 196 2 196
3 3 22 3 22 -106 3 c-59 2 -150 2 -203 0z"/>
<path d="M5662 1382 c-53 -1 -101 -7 -106 -12 l-9 -9 13 -16 13 -15 196 2 196
3 3 22 3 22 -106 3 c-59 2 -150 2 -203 0z"/>
<path d="M1885 1262 c-49 -4 -63 -16 -45 -37 l13 -16 76 3 76 3 3 21 3 22 -43
3 c-24 2 -61 3 -83 1z"/>
<path d="M5725 1262 c-49 -4 -63 -16 -45 -37 l13 -16 76 3 76 3 3 21 3 22 -43
3 c-24 2 -61 3 -83 1z"/>
</g>
</svg>
