<?xml version="1.0" standalone="no"?>
<!DOCTYPE svg PUBLIC "-//W3C//DTD SVG 20010904//EN"
 "http://www.w3.org/TR/2001/REC-SVG-20010904/DTD/svg10.dtd">
<svg version="1.0" xmlns="http://www.w3.org/2000/svg"
 width="1693.431989pt" height="309.509035pt" viewBox="0 0 1693.431989 309.509035"
 preserveAspectRatio="xMidYMid meet">
<metadata>
Created by potrace 1.16, written by Peter Selinger 2001-2019
</metadata>
<g transform="translate(-144.000000,400.229035) scale(0.144000,-0.144000)"
fill="#000000" stroke="none">
<path d="M2202 2688 l-174 -90 -11 11 c-26 26 -107 3 -107 -30 0 -5 -130 -9
-320 -9 l-320 0 0 -504 0 -503 -35 -6 c-55 -9 -124 -48 -161 -91 -39 -46 -74
-131 -74 -182 0 -131 96 -249 226 -276 l44 -10 0 -184 0 -184 5610 0 5610 0 0
345 0 344 38 7 c127 22 232 147 232 276 0 52 -34 138 -74 184 -37 43 -106 82
-161 91 l-35 6 0 343 0 344 -4960 0 -4960 0 0 9 c0 20 -33 41 -65 41 l-35 0
-16 -26 -17 -26 9 -26 c5 -15 20 -32 33 -38 l23 -12 29 10 c15 5 31 18 34 29
l6 19 4950 0 4949 0 0 -334 0 -333 -35 -6 c-55 -9 -124 -48 -161 -91 -39 -46
-74 -131 -74 -182 0 -131 96 -249 226 -276 l44 -10 0 -334 0 -334 -5590 0
-5590 0 0 175 0 174 38 7 c127 22 232 147 232 276 0 52 -34 138 -74 184 -37
43 -106 82 -161 91 l-35 6 0 493 0 494 309 0 310 0 6 -19 c3 -11 19 -24 34
-29 l29 -10 23 12 c14 6 28 26 34 45 l10 33 177 89 c158 79 206 111 166 108
-7 0 -91 -41 -186 -91z m-198 -110 l11 -18 -11 -17 c-6 -10 -20 -19 -32 -21
l-21 -3 -11 20 -11 21 11 21 11 20 21 -3 c12 -2 26 -11 32 -20z m534 -12 c4
-36 -10 -50 -42 -42 l-26 6 0 23 c0 29 19 49 45 45 l20 -3 3 -29z m10047 -735
c22 -10 45 -24 52 -32 l12 -15 -84 -84 -85 -85 -85 85 -84 84 12 15 c7 8 30
22 52 32 l40 19 65 0 65 0 40 -19z m-205 -316 l-85 -86 -22 26 c-59 68 -57
230 4 298 l17 18 85 -85 86 -86 -85 -85z m331 190 c33 -72 21 -199 -24 -250
l-22 -26 -85 86 -85 85 85 85 84 84 15 -12 c8 -7 22 -30 32 -52z m-143 -208
l83 -83 -18 -17 c-33 -29 -91 -47 -153 -47 -62 0 -120 18 -153 47 l-18 17 83
83 c45 46 85 83 88 83 3 0 43 -37 88 -83z m-11190 18 c49 -21 110 -80 133
-130 21 -45 25 -129 8 -189 -13 -48 -82 -123 -134 -147 l-40 -19 -65 0 -65 0
-40 19 c-52 24 -121 99 -134 147 -16 56 -13 139 4 182 21 49 80 110 130 133
l40 19 63 0 c34 0 79 -7 100 -15z"/>
<path d="M1270 1435 l0 -35 -35 0 -35 0 0 -15 0 -15 35 0 35 0 0 -35 c0 -19 5
-35 10 -35 6 0 10 16 10 35 l0 35 35 0 35 0 0 15 0 15 -35 0 -35 0 0 35 c0 19
-4 35 -10 35 -5 0 -10 -16 -10 -35z"/>
<path d="M1200 1145 l0 -15 80 0 80 0 0 15 0 15 -80 0 -80 0 0 -15z"/>
</g>
</svg>
