<svg xmlns="http://www.w3.org/2000/svg" xmlns:xlink="http://www.w3.org/1999/xlink" width="1080.0" height="2113.0" background="#FFFFFF"><g type="COMPO" id="c_13"><path d="M848.3549 1056.1548 L252.98573 1056.1549 L252.98573 1235.0398 L848.35486 1235.0397 L848.3549 1056.1548 " stroke-linecap="round" stroke-linejoin="round" rough-pts="848.3549,1056.1548 776.16724,1056.155 332.1417,1056.1549 252.98573,1056.1549 252.98573,1235.0398 550.6703,1235.0398 848.35486,1235.0397 " id="h_1" path-type="area" fill="#ffbd00" fill-opacity="0.6000000238418579"/><path d="M387.57812 936.5054 L387.5781 877.2701 L726.1133 877.2701 L726.1133 936.67004 L776.16724 936.67 L776.16724 1056.155 L332.1417 1056.1549 L332.1417 936.5051 L387.57806 936.50507 " stroke-linecap="round" stroke-linejoin="round" rough-pts="387.57812,936.5054 387.5781,877.2701 726.1133,877.2701 726.1133,936.67004 776.16724,936.67 776.16724,1056.155 332.1417,1056.1549 332.1417,936.5051 " id="h_6" path-type="area" fill="#bfd02f" fill-opacity="1.0"/><path d="M817.619 807.15814 L820.1809 877.26996 L292.39282 877.2701 L292.39282 807.15826 L817.619 807.15826 " stroke-linecap="round" stroke-linejoin="round" rough-pts="817.619,807.15814 820.1809,877.26996 726.1133,877.2701 387.5781,877.2701 292.39282,877.2701 292.39282,807.15826 368.75003,807.15826 736.9878,807.15826 " id="h_9" path-type="area" fill="#e3a5a5" fill-opacity="0.3960784375667572"/><path d="M736.9878 807.15826 L736.9878 750.98016 L368.75003 750.98 L368.75003 807.15826 L736.9878 807.15826 " stroke-linecap="round" stroke-linejoin="round" rough-pts="736.9878,807.15826 736.9878,750.98016 552.86896,750.9801 368.75003,750.98 368.75003,807.15826 " id="h_7" path-type="area" fill="#000000" fill-opacity="0.3960784375667572"/><path d="M387.57812 936.5054 L387.5781 877.2701 L252.98576 877.2701 L252.98573 1056.1549 L332.1417 1056.1549 L332.1417 936.5051 L387.57806 936.50507 " stroke-linecap="round" stroke-linejoin="round" rough-pts="387.57812,936.5054 387.5781,877.2701 292.39282,877.2701 252.98576,877.2701 252.98573,955.4497 252.98573,1056.1549 332.1417,1056.1549 332.1417,936.5051 " id="h_5" path-type="area" fill="#5e5ebb" fill-opacity="0.3960784375667572"/><path d="M848.355 877.26996 L726.1133 877.2701 L726.1133 936.67004 L776.16724 936.67 L776.16724 1056.155 L848.3549 1056.1548 L848.355 877.26996 " stroke-linecap="round" stroke-linejoin="round" rough-pts="848.355,877.26996 820.1809,877.26996 726.1133,877.2701 726.1133,936.67004 776.16724,936.67 776.16724,1056.155 848.3549,1056.1548 848.355,955.82855 " id="h_3" path-type="area" fill="#5e5ebb" fill-opacity="0.3960784375667572"/><line x1="252.98573" id="n_87" x2="252.98573" y1="877.27" y2="1235.0398" stroke-linecap="round" stroke-opacity="1.0" stroke-width="6.0" fill="none" stroke="#000000"/><line x1="252.98573" id="n_88" x2="848.35486" y1="1235.0398" y2="1235.0397" stroke-linecap="round" stroke-opacity="1.0" stroke-width="6.0" fill="none" stroke="#000000"/><line x1="848.35486" id="n_89" x2="848.355" y1="1235.0397" y2="877.26996" stroke-linecap="round" stroke-opacity="1.0" stroke-width="6.0" fill="none" stroke="#000000"/><line x1="848.355" id="n_90" x2="252.98576" y1="877.26996" y2="877.2701" stroke-linecap="round" stroke-opacity="1.0" stroke-width="6.0" fill="none" stroke="#000000"/><line x1="332.1417" id="n_91" x2="332.14166" y1="1056.1549" y2="936.50507" stroke-linecap="round" stroke-opacity="1.0" stroke-width="6.0" fill="none" stroke="#000000"/><line x1="368.75003" id="n_92" x2="368.75003" y1="807.1582" y2="750.98" stroke-linecap="round" stroke-opacity="1.0" stroke-width="6.0" fill="none" stroke="#000000"/><line x1="252.98573" id="n_93" x2="848.3549" y1="1056.1549" y2="1056.1548" stroke-linecap="round" stroke-opacity="1.0" stroke-width="6.0" fill="none" stroke="#000000"/><line x1="332.1417" id="n_94" x2="387.57806" y1="936.5051" y2="936.50507" stroke-linecap="round" stroke-opacity="1.0" stroke-width="6.0" fill="none" stroke="#000000"/><line x1="776.16724" id="n_95" x2="776.16724" y1="1056.155" y2="936.67" stroke-linecap="round" stroke-opacity="1.0" stroke-width="6.0" fill="none" stroke="#000000"/><line x1="292.39285" id="n_96" x2="292.39285" y1="877.27014" y2="807.15826" stroke-linecap="round" stroke-opacity="1.0" stroke-width="6.0" fill="none" stroke="#000000"/><line x1="368.75003" id="n_97" x2="736.9878" y1="750.98" y2="750.98016" stroke-linecap="round" stroke-opacity="1.0" stroke-width="6.0" fill="none" stroke="#000000"/><line x1="550.6703" id="n_98" x2="550.6703" y1="1421.1769" y2="1235.0398" stroke-linecap="round" stroke-opacity="1.0" stroke-width="21.0" fill="none" stroke="#000000"/><line x1="387.57812" id="n_99" x2="387.57812" y1="936.5054" y2="877.27" stroke-linecap="round" stroke-opacity="1.0" stroke-width="6.0" fill="none" stroke="#000000"/><line x1="776.16736" id="n_100" x2="726.11334" y1="936.67004" y2="936.67" stroke-linecap="round" stroke-opacity="1.0" stroke-width="6.0" fill="none" stroke="#000000"/><line x1="292.39282" id="n_101" x2="817.619" y1="807.15826" y2="807.15826" stroke-linecap="round" stroke-opacity="1.0" stroke-width="6.0" fill="none" stroke="#000000"/><line x1="736.9878" id="n_102" x2="736.9878" y1="750.9801" y2="807.15826" stroke-linecap="round" stroke-opacity="1.0" stroke-width="6.0" fill="none" stroke="#000000"/><line x1="726.1133" id="n_103" x2="726.1133" y1="936.67004" y2="877.2701" stroke-linecap="round" stroke-opacity="1.0" stroke-width="6.0" fill="none" stroke="#000000"/><line x1="817.619" id="n_104" x2="820.1809" y1="807.15814" y2="877.26996" stroke-linecap="round" stroke-opacity="1.0" stroke-width="6.0" fill="none" stroke="#000000"/><line x1="1002.36536" id="n_105" x2="848.35504" y1="955.5311" y2="955.82855" stroke-linecap="round" stroke-opacity="1.0" stroke-width="21.0" fill="none" stroke="#000000"/><line x1="107.48597" id="n_106" x2="252.98572" y1="955.44965" y2="955.4497" stroke-linecap="round" stroke-opacity="1.0" stroke-width="21.0" fill="none" stroke="#000000"/><line x1="552.86865" id="n_107" x2="552.86896" y1="537.1558" y2="750.98004" stroke-linecap="round" stroke-opacity="1.0" stroke-width="21.0" fill="none" stroke="#000000"/></g><text x="-22.191406" font-name="Default-Regular" font-family="Default" width="1152" boxheight="720" gravity="17" id="m_0" y="47.69394" font-size="144.0" transform="rotate(0.0,-22.191406,47.69394)" fill="#000000" fill-opacity="1.0" stroke="#000000"><tspan x="553.8086" text-anchor="middle" id="m_0_0" y="429.31894">G</tspan></text><text x="-133.52295" font-name="Default-Regular" font-family="Default" width="1355" boxheight="847" gravity="17" id="m_1" y="1105.6476" font-size="144.0" transform="rotate(0.0,-133.52295,1105.6476)" fill="#000000" fill-opacity="1.0" stroke="#000000"><tspan x="543.47705" text-anchor="middle" id="m_1_0" y="1547.7726">B</tspan></text><text x="361.23035" font-name="Default-Regular" font-family="Default" width="1355" boxheight="847" gravity="17" id="m_2" y="408.76508" font-size="144.0" transform="rotate(0.0,361.23035,408.76508)" fill="#000000" fill-opacity="1.0" stroke="#000000"><tspan x="1038.2303" text-anchor="middle" id="m_2_0" y="850.8901">D</tspan></text><text x="-624.30176" font-name="Default-Regular" font-family="Default" width="1355" boxheight="847" gravity="17" id="m_3" y="408.51013" font-size="144.0" transform="rotate(0.0,-624.30176,408.51013)" fill="#000000" fill-opacity="1.0" stroke="#000000"><tspan x="52.698242" text-anchor="middle" id="m_3_0" y="853.63513">S</tspan></text></svg>