<?xml version="1.0" standalone="no"?>
<!DOCTYPE svg PUBLIC "-//W3C//DTD SVG 20010904//EN"
 "http://www.w3.org/TR/2001/REC-SVG-20010904/DTD/svg10.dtd">
<svg version="1.0" xmlns="http://www.w3.org/2000/svg"
 width="495.724704pt" height="263.459477pt" viewBox="0 0 495.724704 263.459477"
 preserveAspectRatio="xMidYMid meet">
<metadata>
Created by potrace 1.16, written by Peter Selinger 2001-2019
</metadata>
<g transform="translate(-144.002272,354.179477) scale(0.144000,-0.144000)"
fill="#000000" stroke="none">
<path d="M2841 2371 l-174 -88 -28 14 -27 13 -26 -11 c-14 -7 -28 -20 -31 -31
l-6 -18 -640 0 -639 0 0 -344 0 -343 -37 -7 c-87 -14 -162 -73 -204 -161 l-29
-60 0 -55 0 -55 29 -60 c16 -33 41 -72 57 -87 34 -32 130 -78 162 -78 l22 0 0
-185 0 -185 1450 0 1450 0 0 184 0 184 37 7 c87 16 160 71 200 150 l26 50 5
61 5 62 -27 58 c-15 33 -39 72 -54 88 -31 33 -136 86 -169 86 l-23 0 0 345 0
345 -479 0 -480 0 -6 18 c-3 11 -17 24 -30 30 l-25 12 -25 -10 c-14 -5 -30
-21 -37 -35 l-11 -25 11 -25 c7 -14 23 -30 37 -35 l25 -10 25 12 c13 6 27 19
30 30 l6 18 470 0 469 0 0 -334 0 -333 -37 -7 c-87 -14 -162 -73 -204 -161
l-29 -60 0 -55 0 -55 29 -60 c16 -33 41 -72 57 -87 34 -32 130 -78 162 -78
l22 0 0 -175 0 -175 -1430 0 -1430 0 0 174 0 174 37 7 c128 24 220 128 231
261 l5 62 -27 58 c-15 33 -39 72 -54 88 -31 33 -136 86 -169 86 l-23 0 0 335
0 335 629 0 630 0 6 -18 c3 -11 17 -24 31 -31 l26 -11 26 12 c16 8 31 27 38
47 l11 34 182 92 c158 79 200 107 157 104 -6 0 -89 -40 -185 -88z m-197 -113
l11 -18 -11 -17 c-6 -10 -20 -19 -32 -21 l-21 -3 -11 20 -11 21 11 21 11 20
21 -3 c12 -2 26 -11 32 -20z m536 2 l11 -20 -11 -20 c-18 -34 -70 -19 -70 20
0 39 52 54 70 20z m-1816 -741 l39 -11 53 -52 52 -53 11 -39 c14 -50 14 -118
0 -168 l-11 -39 -52 -53 -53 -52 -39 -11 c-50 -14 -118 -14 -168 0 l-39 11
-53 52 -52 53 -11 39 c-14 50 -14 118 0 168 l11 39 53 53 c29 29 68 57 86 62
47 14 126 14 173 1z m2927 -24 l42 -27 -87 -86 -86 -87 -85 85 -86 85 28 23
c41 33 79 42 160 38 l72 -3 42 -28z m-233 -301 l-86 -87 -28 43 -29 44 0 86 0
86 29 44 28 43 86 -87 87 -86 -87 -86z m343 161 c6 -22 9 -68 6 -103 l-5 -63
-27 -41 -27 -41 -86 87 -87 86 85 85 85 86 23 -28 c12 -15 27 -46 33 -68z
m-152 -179 l84 -84 -43 -29 -44 -28 -86 0 -86 0 -44 28 -43 29 84 84 c46 46
86 84 89 84 3 0 43 -38 89 -84z"/>
<path d="M1270 1435 l0 -35 -35 0 -35 0 0 -15 0 -15 35 0 35 0 0 -35 c0 -19 5
-35 10 -35 6 0 10 16 10 35 l0 35 35 0 35 0 0 15 0 15 -35 0 -35 0 0 35 c0 19
-4 35 -10 35 -5 0 -10 -16 -10 -35z"/>
<path d="M1200 1145 l0 -15 80 0 80 0 0 15 0 15 -80 0 -80 0 0 -15z"/>
</g>
</svg>
