<?xml version="1.0" standalone="no"?>
<!DOCTYPE svg PUBLIC "-//W3C//DTD SVG 20010904//EN"
 "http://www.w3.org/TR/2001/REC-SVG-20010904/DTD/svg10.dtd">
<svg version="1.0" xmlns="http://www.w3.org/2000/svg"
 width="817.911989pt" height="502.469035pt" viewBox="0 0 817.911989 502.469035"
 preserveAspectRatio="xMidYMid meet">
<metadata>
Created by potrace 1.16, written by Peter Selinger 2001-2019
</metadata>
<g transform="translate(-144.000000,584.549035) scale(0.144000,-0.144000)"
fill="#000000" stroke="none">
<path d="M1882 3968 l-174 -90 -11 11 c-26 26 -107 3 -107 -30 0 -5 -68 -9
-160 -9 l-160 0 0 -606 0 -606 -30 -28 c-16 -15 -30 -38 -30 -50 0 -12 14 -35
30 -50 l30 -28 0 -460 0 -459 -35 -6 c-55 -9 -124 -48 -161 -91 -39 -46 -74
-131 -74 -182 0 -131 96 -249 226 -276 l44 -10 0 -184 0 -184 1246 0 1246 0
28 -30 c35 -38 65 -38 100 0 l28 30 562 0 562 0 28 -30 c15 -16 38 -30 50 -30
12 0 35 14 50 30 l28 30 606 0 606 0 0 185 0 184 38 7 c127 22 232 147 232
276 0 52 -34 138 -74 184 -37 43 -106 82 -161 91 l-35 6 0 183 0 184 -640 0
-640 0 0 960 0 960 -1440 0 -1440 0 0 9 c0 20 -33 41 -65 41 l-35 0 -16 -26
-17 -26 9 -26 c5 -15 20 -32 33 -38 l23 -12 29 10 c15 5 31 18 34 29 l6 19
1430 0 1429 0 0 -950 0 -950 -595 0 -596 0 -34 35 -35 34 0 286 0 285 -800 0
-800 0 0 9 c0 20 -33 41 -65 41 l-35 0 -16 -26 -17 -26 9 -26 c5 -15 20 -32
33 -38 l23 -12 29 10 c15 5 31 18 34 29 l6 19 790 0 789 0 0 -276 0 -276 -30
-28 c-38 -35 -38 -65 0 -100 l30 -28 0 -140 0 -139 -35 -6 c-55 -9 -124 -48
-161 -91 -39 -46 -74 -131 -74 -182 0 -131 96 -249 226 -276 l44 -10 0 -139 0
-140 -35 -34 -34 -35 -1236 0 -1235 0 0 175 0 174 38 7 c127 22 232 147 232
276 0 52 -34 138 -74 184 -37 43 -106 82 -161 91 l-35 6 0 459 0 459 35 34 34
35 115 0 115 0 6 -19 c3 -11 19 -24 34 -29 l29 -10 23 12 c14 6 28 26 34 45
l10 33 177 89 c155 78 204 109 169 109 -5 0 -89 -41 -186 -91 l-177 -91 -11
11 c-26 26 -107 3 -107 -30 0 -5 -51 -9 -115 -9 l-116 0 -34 35 -35 34 0 596
0 595 149 0 150 0 6 -19 c3 -11 19 -24 34 -29 l29 -10 23 12 c14 6 28 26 34
45 l10 33 177 89 c158 79 206 111 166 108 -7 0 -91 -41 -186 -91z m-198 -110
l11 -18 -11 -17 c-6 -10 -20 -19 -32 -21 l-21 -3 -11 20 -11 21 11 21 11 20
21 -3 c12 -2 26 -11 32 -20z m534 -12 c4 -36 -10 -50 -42 -42 l-26 6 0 23 c0
29 19 49 45 45 l20 -3 3 -29z m-534 -1268 l11 -18 -11 -17 c-6 -10 -20 -19
-32 -21 l-21 -3 -11 20 -11 21 11 21 11 20 21 -3 c12 -2 26 -11 32 -20z m534
-12 c4 -36 -10 -50 -42 -42 l-26 6 0 23 c0 29 19 49 45 45 l20 -3 3 -29z
m2892 -830 l0 -173 -35 -6 c-55 -9 -124 -48 -161 -91 -39 -46 -74 -131 -74
-182 0 -131 96 -249 226 -276 l44 -10 0 -139 0 -140 -35 -34 -34 -35 -561 0
-561 0 -34 35 -35 34 0 140 0 140 38 7 c127 22 232 147 232 276 0 52 -34 138
-74 184 -37 43 -106 82 -161 91 l-35 6 0 139 0 139 33 34 32 34 598 0 597 1 0
-174z m1280 0 l0 -173 -35 -6 c-55 -9 -124 -48 -161 -91 -39 -46 -74 -131 -74
-182 0 -131 96 -249 226 -276 l44 -10 0 -174 0 -174 -595 0 -596 0 -34 35 -35
34 0 140 0 140 38 7 c127 22 232 147 232 276 0 52 -34 138 -74 184 -37 43
-106 82 -161 91 l-35 6 0 173 0 174 630 0 630 0 0 -174z m-5012 -221 c49 -21
110 -80 133 -130 21 -45 25 -129 8 -189 -13 -48 -82 -123 -134 -147 l-40 -19
-65 0 -65 0 -40 19 c-52 24 -121 99 -134 147 -16 56 -13 139 4 182 21 49 80
110 130 133 l40 19 63 0 c34 0 79 -7 100 -15z m2567 -4 c22 -10 45 -24 52 -32
l12 -15 -84 -84 -85 -85 -85 85 -84 84 12 15 c7 8 30 22 52 32 l40 19 65 0 65
0 40 -19z m1280 0 c22 -10 45 -24 52 -32 l12 -15 -84 -84 -85 -85 -85 85 -84
84 12 15 c7 8 30 22 52 32 l40 19 65 0 65 0 40 -19z m1280 0 c22 -10 45 -24
52 -32 l12 -15 -84 -84 -85 -85 -85 85 -84 84 12 15 c7 8 30 22 52 32 l40 19
65 0 65 0 40 -19z m-2765 -316 l-85 -86 -22 26 c-59 68 -57 230 4 298 l17 18
85 -85 86 -86 -85 -85z m331 190 c33 -72 21 -199 -24 -250 l-22 -26 -85 86
-85 85 85 85 84 84 15 -12 c8 -7 22 -30 32 -52z m949 -190 l-85 -86 -22 26
c-59 68 -57 230 4 298 l17 18 85 -85 86 -86 -85 -85z m331 190 c33 -72 21
-199 -24 -250 l-22 -26 -85 86 -85 85 85 85 84 84 15 -12 c8 -7 22 -30 32 -52z
m949 -190 l-85 -86 -22 26 c-59 68 -57 230 4 298 l17 18 85 -85 86 -86 -85
-85z m331 190 c33 -72 21 -199 -24 -250 l-22 -26 -85 86 -85 85 85 85 84 84
15 -12 c8 -7 22 -30 32 -52z m-2703 -208 l83 -83 -18 -17 c-70 -63 -236 -63
-306 0 l-18 17 83 83 c45 46 85 83 88 83 3 0 43 -37 88 -83z m1280 0 l83 -83
-18 -17 c-70 -63 -236 -63 -306 0 l-18 17 83 83 c45 46 85 83 88 83 3 0 43
-37 88 -83z m1280 0 l83 -83 -18 -17 c-70 -63 -236 -63 -306 0 l-18 17 83 83
c45 46 85 83 88 83 3 0 43 -37 88 -83z"/>
<path d="M1270 1435 l0 -35 -35 0 -35 0 0 -15 0 -15 35 0 35 0 0 -35 c0 -19 5
-35 10 -35 6 0 10 16 10 35 l0 35 35 0 35 0 0 15 0 15 -35 0 -35 0 0 35 c0 19
-4 35 -10 35 -5 0 -10 -16 -10 -35z"/>
<path d="M1200 1145 l0 -15 80 0 80 0 0 15 0 15 -80 0 -80 0 0 -15z"/>
</g>
</svg>
